<svg xmlns="http://www.w3.org/2000/svg" xmlns:xlink="http://www.w3.org/1999/xlink" width="1649" zoomAndPan="magnify" viewBox="0 0 1236.75 320.250004" height="427" preserveAspectRatio="xMidYMid meet" version="1.0"><defs><clipPath id="db0e8528b7"><path d="M 1.320312 78 L 281 78 L 281 242 L 1.320312 242 Z M 1.320312 78 " clip-rule="nonzero"/></clipPath><clipPath id="df1cb50336"><path d="M 311.886719 164.273438 L 314.753906 164.273438 L 314.753906 166.707031 L 311.886719 166.707031 Z M 311.886719 164.273438 " clip-rule="nonzero"/></clipPath><clipPath id="9edd1a465e"><path d="M 314.742188 165.109375 C 313.46875 167.128906 312.273438 166.753906 312.046875 166.378906 C 311.75 165.929688 311.972656 164.734375 312.347656 164.433594 C 312.796875 164.058594 314.367188 164.507812 314.367188 164.507812 " clip-rule="nonzero"/></clipPath><clipPath id="2073e83627"><path d="M 0.886719 0.273438 L 3.746094 0.273438 L 3.746094 2.707031 L 0.886719 2.707031 Z M 0.886719 0.273438 " clip-rule="nonzero"/></clipPath><clipPath id="45d674f080"><path d="M 3.742188 1.109375 C 2.46875 3.128906 1.273438 2.753906 1.046875 2.378906 C 0.75 1.929688 0.972656 0.734375 1.347656 0.433594 C 1.796875 0.0585938 3.367188 0.507812 3.367188 0.507812 " clip-rule="nonzero"/></clipPath><clipPath id="134398df99"><rect x="0" width="4" y="0" height="3"/></clipPath></defs><path fill="#ffffff" d="M 878.8125 5.421875 L 859.539062 0 L 713.792969 0 L 713.792969 318.59375 L 761.972656 318.59375 L 762.578125 207.175781 L 839.0625 207.175781 L 858.9375 205.371094 L 872.1875 202.359375 L 894.472656 192.722656 L 905.3125 185.496094 L 913.742188 178.269531 L 920.96875 170.441406 L 931.210938 155.382812 L 939.039062 137.917969 L 944.457031 113.226562 L 944.457031 89.132812 L 941.449219 74.078125 L 937.832031 62.636719 L 927.59375 43.363281 L 914.347656 27.703125 L 896.277344 13.851562 Z M 761.972656 42.761719 L 839.664062 42.160156 L 850.507812 43.964844 L 865.5625 49.988281 L 875.199219 56.613281 L 883.027344 64.441406 L 889.652344 74.679688 L 893.867188 85.519531 L 895.675781 96.363281 L 895.675781 107.804688 L 893.867188 119.246094 L 891.460938 126.476562 L 883.628906 140.328125 L 873.996094 149.960938 L 863.757812 156.585938 L 846.289062 162.007812 L 836.050781 163.210938 L 762.578125 163.210938 Z M 761.972656 42.761719 " fill-opacity="1" fill-rule="evenodd"/><path fill="#ffffff" d="M 1052.261719 0 L 939.640625 318.59375 L 989.628906 318.59375 L 1013.117188 249.335938 L 1018.535156 236.085938 L 1149.226562 236.085938 L 1153.441406 245.722656 L 1178.136719 317.992188 L 1229.328125 318.59375 L 1117.308594 0 Z M 1084.183594 46.976562 L 1133.566406 189.710938 L 1034.796875 190.3125 L 1034.195312 189.710938 L 1046.84375 152.371094 L 1049.855469 145.746094 L 1053.46875 133.097656 L 1056.480469 126.476562 L 1064.308594 101.78125 L 1066.71875 96.964844 L 1071.535156 80.703125 L 1076.957031 67.453125 L 1081.773438 51.191406 Z M 1084.183594 46.976562 " fill-opacity="1" fill-rule="evenodd"/><path fill="#ffffff" d="M 432.539062 0 L 432.539062 318.59375 L 645.136719 318.59375 L 644.535156 277.640625 L 480.71875 277.039062 L 481.320312 177.0625 L 630.679688 177.0625 L 631.285156 175.859375 L 630.679688 133.097656 L 481.320312 133.097656 L 480.71875 43.363281 L 644.535156 42.761719 L 645.136719 0 Z M 432.539062 0 " fill-opacity="1" fill-rule="evenodd"/><path fill="#ffffff" d="M 280.769531 0 L 328.949219 0 L 328.949219 318.59375 L 280.769531 318.59375 Z M 280.769531 0 " fill-opacity="1" fill-rule="evenodd"/><path fill="#ffffff" d="M 67.570312 0 L 67.570312 78.292969 L 115.75 78.894531 L 115.75 0 Z M 67.570312 0 " fill-opacity="1" fill-rule="evenodd"/><path fill="#ffffff" d="M 68.171875 241.507812 L 67.570312 318.59375 L 115.75 318.59375 L 115.75 241.507812 Z M 68.171875 241.507812 " fill-opacity="1" fill-rule="evenodd"/><g clip-path="url(#db0e8528b7)"><path fill="#7ed957" d="M 1.320312 78.894531 L 1.320312 241.507812 L 280.769531 240.902344 L 280.167969 78.894531 Z M 1.320312 78.894531 " fill-opacity="1" fill-rule="evenodd"/></g><path fill="#7ed957" d="M 329.550781 78.894531 L 329.550781 241.507812 L 395.199219 241.507812 L 395.800781 79.5 Z M 329.550781 78.894531 " fill-opacity="1" fill-rule="evenodd"/><g clip-path="url(#df1cb50336)"><g clip-path="url(#9edd1a465e)"><g transform="matrix(1, 0, 0, 1, 311, 164)"><g clip-path="url(#134398df99)"><g clip-path="url(#2073e83627)"><g clip-path="url(#45d674f080)"><rect x="-583.085" width="1780.92" fill="#f2f3f5" height="461.160006" y="-234.455001" fill-opacity="1"/></g></g></g></g></g></g></svg>