<svg xmlns="http://www.w3.org/2000/svg" viewBox="0 0 2048 530" width="2048" height="530">
<path d="M 1457 9 L 1425 0 L 1183 0 L 1183 529 L 1263 529 L 1264 344 L 1391 344 L 1424 341 L 1446 336 L 1483 320 L 1501 308 L 1515 296 L 1527 283 L 1544 258 L 1557 229 L 1566 188 L 1566 148 L 1561 123 L 1555 104 L 1538 72 L 1516 46 L 1486 23 Z M 1263 71 L 1392 70 L 1410 73 L 1435 83 L 1451 94 L 1464 107 L 1475 124 L 1482 142 L 1485 160 L 1485 179 L 1482 198 L 1478 210 L 1465 233 L 1449 249 L 1432 260 L 1403 269 L 1386 271 L 1264 271 Z" fill="#1d1d1b" fill-rule="evenodd"/><path d="M 1745 0 L 1558 529 L 1641 529 L 1680 414 L 1689 392 L 1906 392 L 1913 408 L 1954 528 L 2039 529 L 1853 0 Z M 1798 78 L 1880 315 L 1716 316 L 1715 315 L 1736 253 L 1741 242 L 1747 221 L 1752 210 L 1765 169 L 1769 161 L 1777 134 L 1786 112 L 1794 85 Z" fill="#1d1d1b" fill-rule="evenodd"/><path d="M 716 0 L 716 529 L 1069 529 L 1068 461 L 796 460 L 797 294 L 1045 294 L 1046 292 L 1045 221 L 797 221 L 796 72 L 1068 71 L 1069 0 Z" fill="#1d1d1b" fill-rule="evenodd"/><path d="M 464 0 L 464 529 L 544 529 L 544 0 Z" fill="#1d1d1b" fill-rule="evenodd"/><path d="M 110 0 L 110 130 L 190 131 L 190 0 Z" fill="#1d1d1b" fill-rule="evenodd"/><path d="M 111 401 L 110 529 L 190 529 L 190 401 Z" fill="#1d1d1b" fill-rule="evenodd"/>
<path d="M 0 131 L 0 401 L 464 400 L 463 131 Z" fill="#7ed957" fill-rule="evenodd"/><path d="M 545 131 L 545 401 L 654 401 L 655 132 Z" fill="#7ed957" fill-rule="evenodd"/>
</svg>