<svg xmlns="http://www.w3.org/2000/svg" xmlns:xlink="http://www.w3.org/1999/xlink" width="498" zoomAndPan="magnify" viewBox="0 0 373.5 299.25" height="399" preserveAspectRatio="xMidYMid meet" version="1.0"><defs><clipPath id="a52e98dd7c"><path d="M 106.144531 183.613281 L 109 183.613281 L 109 186.046875 L 106.144531 186.046875 Z M 106.144531 183.613281 " clip-rule="nonzero"/></clipPath><clipPath id="27e406687a"><path d="M 109 184.449219 C 107.726562 186.46875 106.53125 186.09375 106.308594 185.71875 C 106.007812 185.269531 106.230469 184.074219 106.605469 183.773438 C 107.054688 183.398438 108.625 183.847656 108.625 183.847656 " clip-rule="nonzero"/></clipPath><clipPath id="d2c8766d4d"><path d="M 0.144531 0.613281 L 3 0.613281 L 3 3.046875 L 0.144531 3.046875 Z M 0.144531 0.613281 " clip-rule="nonzero"/></clipPath><clipPath id="096c99abfd"><path d="M 3 1.449219 C 1.726562 3.46875 0.53125 3.09375 0.308594 2.71875 C 0.0078125 2.269531 0.230469 1.074219 0.605469 0.773438 C 1.054688 0.398438 2.625 0.847656 2.625 0.847656 " clip-rule="nonzero"/></clipPath><clipPath id="1e2b8c1fb1"><rect x="0" width="3" y="0" height="4"/></clipPath><clipPath id="32f599347c"><path d="M 0.21875 73 L 262 73 L 262 226 L 0.21875 226 Z M 0.21875 73 " clip-rule="nonzero"/></clipPath></defs><g clip-path="url(#a52e98dd7c)"><g clip-path="url(#27e406687a)"><g transform="matrix(1, 0, 0, 1, 106, 183)"><g clip-path="url(#1e2b8c1fb1)"><g clip-path="url(#d2c8766d4d)"><g clip-path="url(#096c99abfd)"><rect x="-188.17" width="537.84" fill="#f2f3f5" height="430.919999" y="-248.835" fill-opacity="1"/></g></g></g></g></g></g><path fill="#000000" d="M 261.476562 0 L 306.519531 0 L 306.519531 297.84375 L 261.476562 297.84375 Z M 261.476562 0 " fill-opacity="1" fill-rule="evenodd"/><path fill="#000000" d="M 62.164062 0 L 62.164062 73.195312 L 107.207031 73.757812 L 107.207031 0 Z M 62.164062 0 " fill-opacity="1" fill-rule="evenodd"/><path fill="#000000" d="M 62.726562 225.777344 L 62.164062 297.84375 L 107.207031 297.84375 L 107.207031 225.777344 Z M 62.726562 225.777344 " fill-opacity="1" fill-rule="evenodd"/><g clip-path="url(#32f599347c)"><path fill="#7ed957" d="M 0.230469 73.757812 L 0.230469 225.777344 L 261.476562 225.214844 L 260.914062 73.757812 Z M 0.230469 73.757812 " fill-opacity="1" fill-rule="evenodd"/></g><path fill="#7ed957" d="M 307.082031 73.757812 L 307.082031 225.777344 L 368.453125 225.777344 L 369.015625 74.320312 Z M 307.082031 73.757812 " fill-opacity="1" fill-rule="evenodd"/></svg>