<svg xmlns="http://www.w3.org/2000/svg" xmlns:xlink="http://www.w3.org/1999/xlink" width="344" zoomAndPan="magnify" viewBox="0 0 258 25.5" height="34" preserveAspectRatio="xMidYMid meet" version="1.0"><defs><clipPath id="a23404d78e"><path d="M 41.589844 9.226562 L 41.941406 9.226562 L 41.941406 9.476562 L 41.589844 9.476562 Z M 41.589844 9.226562 " clip-rule="nonzero"/></clipPath><clipPath id="def9d01d21"><path d="M 41.917969 9.390625 C 41.257812 9.613281 41.84375 9.246094 41.84375 9.246094 " clip-rule="nonzero"/></clipPath><clipPath id="f58a471445"><path d="M 0.589844 0.226562 L 0.941406 0.226562 L 0.941406 0.476562 L 0.589844 0.476562 Z M 0.589844 0.226562 " clip-rule="nonzero"/></clipPath><clipPath id="ebafaac559"><path d="M 0.917969 0.390625 C 0.257812 0.613281 0.84375 0.246094 0.84375 0.246094 " clip-rule="nonzero"/></clipPath><clipPath id="f87860acfe"><rect x="0" width="1" y="0" height="1"/></clipPath></defs><path fill="#eb1700" d="M 30.867188 21.558594 C 28.476562 21.558594 27.140625 19.304688 27.140625 15.226562 C 27.140625 11.082031 28.476562 8.890625 30.867188 8.890625 C 33.257812 8.890625 34.59375 11.117188 34.59375 15.226562 C 34.585938 19.367188 33.253906 21.558594 30.867188 21.558594 Z M 30.867188 7.195312 C 25.996094 7.195312 23.292969 10.808594 23.292969 15.226562 C 23.292969 19.640625 25.996094 23.257812 30.867188 23.257812 C 35.738281 23.257812 38.441406 19.640625 38.441406 15.226562 C 38.441406 10.808594 35.738281 7.195312 30.867188 7.195312 Z M 64.722656 7.195312 C 62.425781 7.195312 61.15625 8.183594 60.441406 9.449219 L 60.253906 9.449219 L 60.253906 7.5 L 56.589844 7.5 L 56.589844 22.949219 L 60.253906 22.949219 L 60.253906 12.972656 C 60.253906 10.6875 61.433594 9.355469 63.328125 9.355469 C 65.160156 9.355469 65.964844 10.5625 65.964844 12.386719 L 65.964844 22.949219 L 69.625 22.949219 L 69.625 12.351562 C 69.628906 9.171875 67.953125 7.195312 64.722656 7.195312 Z M 77.945312 7.195312 C 74.5625 7.195312 72.015625 8.613281 72.015625 11.644531 C 72.015625 14.210938 73.785156 15.601562 75.773438 16.09375 L 78.875 16.867188 C 80.523438 17.265625 81.265625 17.855469 81.265625 19.152344 C 81.265625 20.730469 80.148438 21.628906 78.195312 21.628906 C 76.082031 21.628906 74.996094 20.609375 74.65625 18.046875 L 71.367188 18.972656 C 71.550781 21.632812 74.035156 23.265625 77.792969 23.265625 C 81.980469 23.265625 84.246094 21.320312 84.246094 18.230469 C 84.246094 15.328125 82.226562 14.121094 80.121094 13.59375 L 77.140625 12.851562 C 75.648438 12.484375 74.996094 11.804688 74.996094 10.8125 C 74.996094 9.578125 76.050781 8.835938 77.632812 8.835938 C 79.496094 8.835938 80.644531 9.855469 80.800781 11.804688 L 83.902344 10.875 C 83.53125 8.707031 81.390625 7.195312 77.945312 7.195312 Z M 93.339844 21.558594 C 90.949219 21.558594 89.613281 19.304688 89.613281 15.226562 C 89.613281 11.082031 90.949219 8.890625 93.339844 8.890625 C 95.730469 8.890625 97.066406 11.117188 97.066406 15.226562 C 97.066406 19.367188 95.726562 21.558594 93.339844 21.558594 Z M 93.339844 7.195312 C 88.46875 7.195312 85.765625 10.808594 85.765625 15.226562 C 85.765625 19.640625 88.46875 23.257812 93.339844 23.257812 C 98.210938 23.257812 100.914062 19.640625 100.914062 15.226562 C 100.914062 10.808594 98.210938 7.195312 93.339844 7.195312 Z M 111.214844 7.195312 C 108.917969 7.195312 107.648438 8.183594 106.933594 9.449219 L 106.746094 9.449219 L 106.746094 7.5 L 103.085938 7.5 L 103.085938 22.949219 L 106.746094 22.949219 L 106.746094 12.972656 C 106.746094 10.6875 107.925781 9.355469 109.820312 9.355469 C 111.652344 9.355469 112.457031 10.5625 112.457031 12.386719 L 112.457031 22.949219 L 116.117188 22.949219 L 116.117188 12.351562 C 116.117188 9.171875 114.441406 7.195312 111.214844 7.195312 Z M 165.621094 21.558594 C 163.230469 21.558594 161.894531 19.304688 161.894531 15.226562 C 161.894531 11.082031 163.230469 8.890625 165.621094 8.890625 C 168.011719 8.890625 169.347656 11.117188 169.347656 15.226562 C 169.347656 19.367188 168.007812 21.558594 165.621094 21.558594 Z M 165.621094 7.195312 C 160.75 7.195312 158.046875 10.808594 158.046875 15.226562 C 158.046875 19.640625 160.75 23.257812 165.621094 23.257812 C 170.492188 23.257812 173.195312 19.640625 173.195312 15.226562 C 173.195312 10.808594 170.492188 7.195312 165.621094 7.195312 Z M 199.476562 7.195312 C 197.179688 7.195312 195.910156 8.183594 195.195312 9.449219 L 195.007812 9.449219 L 195.007812 7.5 L 191.347656 7.5 L 191.347656 22.949219 L 195.007812 22.949219 L 195.007812 12.972656 C 195.007812 10.6875 196.1875 9.355469 198.082031 9.355469 C 199.914062 9.355469 200.71875 10.5625 200.71875 12.386719 L 200.71875 22.949219 L 204.378906 22.949219 L 204.378906 12.351562 C 204.382812 9.171875 202.707031 7.195312 199.476562 7.195312 Z M 212.703125 7.195312 C 209.320312 7.195312 206.777344 8.613281 206.777344 11.644531 C 206.777344 14.210938 208.546875 15.601562 210.53125 16.09375 L 213.632812 16.867188 C 215.28125 17.265625 216.027344 17.855469 216.027344 19.152344 C 216.027344 20.730469 214.90625 21.628906 212.953125 21.628906 C 210.839844 21.628906 209.753906 20.609375 209.414062 18.046875 L 206.125 18.972656 C 206.308594 21.632812 208.796875 23.265625 212.550781 23.265625 C 216.742188 23.265625 219.003906 21.320312 219.003906 18.230469 C 219.003906 15.328125 216.984375 14.121094 214.878906 13.59375 L 211.898438 12.851562 C 210.40625 12.484375 209.753906 11.804688 209.753906 10.8125 C 209.753906 9.578125 210.808594 8.835938 212.394531 8.835938 C 214.257812 8.835938 215.402344 9.855469 215.558594 11.804688 L 218.664062 10.875 C 218.285156 8.707031 216.144531 7.195312 212.703125 7.195312 Z M 228.09375 21.558594 C 225.703125 21.558594 224.367188 19.304688 224.367188 15.226562 C 224.367188 11.082031 225.703125 8.890625 228.09375 8.890625 C 230.484375 8.890625 231.820312 11.117188 231.820312 15.226562 C 231.820312 19.367188 230.480469 21.558594 228.09375 21.558594 Z M 228.09375 7.195312 C 223.222656 7.195312 220.519531 10.808594 220.519531 15.226562 C 220.519531 19.640625 223.222656 23.257812 228.09375 23.257812 C 232.964844 23.257812 235.667969 19.640625 235.667969 15.226562 C 235.667969 10.808594 232.964844 7.195312 228.09375 7.195312 Z M 245.972656 7.195312 C 243.671875 7.195312 242.402344 8.183594 241.6875 9.449219 L 241.5 9.449219 L 241.5 7.5 L 237.839844 7.5 L 237.839844 22.949219 L 241.5 22.949219 L 241.5 12.972656 C 241.5 10.6875 242.683594 9.355469 244.574219 9.355469 C 246.40625 9.355469 247.210938 10.5625 247.210938 12.386719 L 247.210938 22.949219 L 250.871094 22.949219 L 250.871094 12.351562 C 250.871094 9.171875 249.195312 7.195312 245.972656 7.195312 Z M 21.121094 1.324219 L 17.273438 1.324219 L 17.273438 17.296875 C 17.273438 19.890625 16.277344 21.433594 13.921875 21.433594 C 11.59375 21.433594 10.570312 19.792969 10.570312 16.984375 L 10.570312 14.015625 L 6.722656 14.972656 L 6.722656 16.300781 C 6.722656 20.347656 8.738281 23.441406 13.921875 23.441406 C 19.101562 23.441406 21.121094 20.351562 21.121094 16.300781 Z M 44.273438 1.324219 L 40.613281 1.324219 L 40.613281 22.949219 L 44.273438 22.949219 L 44.273438 12.972656 C 44.273438 10.6875 45.453125 9.355469 47.347656 9.355469 C 49.179688 9.355469 49.984375 10.5625 49.984375 12.386719 L 49.984375 22.949219 L 53.644531 22.949219 L 53.644531 12.351562 C 53.644531 9.171875 51.96875 7.195312 48.742188 7.195312 C 46.445312 7.195312 45.175781 8.183594 44.460938 9.449219 L 44.273438 9.449219 Z M 155.875 1.324219 L 152.027344 1.324219 L 152.027344 17.296875 C 152.027344 19.890625 151.035156 21.433594 148.675781 21.433594 C 146.347656 21.433594 145.324219 19.792969 145.324219 16.984375 L 145.324219 14.015625 L 141.476562 14.972656 L 141.476562 16.300781 C 141.476562 20.347656 143.492188 23.441406 148.675781 23.441406 C 153.855469 23.441406 155.875 20.351562 155.875 16.300781 Z M 179.027344 1.324219 L 175.367188 1.324219 L 175.367188 22.949219 L 179.027344 22.949219 L 179.027344 12.972656 C 179.027344 10.6875 180.207031 9.355469 182.101562 9.355469 C 183.933594 9.355469 184.738281 10.5625 184.738281 12.386719 L 184.738281 22.949219 L 188.398438 22.949219 L 188.398438 12.351562 C 188.398438 9.171875 186.722656 7.195312 183.496094 7.195312 C 181.199219 7.195312 179.929688 8.183594 179.214844 9.449219 L 179.027344 9.449219 Z M 128.191406 21.1875 C 125.210938 21.1875 123.382812 18.777344 123.382812 16.214844 C 123.382812 14.609375 124.097656 13.128906 125.273438 12.292969 L 132.289062 19.925781 C 130.984375 20.695312 129.523438 21.1875 128.191406 21.1875 Z M 135.019531 17.386719 L 128.9375 10.710938 C 130.023438 10.277344 131.078125 10.125 131.945312 10.125 C 134.460938 10.125 136.011719 11.582031 136.011719 14.082031 C 136.015625 15.195312 135.703125 16.339844 135.019531 17.386719 Z M 128.097656 9.820312 L 126.765625 8.335938 C 125.582031 7.039062 125.246094 6.234375 125.246094 5.277344 C 125.246094 3.484375 126.394531 2.464844 128.191406 2.464844 C 130.023438 2.464844 131.109375 3.515625 131.109375 5.433594 C 131.109375 7.195312 130.242188 8.863281 128.097656 9.820312 Z M 128.285156 0.828125 C 124 0.828125 121.890625 3.210938 121.890625 6.171875 C 121.890625 7.78125 122.574219 9.390625 124.378906 11.332031 L 124.40625 11.394531 C 121.367188 12.847656 119.972656 15.195312 119.972656 17.605469 C 119.972656 20.789062 122.421875 23.449219 126.210938 23.449219 C 128.382812 23.449219 130.925781 22.550781 133.226562 20.945312 L 135.085938 22.953125 L 139.960938 22.953125 L 139.960938 22.800781 L 135.988281 18.441406 C 137.664062 16.464844 138.625 14.304688 138.625 12.414062 C 138.625 10.066406 137.042969 8.492188 134.5625 8.492188 C 133.257812 8.492188 131.796875 8.863281 130.835938 9.234375 L 130.773438 9.109375 C 133.132812 7.84375 134.125 6.671875 134.125 5.03125 C 134.117188 2.683594 132.007812 0.828125 128.285156 0.828125 Z M 128.285156 0.828125 " fill-opacity="1" fill-rule="nonzero"/><g clip-path="url(#a23404d78e)"><g clip-path="url(#def9d01d21)"><g transform="matrix(1, 0, 0, 1, 41, 9)"><g clip-path="url(#f87860acfe)"><g clip-path="url(#f58a471445)"><g clip-path="url(#ebafaac559)"><rect x="-97.76" width="371.52" fill="#eb1700" height="36.72" y="-14.61" fill-opacity="1"/></g></g></g></g></g></g></svg>