<svg xmlns="http://www.w3.org/2000/svg" xmlns:xlink="http://www.w3.org/1999/xlink" width="365" zoomAndPan="magnify" viewBox="0 0 273.75 69.749997" height="93" preserveAspectRatio="xMidYMid meet" version="1.0"><defs><clipPath id="0d466a0026"><path d="M 60 0 L 222 0 L 222 69.5 L 60 69.5 Z M 60 0 " clip-rule="nonzero"/></clipPath><clipPath id="50813a39cc"><path d="M 225 3 L 272.390625 3 L 272.390625 67 L 225 67 Z M 225 3 " clip-rule="nonzero"/></clipPath><clipPath id="2813bf06f1"><path d="M 0.363281 2 L 57 2 L 57 67 L 0.363281 67 Z M 0.363281 2 " clip-rule="nonzero"/></clipPath><clipPath id="46e0d90ae4"><path d="M 27.691406 41.679688 L 28.046875 41.679688 L 28.046875 41.957031 L 27.691406 41.957031 Z M 27.691406 41.679688 " clip-rule="nonzero"/></clipPath><clipPath id="5f1e786f0a"><path d="M 28.027344 41.84375 C 27.355469 42.144531 27.953125 41.695312 27.953125 41.695312 " clip-rule="nonzero"/></clipPath><clipPath id="8cd71fff41"><path d="M 0.691406 0.679688 L 1.046875 0.679688 L 1.046875 0.957031 L 0.691406 0.957031 Z M 0.691406 0.679688 " clip-rule="nonzero"/></clipPath><clipPath id="d8d86c9d6e"><path d="M 1.027344 0.84375 C 0.355469 1.144531 0.953125 0.695312 0.953125 0.695312 " clip-rule="nonzero"/></clipPath><clipPath id="6aea149ef0"><rect x="0" width="2" y="0" height="1"/></clipPath></defs><g clip-path="url(#0d466a0026)"><path fill="#0063c3" d="M 171.492188 23.4375 C 168.136719 18.722656 163.570312 15.894531 157.257812 15.894531 C 146.917969 15.894531 138.457031 24.378906 138.457031 34.886719 C 138.457031 45.390625 146.917969 53.875 157.257812 53.875 C 164.777344 53.875 171.226562 49.433594 174.179688 42.964844 L 154.839844 42.964844 L 154.839844 27.339844 L 190.292969 27.339844 L 190.292969 3.097656 L 221.847656 3.097656 L 221.847656 18.722656 L 205.332031 18.722656 L 205.332031 27.34375 L 221.847656 27.34375 L 221.847656 42.96875 L 205.332031 42.96875 L 205.332031 51.050781 L 221.847656 51.050781 L 221.847656 66.269531 C 222.386719 66.269531 190.292969 66.269531 190.292969 66.269531 L 190.292969 43.371094 C 186.53125 60.613281 172.699219 69.503906 157.257812 69.503906 C 141.8125 69.503906 129.054688 60.34375 125.429688 44.316406 L 125.429688 66.539062 L 109.988281 66.539062 L 109.988281 29.632812 C 109.988281 29.632812 100.992188 37.578125 100.992188 66.539062 L 85.007812 66.539062 C 85.007812 37.578125 76.011719 29.632812 76.011719 29.632812 L 76.011719 66.539062 L 60.433594 66.539062 L 60.433594 2.425781 C 78.292969 2.425781 90.113281 22.628906 92.933594 34.480469 C 95.753906 22.628906 107.570312 2.425781 125.429688 2.425781 L 125.429688 23.707031 C 128.519531 9.5625 142.621094 0 157.394531 0 C 172.164062 0 185.726562 11.449219 188.550781 23.4375 Z M 171.492188 23.4375 " fill-opacity="1" fill-rule="nonzero"/></g><g clip-path="url(#50813a39cc)"><path fill="#0063c3" d="M 256.097656 66.535156 C 253.8125 49.164062 242.398438 36.769531 242.398438 36.769531 L 242.398438 66.535156 L 225.882812 66.535156 L 225.882812 3.367188 C 229.507812 3.367188 242.667969 10.507812 256.097656 29.902344 L 256.097656 3.367188 L 272.214844 3.367188 L 272.214844 66.402344 L 256.097656 66.402344 Z M 256.097656 66.535156 " fill-opacity="1" fill-rule="nonzero"/></g><g clip-path="url(#2813bf06f1)"><path fill="#0063c3" d="M 20.957031 50.644531 C 20.554688 52.394531 17.730469 62.09375 16.660156 66.539062 L 0.542969 66.539062 C 2.691406 58.59375 6.855469 44.988281 11.285156 35.828125 C 15.582031 26.804688 20.957031 16.835938 29.953125 10.101562 C 34.117188 7.003906 42.039062 0.945312 56.8125 2.289062 L 56.8125 66.539062 L 41.234375 66.539062 L 41.234375 50.644531 Z M 41.234375 35.964844 L 41.234375 21.011719 C 36.265625 24.515625 30.890625 30.980469 27.671875 35.964844 Z M 41.234375 35.964844 " fill-opacity="1" fill-rule="nonzero"/></g><g clip-path="url(#46e0d90ae4)"><g clip-path="url(#5f1e786f0a)"><g transform="matrix(1, 0, 0, 1, 27, 41)"><g clip-path="url(#6aea149ef0)"><g clip-path="url(#8cd71fff41)"><g clip-path="url(#d8d86c9d6e)"><rect x="-87.225" width="394.2" fill="#0063c3" height="100.439996" y="-56.344999" fill-opacity="1"/></g></g></g></g></g></g></svg>