<svg xmlns="http://www.w3.org/2000/svg" xmlns:xlink="http://www.w3.org/1999/xlink" width="178" zoomAndPan="magnify" viewBox="0 0 133.5 133.499994" height="178" preserveAspectRatio="xMidYMid meet" version="1.0"><defs><clipPath id="57e71a2ad4"><path d="M 9 42.085938 L 9.34375 42.085938 L 9.34375 42.367188 L 9 42.367188 Z M 9 42.085938 " clip-rule="nonzero"/></clipPath><clipPath id="35a28b7bc3"><path d="M 9.324219 42.253906 C 8.652344 42.550781 9.25 42.105469 9.25 42.105469 " clip-rule="nonzero"/></clipPath><clipPath id="a1f8667b64"><path d="M 0 0.0859375 L 0.324219 0.0859375 L 0.324219 0.367188 L 0 0.367188 Z M 0 0.0859375 " clip-rule="nonzero"/></clipPath><clipPath id="f55c0cf7f3"><path d="M 0.324219 0.253906 C -0.347656 0.550781 0.25 0.105469 0.25 0.105469 " clip-rule="nonzero"/></clipPath><clipPath id="7f56d1f97e"><rect x="0" width="1" y="0" height="1"/></clipPath></defs><path fill="#89d329" d="M 132.828125 62.300781 C 130.726562 27.652344 101.851562 0 66.5 0 C 31.152344 0 2.273438 27.652344 0.175781 62.300781 C 0.175781 63.699219 0.351562 65.101562 0.523438 66.5 C 1.925781 78.050781 6.300781 88.726562 12.949219 97.652344 C 25.023438 114.101562 44.449219 124.777344 66.5 124.777344 C 35.699219 124.777344 10.5 100.800781 8.398438 70.699219 C 8.226562 69.300781 8.226562 67.902344 8.226562 66.5 C 8.226562 65.101562 8.226562 63.699219 8.398438 62.300781 C 10.5 32.199219 35.699219 8.226562 66.5 8.226562 C 88.550781 8.226562 107.976562 18.898438 120.050781 35.351562 C 126.703125 44.277344 131.078125 54.949219 132.476562 66.5 C 132.652344 67.902344 132.828125 69.300781 132.828125 70.527344 C 132.828125 69.125 133 67.726562 133 66.324219 C 133 65.101562 133 63.699219 132.828125 62.300781 " fill-opacity="1" fill-rule="nonzero"/><path fill="#00bcff" d="M 0.175781 70.699219 C 2.273438 105.351562 31.152344 133 66.5 133 C 101.851562 133 130.726562 105.351562 132.828125 70.699219 C 132.828125 69.300781 132.652344 67.902344 132.476562 66.5 C 131.078125 54.949219 126.703125 44.277344 120.050781 35.351562 C 107.976562 18.898438 88.550781 8.226562 66.5 8.226562 C 97.300781 8.226562 122.5 32.199219 124.601562 62.300781 C 124.777344 63.699219 124.777344 65.101562 124.777344 66.5 C 124.777344 67.902344 124.777344 69.300781 124.601562 70.699219 C 122.5 100.976562 97.300781 124.777344 66.5 124.777344 C 44.449219 124.777344 25.023438 114.101562 12.949219 97.652344 C 6.300781 88.726562 1.925781 78.050781 0.523438 66.5 C 0.351562 65.101562 0.175781 63.699219 0.175781 62.476562 C 0.175781 63.875 0 65.277344 0 66.675781 C 0 67.902344 0 69.300781 0.175781 70.699219 " fill-opacity="1" fill-rule="nonzero"/><path fill="#10384f" d="M 58.277344 12.773438 L 58.277344 31.152344 L 71.050781 31.152344 C 74.199219 31.152344 76.652344 28.699219 76.652344 25.550781 C 76.652344 23.976562 75.949219 22.574219 74.902344 21.523438 C 75.601562 20.648438 76.125 19.425781 76.300781 18.199219 C 76.300781 15.226562 73.851562 12.773438 70.875 12.773438 Z M 62.476562 16.625 L 70.175781 16.625 C 71.050781 16.625 71.75 17.324219 71.75 18.199219 C 71.75 19.074219 71.050781 19.773438 70.175781 19.773438 L 62.476562 19.773438 Z M 62.476562 23.625 L 70.351562 23.625 C 71.402344 23.625 72.101562 24.324219 72.101562 25.375 C 72.101562 26.425781 71.402344 27.125 70.351562 27.125 L 62.476562 27.125 Z M 62.476562 23.625 " fill-opacity="1" fill-rule="nonzero"/><path fill="#10384f" d="M 64.402344 34.648438 L 55.300781 53.027344 L 60.027344 53.027344 L 61.425781 49.875 L 71.75 49.875 L 73.152344 53.027344 L 77.875 53.027344 L 68.601562 34.648438 Z M 66.5 39.375 L 69.652344 46.027344 L 63.351562 46.027344 Z M 66.5 39.375 " fill-opacity="1" fill-rule="nonzero"/><path fill="#10384f" d="M 72.800781 57.050781 L 78.050781 57.050781 L 68.777344 68.949219 L 68.777344 75.425781 L 64.402344 75.425781 L 64.402344 68.949219 L 55.125 57.050781 L 60.375 57.050781 L 66.675781 65.449219 Z M 72.800781 57.050781 " fill-opacity="1" fill-rule="nonzero"/><path fill="#10384f" d="M 102.902344 57.050781 L 102.902344 75.425781 L 107.277344 75.425781 L 107.277344 68.425781 L 110.601562 68.425781 L 115.851562 75.425781 L 121.101562 75.425781 L 115.675781 68.25 C 117.953125 67.550781 119.703125 65.449219 119.703125 62.824219 C 119.703125 59.675781 117.25 57.050781 114.101562 57.050781 Z M 107.453125 60.902344 L 113.75 60.902344 C 114.625 60.902344 115.5 61.777344 115.5 62.652344 C 115.5 63.527344 114.800781 64.402344 113.75 64.402344 L 107.453125 64.402344 Z M 107.453125 60.902344 " fill-opacity="1" fill-rule="nonzero"/><path fill="#10384f" d="M 13.476562 57.050781 L 13.476562 75.425781 L 26.25 75.425781 C 29.402344 75.425781 31.851562 72.976562 31.851562 69.824219 C 31.851562 68.25 31.152344 66.851562 30.101562 65.800781 C 30.800781 64.925781 31.324219 63.699219 31.5 62.476562 C 31.5 59.5 29.050781 57.050781 26.074219 57.050781 Z M 17.675781 60.902344 L 25.375 60.902344 C 26.25 60.902344 26.949219 61.601562 26.949219 62.476562 C 26.949219 63.351562 26.25 64.050781 25.375 64.050781 L 17.675781 64.050781 Z M 17.675781 67.902344 L 25.550781 67.902344 C 26.601562 67.902344 27.300781 68.601562 27.300781 69.652344 C 27.300781 70.699219 26.601562 71.402344 25.550781 71.402344 L 17.675781 71.402344 Z M 17.675781 67.902344 " fill-opacity="1" fill-rule="nonzero"/><path fill="#10384f" d="M 43.574219 57.050781 L 34.476562 75.425781 L 39.199219 75.425781 L 40.601562 72.277344 L 50.925781 72.277344 L 52.324219 75.425781 L 57.050781 75.425781 L 47.777344 57.050781 Z M 45.675781 61.777344 L 48.824219 68.425781 L 42.527344 68.425781 Z M 45.675781 61.777344 " fill-opacity="1" fill-rule="nonzero"/><path fill="#10384f" d="M 97.125 57.050781 L 97.125 61 L 84.875 61 L 84.875 64.09375 L 96.777344 64.09375 L 96.777344 68.042969 L 84.875 68.042969 L 84.875 71.476562 L 97.125 71.476562 L 97.125 75.425781 L 80.5 75.425781 L 80.5 57.050781 Z M 97.125 57.050781 " fill-opacity="1" fill-rule="nonzero"/><path fill="#10384f" d="M 58.101562 102.203125 L 58.101562 120.578125 L 62.476562 120.578125 L 62.476562 113.578125 L 65.800781 113.578125 L 71.050781 120.578125 L 76.300781 120.578125 L 70.875 113.402344 C 73.152344 112.703125 74.902344 110.601562 74.902344 107.976562 C 74.902344 104.828125 72.449219 102.203125 69.300781 102.203125 Z M 62.652344 106.050781 L 68.949219 106.050781 C 69.824219 106.050781 70.703125 106.925781 70.703125 107.800781 C 70.703125 108.675781 70 109.550781 68.949219 109.550781 L 62.652344 109.550781 Z M 62.652344 106.050781 " fill-opacity="1" fill-rule="nonzero"/><path fill="#10384f" d="M 74.902344 79.410156 L 74.902344 83.359375 L 62.652344 83.359375 L 62.652344 86.453125 L 74.550781 86.453125 L 74.550781 90.402344 L 62.652344 90.402344 L 62.652344 93.835938 L 74.902344 93.835938 L 74.902344 97.785156 L 58.277344 97.785156 L 58.277344 79.410156 Z M 74.902344 79.410156 " fill-opacity="1" fill-rule="nonzero"/><g clip-path="url(#57e71a2ad4)"><g clip-path="url(#35a28b7bc3)"><g transform="matrix(1, 0, 0, 1, 9, 42)"><g clip-path="url(#7f56d1f97e)"><g clip-path="url(#a1f8667b64)"><g clip-path="url(#f55c0cf7f3)"><rect x="-38.37" width="192.24" fill="#89d329" height="192.239991" y="-71.369999" fill-opacity="1"/></g></g></g></g></g></g></svg>