<svg xmlns="http://www.w3.org/2000/svg" xmlns:xlink="http://www.w3.org/1999/xlink" width="338" zoomAndPan="magnify" viewBox="0 0 253.5 38.249999" height="51" preserveAspectRatio="xMidYMid meet" version="1.0"><defs><clipPath id="249d9e75b2"><path d="M 48 9 L 250 9 L 250 36.777344 L 48 36.777344 Z M 48 9 " clip-rule="nonzero"/></clipPath><clipPath id="f49e092665"><path d="M 3 0 L 36 0 L 36 36.777344 L 3 36.777344 Z M 3 0 " clip-rule="nonzero"/></clipPath><clipPath id="e1f7d8bfbe"><path d="M 18.265625 3.664062 L 18.613281 3.664062 L 18.613281 3.941406 L 18.265625 3.941406 Z M 18.265625 3.664062 " clip-rule="nonzero"/></clipPath><clipPath id="fd37df9333"><path d="M 18.59375 3.832031 C 17.933594 4.125 18.519531 3.683594 18.519531 3.683594 " clip-rule="nonzero"/></clipPath><clipPath id="51712faf24"><path d="M 0.265625 0.664062 L 0.613281 0.664062 L 0.613281 0.941406 L 0.265625 0.941406 Z M 0.265625 0.664062 " clip-rule="nonzero"/></clipPath><clipPath id="1de624ab29"><path d="M 0.59375 0.832031 C -0.0664062 1.125 0.519531 0.683594 0.519531 0.683594 " clip-rule="nonzero"/></clipPath><clipPath id="eeed07bc3f"><rect x="0" width="1" y="0" height="1"/></clipPath></defs><g clip-path="url(#249d9e75b2)"><path fill="#161616" d="M 71.960938 12.253906 L 71.960938 31.585938 C 71.960938 32.714844 72.007812 34.984375 72.0625 35.976562 L 70.597656 35.976562 L 54.183594 14.847656 L 54.183594 33.972656 L 57.335938 34.699219 L 57.335938 35.976562 L 49.378906 35.976562 L 49.378906 34.699219 L 52.214844 33.871094 L 52.214844 12.671875 C 51.628906 12.1875 50.484375 11.738281 49.761719 11.5625 C 49.585938 11.527344 49.242188 11.460938 48.964844 11.425781 L 48.964844 10.144531 L 55.707031 10.144531 L 69.953125 28.683594 L 69.953125 12.148438 L 66.808594 11.425781 L 66.808594 10.144531 L 74.792969 10.144531 L 74.792969 11.425781 Z M 92.179688 9.347656 C 85.195312 9.347656 78.867188 14.675781 78.867188 23.078125 C 78.867188 31.414062 85.125 36.773438 92.210938 36.773438 C 99.234375 36.773438 105.59375 31.550781 105.59375 22.386719 C 105.59375 15.988281 100.753906 9.347656 92.179688 9.347656 Z M 92.800781 35.253906 C 86.578125 35.253906 83.292969 28.128906 83.292969 22.144531 C 83.292969 16.160156 85.851562 10.90625 91.660156 10.90625 C 97.125 10.90625 101.101562 17.027344 101.101562 23.738281 C 101.101562 29.648438 98.644531 35.253906 92.800781 35.253906 Z M 133.238281 10.144531 L 133.238281 11.425781 L 130.402344 12.289062 L 121.546875 35.976562 L 118.894531 35.976562 L 109.9375 12.289062 L 107.066406 11.425781 L 107.066406 10.144531 L 117.542969 10.144531 L 117.542969 11.425781 L 114.394531 12.21875 L 121.347656 31.066406 L 128.332031 12.148438 L 125.496094 11.425781 L 125.496094 10.144531 Z M 182.550781 33.800781 L 175.667969 23.355469 C 176.570312 23.113281 181.683594 21.796875 181.683594 16.957031 C 181.683594 13.015625 178.710938 10.007812 171.347656 10.007812 C 166.820312 10.007812 162.253906 10.144531 161.667969 10.144531 L 161.667969 11.425781 L 164.671875 12.253906 L 164.671875 33.871094 L 161.667969 34.699219 L 161.667969 35.976562 L 172.28125 35.976562 L 172.28125 34.699219 L 168.789062 33.871094 L 168.789062 24.117188 L 171.796875 24.117188 L 179.472656 35.976562 L 186.25 35.976562 L 186.25 34.730469 Z M 170.449219 22.25 L 168.789062 22.25 L 168.789062 11.976562 C 174.320312 11.976562 177.503906 12.738281 177.503906 17.234375 C 177.503906 20.554688 174.769531 22.25 170.449219 22.25 Z M 225.960938 35.980469 L 225.960938 34.699219 L 222.328125 33.871094 L 222.328125 12.253906 L 225.960938 11.425781 L 225.960938 10.144531 L 214.621094 10.144531 L 214.621094 11.425781 L 218.25 12.253906 L 218.25 33.871094 L 214.621094 34.699219 L 214.621094 35.980469 Z M 232.234375 35.148438 C 234.273438 36.117188 237.144531 36.773438 239.632812 36.773438 C 245.199219 36.773438 249.175781 33.730469 249.175781 29.410156 C 249.175781 25.984375 247.585938 23.945312 243.054688 21.558594 L 240.011719 19.96875 C 237.074219 18.410156 235.863281 17.097656 235.863281 15.023438 C 235.863281 12.496094 237.9375 11.042969 240.84375 11.042969 C 241.984375 11.042969 243.195312 11.285156 244.40625 11.804688 L 246.511719 16.335938 L 247.621094 16.335938 L 246.996094 10.320312 C 245.546875 9.800781 242.746094 9.351562 240.945312 9.351562 C 235.65625 9.351562 232.371094 12.011719 232.371094 16.335938 C 232.371094 19.242188 234.378906 21.695312 238.492188 23.839844 L 241.085938 25.1875 C 244.023438 26.710938 245.269531 28.300781 245.269531 30.480469 C 245.269531 33.417969 242.710938 35.113281 239.460938 35.113281 C 237.90625 35.113281 236.417969 34.628906 234.585938 33.488281 L 232.578125 28.890625 L 231.507812 28.890625 Z M 158.226562 34.699219 L 158.226562 35.976562 L 147.160156 35.976562 L 147.160156 34.699219 L 150.757812 33.902344 L 148.304688 27.160156 L 138.691406 27.160156 L 136.167969 33.972656 L 139.417969 34.699219 L 139.417969 35.976562 L 130.980469 35.976562 L 130.980469 34.699219 L 134.058594 33.835938 L 134.164062 33.523438 L 142.941406 10.144531 L 145.953125 9.386719 L 155.148438 33.832031 Z M 147.578125 25.152344 L 143.53125 14.121094 L 139.449219 25.152344 Z M 188.15625 10.144531 L 187.570312 16.507812 L 188.710938 16.507812 L 190.507812 12.152344 L 196.488281 12.152344 L 196.488281 33.871094 L 192.894531 34.699219 L 192.894531 35.980469 L 204.234375 35.980469 L 204.234375 34.699219 L 200.636719 33.871094 L 200.636719 12.152344 L 206.621094 12.152344 L 208.417969 16.507812 L 209.558594 16.507812 L 208.96875 10.144531 Z M 188.15625 10.144531 " fill-opacity="1" fill-rule="nonzero"/></g><g clip-path="url(#f49e092665)"><path fill="#161616" d="M 16.21875 0 L 22.542969 0 C 22.542969 1.402344 22.628906 0.015625 19.832031 28.792969 L 18.929688 28.792969 C 16.132812 0.0078125 16.21875 1.402344 16.21875 0 Z M 19.289062 36.777344 C 5.710938 36.777344 1.261719 28.347656 3.757812 20.667969 C 5.492188 15.339844 9.304688 10.9375 7.417969 6.183594 C 6.644531 4.5 6.339844 4.277344 5.835938 3.789062 L 6.421875 2.664062 C 8.527344 3.214844 10.566406 4.882812 11.660156 7.535156 C 14.023438 13.265625 10.757812 16.871094 8.953125 22.519531 C 6.871094 29.019531 10.632812 35.019531 19.289062 35.019531 C 32.480469 35.019531 33.273438 19.773438 25.597656 16.4375 L 25.839844 15.136719 C 38.726562 17.214844 40.90625 36.777344 19.289062 36.777344 Z M 19.289062 36.777344 " fill-opacity="1" fill-rule="nonzero"/></g><g clip-path="url(#e1f7d8bfbe)"><g clip-path="url(#fd37df9333)"><g transform="matrix(1, 0, 0, 1, 18, 3)"><g clip-path="url(#eeed07bc3f)"><g clip-path="url(#51712faf24)"><g clip-path="url(#1de624ab29)"><rect x="-73.77" width="365.04" fill="#161616" height="55.079999" y="-11.415" fill-opacity="1"/></g></g></g></g></g></g></svg>