<svg xmlns="http://www.w3.org/2000/svg" xmlns:xlink="http://www.w3.org/1999/xlink" width="365" zoomAndPan="magnify" viewBox="0 0 273.75 113.249998" height="151" preserveAspectRatio="xMidYMid meet" version="1.0"><defs><clipPath id="4f71e67d76"><path d="M 239 49 L 272.726562 49 L 272.726562 81 L 239 81 Z M 239 49 " clip-rule="nonzero"/></clipPath><clipPath id="7a4a775300"><path d="M 26.496094 41.292969 L 26.847656 41.292969 L 26.847656 41.546875 L 26.496094 41.546875 Z M 26.496094 41.292969 " clip-rule="nonzero"/></clipPath><clipPath id="3789285bd7"><path d="M 26.828125 41.457031 C 26.15625 41.683594 26.753906 41.308594 26.753906 41.308594 " clip-rule="nonzero"/></clipPath><clipPath id="02544553fc"><path d="M 0.496094 0.292969 L 0.847656 0.292969 L 0.847656 0.546875 L 0.496094 0.546875 Z M 0.496094 0.292969 " clip-rule="nonzero"/></clipPath><clipPath id="1b0a8c7c98"><path d="M 0.828125 0.457031 C 0.15625 0.683594 0.753906 0.308594 0.753906 0.308594 " clip-rule="nonzero"/></clipPath><clipPath id="6f230a7c7d"><rect x="0" width="1" y="0" height="1"/></clipPath></defs><path fill="#0000c9" d="M 227.472656 76.113281 C 222.457031 76.183594 219.785156 73 219.785156 67.355469 C 219.785156 61.707031 219.785156 66.617188 219.824219 66.257812 L 239.527344 66.257812 C 239.925781 64.765625 240.179688 63.144531 240.179688 61.652344 C 240.179688 54.765625 235.9375 49.511719 227.277344 49.511719 C 218.613281 49.511719 210.546875 58.21875 210.546875 67.355469 C 210.546875 76.492188 216.285156 81.4375 225.851562 81.4375 C 235.414062 81.4375 234.257812 80.015625 237.183594 77.804688 L 235.359375 73.253906 C 233.085938 75 230.289062 76.042969 227.472656 76.113281 Z M 227.402344 54.421875 C 230.324219 54.421875 231.824219 56.3125 231.824219 60.464844 C 231.824219 64.621094 231.804688 61.277344 231.75 61.707031 L 220.507812 61.707031 C 221.734375 57.335938 224.335938 54.441406 227.382812 54.441406 Z M 227.402344 54.421875 " fill-opacity="1" fill-rule="nonzero"/><path fill="#0000c9" d="M 149.464844 47.554688 C 149.464844 40.414062 143.871094 35.214844 135.386719 35.214844 L 118.984375 35.214844 L 106.605469 80.644531 L 116.964844 80.644531 L 121.53125 63.902344 L 130.515625 63.902344 C 140.800781 63.902344 149.464844 57.28125 149.464844 47.554688 Z M 126.527344 58.578125 L 122.972656 58.578125 L 127.882812 40.539062 L 131.617188 40.539062 C 136.328125 40.539062 138.980469 43.722656 138.980469 47.929688 C 138.980469 54.675781 133.675781 58.578125 126.546875 58.578125 Z M 126.527344 58.578125 " fill-opacity="1" fill-rule="nonzero"/><path fill="#0000c9" d="M 162.945312 50.339844 L 164.097656 46.113281 C 164.675781 43.902344 165.667969 40.144531 167.023438 35.789062 C 168.449219 31.3125 171.0625 28.523438 174.582031 28.523438 C 178.101562 28.523438 177.324219 29.296875 177.324219 30.59375 C 177.253906 32.011719 176.082031 32.859375 176.082031 35.144531 C 176.082031 37.425781 178.355469 39.875 181.296875 39.875 C 184.238281 39.875 187.863281 36.960938 187.863281 33.378906 C 187.863281 27.859375 183.117188 24.226562 175.882812 24.226562 C 165.273438 24.226562 158.304688 30.96875 153.9375 46.742188 L 136.21875 110.933594 L 146.25 110.933594 L 161.554688 55.304688 L 171.984375 55.304688 L 165.128906 80.609375 L 175.160156 80.609375 L 183.371094 50.304688 L 162.925781 50.304688 Z M 162.945312 50.339844 " fill-opacity="1" fill-rule="nonzero"/><path fill="#0000c9" d="M 213.742188 50.339844 L 187.160156 50.339844 L 185.863281 55.339844 L 198.726562 55.339844 L 178.769531 80.644531 L 206.902344 80.644531 L 208.203125 75.644531 L 193.730469 75.644531 Z M 213.742188 50.339844 " fill-opacity="1" fill-rule="nonzero"/><g clip-path="url(#4f71e67d76)"><path fill="#0000c9" d="M 266.363281 49.820312 C 262.769531 49.820312 258.945312 52.140625 255.949219 56.941406 L 257.699219 50.339844 L 247.667969 50.339844 L 239.457031 80.644531 L 249.488281 80.644531 L 253.207031 67.011719 C 254.703125 61.4375 258.351562 55.96875 260.769531 55.96875 C 263.1875 55.96875 262.390625 60.84375 266.886719 60.84375 C 271.378906 60.84375 272.101562 57.859375 272.101562 55.125 C 272.101562 52.390625 269.554688 49.800781 266.363281 49.800781 Z M 266.363281 49.820312 " fill-opacity="1" fill-rule="nonzero"/></g><path fill="#0000c9" d="M 13.058594 51.90625 C 20.726562 49.082031 33.792969 48.363281 51.117188 50.339844 L 56.222656 31.097656 C 36.480469 28.398438 15.746094 30.394531 10.910156 37.320312 C 8.78125 40.429688 8.203125 46.941406 13.039062 51.90625 Z M 89.175781 48.792969 C 81.503906 51.617188 68.441406 52.335938 51.117188 50.359375 L 46.007812 69.601562 C 65.75 72.300781 86.484375 70.304688 91.320312 63.378906 C 93.449219 60.269531 94.027344 53.757812 89.191406 48.792969 Z M 95.996094 55.574219 L 99.117188 43.972656 C 100.253906 39.875 100.8125 37.75 100.8125 36.042969 C 100.8125 21.1875 61.746094 3.058594 24.535156 0.792969 L 19.285156 20.035156 C 57.628906 22.734375 96.84375 41.277344 95.832031 55.574219 Z M 6.238281 45.105469 L 3.113281 56.707031 C 1.976562 60.808594 1.417969 62.929688 1.417969 64.640625 C 1.417969 79.496094 40.488281 97.625 77.695312 99.890625 L 82.949219 80.644531 C 44.582031 77.949219 5.390625 59.40625 6.382812 45.105469 Z M 6.238281 45.105469 " fill-opacity="1" fill-rule="nonzero"/><g clip-path="url(#7a4a775300)"><g clip-path="url(#3789285bd7)"><g transform="matrix(1, 0, 0, 1, 26, 41)"><g clip-path="url(#6f230a7c7d)"><g clip-path="url(#02544553fc)"><g clip-path="url(#1b0a8c7c98)"><rect x="-86.225" width="394.2" fill="#0000c9" height="163.079997" y="-65.914999" fill-opacity="1"/></g></g></g></g></g></g></svg>