<svg xmlns="http://www.w3.org/2000/svg" xmlns:xlink="http://www.w3.org/1999/xlink" width="373" zoomAndPan="magnify" viewBox="0 0 279.75 39.749999" height="53" preserveAspectRatio="xMidYMid meet" version="1.0"><defs><clipPath id="eb70f02269"><path d="M 244 8 L 277 8 L 277 38.757812 L 244 38.757812 Z M 244 8 " clip-rule="nonzero"/></clipPath><clipPath id="5d701dbbe4"><path d="M 139 27 L 147 27 L 147 38.757812 L 139 38.757812 Z M 139 27 " clip-rule="nonzero"/></clipPath><clipPath id="95c924884b"><path d="M 215 27 L 224 27 L 224 38.757812 L 215 38.757812 Z M 215 27 " clip-rule="nonzero"/></clipPath><clipPath id="fed2f6d9b6"><path d="M 53.269531 26.410156 L 53.625 26.410156 L 53.625 26.6875 L 53.269531 26.6875 Z M 53.269531 26.410156 " clip-rule="nonzero"/></clipPath><clipPath id="a5da1bd987"><path d="M 53.605469 26.578125 C 52.933594 26.875 53.527344 26.425781 53.527344 26.425781 " clip-rule="nonzero"/></clipPath><clipPath id="b4e4cea00b"><path d="M 0.269531 0.410156 L 0.625 0.410156 L 0.625 0.6875 L 0.269531 0.6875 Z M 0.269531 0.410156 " clip-rule="nonzero"/></clipPath><clipPath id="e1ed10bfa6"><path d="M 0.605469 0.578125 C -0.0664062 0.875 0.527344 0.425781 0.527344 0.425781 " clip-rule="nonzero"/></clipPath><clipPath id="6339ef3414"><rect x="0" width="1" y="0" height="1"/></clipPath></defs><path fill="#00b258" d="M 256.898438 23.917969 C 257.402344 23.898438 257.800781 24.097656 258.085938 24.515625 L 257.546875 24.773438 C 257.476562 24.65625 257.378906 24.5625 257.253906 24.496094 C 256.972656 24.375 256.695312 24.394531 256.433594 24.550781 C 256.308594 24.621094 256.246094 24.726562 256.246094 24.867188 C 256.246094 25.035156 256.402344 25.179688 256.726562 25.285156 L 257.167969 25.4375 C 257.464844 25.515625 257.726562 25.65625 257.949219 25.863281 C 258.121094 26.035156 258.203125 26.242188 258.199219 26.484375 C 258.203125 26.828125 258.070312 27.101562 257.792969 27.304688 C 257.5 27.507812 257.175781 27.617188 256.820312 27.625 C 256.460938 27.632812 256.132812 27.542969 255.832031 27.355469 C 255.574219 27.15625 255.421875 26.898438 255.371094 26.578125 L 256.046875 26.457031 C 256.054688 26.617188 256.109375 26.761719 256.203125 26.890625 C 256.367188 27.058594 256.566406 27.136719 256.804688 27.117188 C 256.996094 27.125 257.167969 27.070312 257.320312 26.953125 C 257.53125 26.789062 257.585938 26.582031 257.492188 26.335938 C 257.46875 26.273438 257.429688 26.21875 257.382812 26.171875 C 257.320312 26.117188 257.253906 26.074219 257.183594 26.035156 C 257.089844 25.988281 256.996094 25.949219 256.898438 25.914062 L 256.472656 25.769531 C 255.875 25.5625 255.566406 25.265625 255.566406 24.867188 C 255.570312 24.570312 255.699219 24.34375 255.953125 24.1875 C 256.238281 23.996094 256.550781 23.90625 256.898438 23.917969 " fill-opacity="1" fill-rule="nonzero"/><path fill="#00b258" d="M 261.101562 24.488281 L 259.5625 24.488281 L 259.5625 25.351562 L 261.042969 25.351562 L 261.042969 25.855469 L 259.5625 25.855469 L 259.5625 27.5625 L 258.894531 27.5625 L 258.894531 23.988281 L 261.101562 23.988281 Z M 261.101562 24.488281 " fill-opacity="1" fill-rule="nonzero"/><path fill="#00b258" d="M 262.625 27.054688 L 262.925781 27.054688 C 263.167969 27.054688 263.40625 27.03125 263.640625 26.976562 C 263.835938 26.925781 264.011719 26.84375 264.171875 26.71875 C 264.507812 26.492188 264.671875 26.175781 264.664062 25.769531 C 264.671875 25.367188 264.507812 25.050781 264.179688 24.816406 C 263.789062 24.566406 263.359375 24.457031 262.898438 24.488281 L 262.597656 24.488281 Z M 261.960938 27.5625 L 261.960938 23.996094 L 262.882812 23.996094 C 263.238281 23.984375 263.589844 24.019531 263.933594 24.101562 C 264.199219 24.171875 264.4375 24.289062 264.652344 24.453125 C 264.761719 24.527344 264.859375 24.613281 264.945312 24.710938 C 265.03125 24.808594 265.109375 24.914062 265.167969 25.03125 C 265.230469 25.144531 265.277344 25.265625 265.308594 25.394531 C 265.339844 25.523438 265.355469 25.652344 265.355469 25.78125 C 265.355469 25.914062 265.339844 26.042969 265.308594 26.167969 C 265.277344 26.296875 265.230469 26.417969 265.167969 26.535156 C 265.109375 26.648438 265.03125 26.757812 264.945312 26.855469 C 264.859375 26.953125 264.761719 27.039062 264.652344 27.113281 C 264.433594 27.277344 264.195312 27.394531 263.933594 27.46875 C 263.59375 27.542969 263.246094 27.578125 262.898438 27.566406 Z M 261.960938 27.5625 " fill-opacity="1" fill-rule="nonzero"/><path fill="#00b258" d="M 268.066406 26.183594 L 267.40625 24.972656 L 266.691406 26.183594 Z M 268.339844 26.691406 L 266.449219 26.691406 L 265.953125 27.5625 L 265.238281 27.5625 L 267.421875 23.761719 L 269.527344 27.5625 L 268.8125 27.5625 Z M 268.339844 26.691406 " fill-opacity="1" fill-rule="nonzero"/><path fill="#007dc5" d="M 253.683594 7.28125 C 245.390625 1.867188 229.609375 19.789062 229.609375 19.789062 L 229.609375 20.445312 L 234.484375 15.738281 C 244.03125 7.429688 248.503906 12.171875 248.503906 12.171875 C 255.394531 19.582031 227.597656 37.5 227.597656 37.5 L 227.699219 37.75 C 233.726562 35.398438 246.191406 25.136719 246.191406 25.136719 C 260.511719 12.074219 253.683594 7.308594 253.683594 7.308594 " fill-opacity="1" fill-rule="nonzero"/><g clip-path="url(#eb70f02269)"><path fill="#00b258" d="M 276.953125 10.03125 L 276.953125 9.777344 C 270.847656 11.886719 264.898438 14.371094 259.109375 17.234375 C 259.109375 17.234375 258.457031 12.078125 267.75 9.390625 L 267.703125 8.890625 C 267.703125 8.890625 254.886719 11.644531 254.535156 20.101562 C 254.535156 20.101562 240.765625 30.261719 245.691406 36.722656 C 245.691406 36.722656 249.65625 41.671875 261.171875 35.070312 C 261.171875 35.070312 268.910156 30.363281 271.625 28.109375 L 271.574219 27.5625 C 271.574219 27.5625 256.730469 39.863281 251.570312 32.453125 C 246.40625 25.042969 273.832031 10.882812 276.953125 10.03125 " fill-opacity="1" fill-rule="nonzero"/></g><path fill="#f15a31" d="M 258.878906 0.371094 C 258.40625 0.371094 257.949219 0.460938 257.511719 0.640625 C 257.070312 0.824219 256.683594 1.082031 256.347656 1.414062 C 256.011719 1.75 255.753906 2.136719 255.574219 2.570312 C 255.390625 3.007812 255.300781 3.464844 255.300781 3.9375 C 255.300781 4.410156 255.390625 4.863281 255.574219 5.300781 C 255.753906 5.738281 256.011719 6.125 256.347656 6.457031 C 256.683594 6.792969 257.070312 7.050781 257.511719 7.230469 C 257.949219 7.410156 258.40625 7.5 258.878906 7.5 C 259.355469 7.5 259.8125 7.410156 260.25 7.230469 C 260.6875 7.050781 261.074219 6.792969 261.410156 6.457031 C 261.746094 6.125 262.007812 5.738281 262.1875 5.300781 C 262.371094 4.863281 262.460938 4.410156 262.460938 3.9375 C 262.460938 3.464844 262.371094 3.007812 262.1875 2.570312 C 262.007812 2.136719 261.746094 1.75 261.410156 1.414062 C 261.074219 1.082031 260.6875 0.824219 260.25 0.640625 C 259.8125 0.460938 259.355469 0.371094 258.878906 0.371094 " fill-opacity="1" fill-rule="nonzero"/><path fill="#007dc5" d="M 2.90625 12.757812 C 2.722656 12.566406 2.570312 12.402344 2.570312 11.667969 C 2.597656 11.320312 2.683594 10.992188 2.835938 10.679688 C 2.988281 10.371094 3.191406 10.097656 3.445312 9.863281 C 3.699219 9.628906 3.988281 9.445312 4.3125 9.320312 C 4.636719 9.195312 4.972656 9.132812 5.320312 9.132812 C 5.851562 9.183594 6.359375 9.3125 6.84375 9.527344 L 6.507812 10.238281 C 6.140625 10.035156 5.742188 9.929688 5.320312 9.925781 C 4.394531 9.90625 3.335938 10.695312 3.335938 11.410156 C 3.335938 11.953125 3.335938 12.195312 3.585938 12.421875 C 3.867188 12.800781 4.433594 12.742188 5.261719 12.742188 L 7.074219 12.742188 L 6.636719 13.546875 L 2.550781 13.546875 L 2.550781 12.757812 Z M 2.90625 12.757812 " fill-opacity="1" fill-rule="nonzero"/><path fill="#007dc5" d="M 8.679688 0.15625 L 10.375 0.15625 L 10.375 13.519531 L 8.679688 13.519531 Z M 8.679688 0.15625 " fill-opacity="1" fill-rule="nonzero"/><path fill="#007dc5" d="M 23.679688 11.160156 C 23.679688 16.601562 21.453125 17.164062 17.535156 17.242188 C 17.042969 17.242188 15.652344 17.242188 15.652344 17.242188 C 15.652344 17.242188 15.195312 16.609375 14.554688 15.550781 C 17.605469 15.550781 20.320312 15.835938 21.117188 14.675781 C 21.472656 14.148438 21.980469 13.355469 21.980469 11.332031 C 21.980469 8.179688 20.777344 5.492188 17.949219 5.546875 C 16.058594 5.546875 13.875 6.410156 13.875 9.941406 C 13.875 11.480469 14.683594 11.859375 16.082031 11.859375 L 20.644531 11.859375 L 19.476562 13.546875 L 16.925781 13.546875 C 13.425781 13.546875 12.179688 13.136719 12.179688 9.941406 C 12.167969 9.550781 12.199219 9.167969 12.265625 8.785156 C 12.332031 8.402344 12.433594 8.03125 12.574219 7.667969 C 12.710938 7.304688 12.886719 6.960938 13.09375 6.632812 C 13.300781 6.300781 13.539062 5.996094 13.808594 5.714844 C 14.074219 5.433594 14.367188 5.179688 14.683594 4.953125 C 15.003906 4.730469 15.339844 4.539062 15.695312 4.378906 C 16.050781 4.21875 16.417969 4.09375 16.796875 4.007812 C 17.175781 3.921875 17.5625 3.871094 17.949219 3.859375 C 22.132812 3.859375 23.679688 7.800781 23.679688 11.179688 " fill-opacity="1" fill-rule="nonzero"/><path fill="#007dc5" d="M 26.054688 13.546875 L 25.1875 11.835938 L 31.703125 11.835938 C 33.496094 11.835938 34.570312 11.964844 35.214844 11.125 C 35.628906 10.597656 35.777344 10.113281 35.777344 8.871094 C 35.777344 7.292969 33.632812 5.605469 31.597656 5.605469 C 28.734375 5.605469 27.976562 7.292969 27.1875 9.433594 L 25.390625 9.433594 C 25.390625 9.433594 25.640625 8.535156 25.828125 8.007812 C 26.015625 7.398438 26.296875 6.835938 26.671875 6.324219 C 27.046875 5.808594 27.496094 5.367188 28.015625 5 C 28.539062 4.632812 29.105469 4.359375 29.71875 4.179688 C 30.332031 4 30.960938 3.921875 31.597656 3.949219 C 34.984375 3.949219 37.589844 6.882812 37.589844 9.46875 C 37.5625 10.300781 37.367188 11.089844 37.003906 11.835938 L 38.871094 11.835938 L 38.871094 13.546875 Z M 26.054688 13.546875 " fill-opacity="1" fill-rule="nonzero"/><path fill="#007dc5" d="M 40.640625 11.835938 L 40.640625 0.15625 L 42.335938 0.15625 L 42.335938 13.519531 L 38.007812 13.519531 L 38.007812 11.835938 Z M 40.640625 11.835938 " fill-opacity="1" fill-rule="nonzero"/><path fill="#007dc5" d="M 44.636719 0.15625 L 46.332031 0.15625 L 46.332031 13.519531 L 44.636719 13.519531 Z M 44.636719 0.15625 " fill-opacity="1" fill-rule="nonzero"/><path fill="#007dc5" d="M 59.644531 11.160156 C 59.644531 16.601562 57.417969 17.164062 53.492188 17.242188 C 53.007812 17.242188 51.609375 17.242188 51.609375 17.242188 C 51.609375 17.242188 51.160156 16.609375 50.523438 15.550781 C 53.570312 15.550781 56.25 15.835938 57.082031 14.675781 C 57.4375 14.148438 57.945312 13.355469 57.945312 11.332031 C 57.945312 8.179688 56.738281 5.492188 53.910156 5.546875 C 52.023438 5.546875 49.839844 6.410156 49.839844 9.941406 C 49.839844 11.480469 50.652344 11.859375 52.046875 11.859375 L 56.609375 11.859375 L 55.441406 13.546875 L 52.890625 13.546875 C 49.390625 13.546875 48.144531 13.136719 48.144531 9.941406 C 48.132812 9.550781 48.164062 9.167969 48.226562 8.785156 C 48.292969 8.402344 48.398438 8.03125 48.535156 7.667969 C 48.675781 7.304688 48.847656 6.960938 49.054688 6.632812 C 49.261719 6.304688 49.5 5.996094 49.765625 5.714844 C 50.035156 5.433594 50.328125 5.179688 50.644531 4.953125 C 50.960938 4.730469 51.296875 4.539062 51.652344 4.378906 C 52.007812 4.21875 52.375 4.09375 52.753906 4.007812 C 53.132812 3.921875 53.519531 3.871094 53.910156 3.859375 C 58.097656 3.859375 59.636719 7.800781 59.636719 11.179688 " fill-opacity="1" fill-rule="nonzero"/><path fill="#007dc5" d="M 66.6875 12.757812 C 66.503906 12.566406 66.351562 12.402344 66.351562 11.667969 C 66.378906 11.320312 66.46875 10.988281 66.625 10.675781 C 66.777344 10.359375 66.984375 10.085938 67.242188 9.851562 C 67.5 9.617188 67.792969 9.4375 68.121094 9.3125 C 68.449219 9.191406 68.789062 9.128906 69.136719 9.132812 C 69.667969 9.183594 70.179688 9.316406 70.671875 9.527344 L 70.328125 10.238281 C 69.960938 10.027344 69.5625 9.914062 69.136719 9.90625 C 68.214844 9.90625 67.160156 10.6875 67.160156 11.421875 C 67.160156 11.964844 67.160156 12.207031 67.40625 12.4375 C 67.691406 12.8125 68.25 12.757812 69.082031 12.757812 L 70.855469 12.757812 L 70.417969 13.546875 L 66.332031 13.546875 L 66.332031 12.757812 Z M 66.6875 12.757812 " fill-opacity="1" fill-rule="nonzero"/><path fill="#007dc5" d="M 72.460938 0.15625 L 74.15625 0.15625 L 74.15625 13.519531 L 72.460938 13.519531 Z M 72.460938 0.15625 " fill-opacity="1" fill-rule="nonzero"/><path fill="#007dc5" d="M 82.742188 1.53125 C 82.769531 1.683594 82.761719 1.835938 82.726562 1.988281 C 82.691406 2.136719 82.628906 2.273438 82.535156 2.398438 C 82.445312 2.523438 82.332031 2.625 82.199219 2.703125 C 82.066406 2.78125 81.921875 2.832031 81.769531 2.851562 C 81.613281 2.875 81.460938 2.863281 81.3125 2.824219 C 81.160156 2.785156 81.023438 2.71875 80.898438 2.625 C 80.777344 2.53125 80.675781 2.414062 80.597656 2.28125 C 80.519531 2.148438 80.46875 2.003906 80.449219 1.851562 C 80.425781 1.695312 80.4375 1.546875 80.476562 1.394531 C 80.515625 1.246094 80.582031 1.109375 80.675781 0.984375 C 80.769531 0.863281 80.886719 0.761719 81.019531 0.683594 C 81.15625 0.605469 81.300781 0.554688 81.453125 0.535156 C 81.605469 0.515625 81.753906 0.523438 81.902344 0.566406 C 82.050781 0.605469 82.1875 0.671875 82.308594 0.765625 C 82.429688 0.859375 82.527344 0.972656 82.601562 1.105469 C 82.675781 1.238281 82.722656 1.382812 82.742188 1.53125 M 76.570312 13.546875 L 75.695312 11.859375 L 82.21875 11.859375 C 84.007812 11.859375 85.082031 11.988281 85.726562 11.144531 C 86.144531 10.617188 86.292969 10.132812 86.292969 8.890625 C 86.292969 7.316406 84.144531 5.625 82.113281 5.625 C 79.246094 5.625 78.488281 7.316406 77.703125 9.457031 L 75.910156 9.457031 C 75.910156 9.457031 76.15625 8.558594 76.339844 8.03125 C 76.527344 7.421875 76.808594 6.859375 77.1875 6.34375 C 77.5625 5.828125 78.007812 5.386719 78.53125 5.019531 C 79.054688 4.652344 79.621094 4.378906 80.234375 4.199219 C 80.847656 4.019531 81.472656 3.945312 82.113281 3.972656 C 85.5 3.972656 88.105469 6.902344 88.105469 9.492188 C 88.078125 10.320312 87.882812 11.109375 87.519531 11.859375 L 89.386719 11.859375 L 89.386719 13.546875 Z M 76.570312 13.546875 " fill-opacity="1" fill-rule="nonzero"/><path fill="#007dc5" d="M 96.152344 1.304688 C 96.171875 1.457031 96.164062 1.605469 96.121094 1.753906 C 96.082031 1.902344 96.015625 2.035156 95.921875 2.15625 C 95.828125 2.277344 95.714844 2.378906 95.582031 2.453125 C 95.445312 2.53125 95.304688 2.578125 95.152344 2.597656 C 95 2.617188 94.847656 2.605469 94.699219 2.566406 C 94.550781 2.527344 94.417969 2.460938 94.296875 2.367188 C 94.171875 2.273438 94.074219 2.160156 93.996094 2.027344 C 93.921875 1.894531 93.871094 1.753906 93.851562 1.601562 C 93.832031 1.449219 93.84375 1.300781 93.882812 1.152344 C 93.921875 1.003906 93.988281 0.871094 94.082031 0.75 C 94.175781 0.628906 94.289062 0.527344 94.421875 0.453125 C 94.554688 0.375 94.699219 0.328125 94.851562 0.304688 C 95.003906 0.285156 95.152344 0.292969 95.304688 0.332031 C 95.453125 0.375 95.589844 0.441406 95.710938 0.535156 C 95.835938 0.628906 95.933594 0.742188 96.011719 0.875 C 96.085938 1.007812 96.132812 1.152344 96.152344 1.304688 M 100.980469 8.90625 C 100.980469 7.332031 98.960938 5.640625 96.074219 5.640625 C 94.039062 5.640625 91.210938 7.332031 91.210938 8.90625 C 91.210938 10.148438 91.210938 10.632812 91.664062 11.160156 C 92.308594 11.964844 94.269531 11.871094 96.058594 11.871094 C 97.851562 11.871094 99.882812 12 100.527344 11.160156 C 100.9375 10.632812 100.980469 10.148438 100.980469 8.90625 M 88.519531 11.835938 L 90.230469 11.835938 C 89.816406 11.4375 89.515625 11.082031 89.515625 9.46875 C 89.535156 8.726562 89.707031 8.019531 90.03125 7.351562 C 90.359375 6.683594 90.808594 6.113281 91.382812 5.640625 L 89.628906 5.640625 L 91.15625 3.949219 L 96.675781 3.949219 C 100.070312 3.949219 102.675781 6.882812 102.675781 9.46875 C 102.675781 11.082031 102.367188 11.4375 101.960938 11.835938 L 103.671875 11.835938 L 103.671875 13.546875 L 88.519531 13.546875 Z M 88.519531 11.835938 " fill-opacity="1" fill-rule="nonzero"/><path fill="#007dc5" d="M 105.703125 11.835938 L 105.703125 0.199219 L 107.402344 0.199219 L 107.402344 11.835938 L 109.550781 11.835938 L 109.550781 13.542969 L 103.070312 13.519531 L 103.070312 11.835938 Z M 105.703125 11.835938 " fill-opacity="1" fill-rule="nonzero"/><path fill="#007dc5" d="M 111.589844 11.835938 L 111.589844 0.15625 L 113.285156 0.15625 L 113.285156 13.519531 L 108.949219 13.519531 L 108.949219 11.835938 Z M 111.589844 11.835938 " fill-opacity="1" fill-rule="nonzero"/><path fill="#007dc5" d="M 128.214844 1.003906 C 128.234375 1.15625 128.222656 1.308594 128.183594 1.453125 C 128.140625 1.601562 128.074219 1.734375 127.980469 1.855469 C 127.882812 1.976562 127.769531 2.074219 127.636719 2.148438 C 127.503906 2.226562 127.359375 2.273438 127.207031 2.292969 C 127.054688 2.308594 126.90625 2.300781 126.757812 2.257812 C 126.609375 2.21875 126.476562 2.152344 126.355469 2.058594 C 126.234375 1.964844 126.132812 1.851562 126.058594 1.71875 C 125.980469 1.585938 125.933594 1.445312 125.914062 1.292969 C 125.894531 1.140625 125.90625 0.992188 125.945312 0.84375 C 125.984375 0.695312 126.050781 0.5625 126.144531 0.441406 C 126.238281 0.320312 126.351562 0.222656 126.484375 0.144531 C 126.617188 0.0664062 126.761719 0.0195312 126.914062 0 C 127.066406 -0.0195312 127.21875 -0.0117188 127.367188 0.0273438 C 127.515625 0.0664062 127.652344 0.132812 127.773438 0.226562 C 127.898438 0.320312 127.996094 0.433594 128.074219 0.570312 C 128.148438 0.703125 128.195312 0.84375 128.214844 1 M 125.722656 1 C 125.746094 1.148438 125.738281 1.296875 125.699219 1.445312 C 125.660156 1.589844 125.59375 1.726562 125.503906 1.847656 C 125.410156 1.96875 125.300781 2.066406 125.167969 2.144531 C 125.035156 2.21875 124.894531 2.269531 124.742188 2.289062 C 124.589844 2.316406 124.4375 2.308594 124.285156 2.273438 C 124.136719 2.238281 123.996094 2.175781 123.871094 2.085938 C 123.746094 1.996094 123.644531 1.882812 123.5625 1.75 C 123.480469 1.621094 123.429688 1.476562 123.40625 1.324219 C 123.382812 1.171875 123.390625 1.019531 123.425781 0.871094 C 123.464844 0.722656 123.527344 0.582031 123.621094 0.460938 C 123.714844 0.335938 123.828125 0.234375 123.960938 0.15625 C 124.09375 0.078125 124.238281 0.0273438 124.390625 0.00390625 C 124.546875 -0.015625 124.695312 -0.0078125 124.847656 0.03125 C 124.996094 0.0703125 125.132812 0.136719 125.257812 0.234375 C 125.378906 0.328125 125.480469 0.441406 125.558594 0.574219 C 125.636719 0.707031 125.683594 0.851562 125.703125 1.003906 M 121.6875 8.90625 C 121.6875 10.148438 121.578125 10.667969 121.992188 11.195312 C 122.632812 12 124.085938 11.835938 125.875 11.835938 L 129.734375 11.835938 C 131.164062 11.835938 130.378906 9.09375 130.378906 9.09375 C 129.582031 6.953125 128.816406 5.640625 125.988281 5.640625 C 123.949219 5.640625 121.691406 7.332031 121.691406 8.90625 M 132.148438 3.949219 L 132.148438 11.835938 L 133.507812 11.835938 L 133.507812 13.546875 L 122.675781 13.546875 C 121.777344 13.304688 121.058594 12.804688 120.527344 12.042969 C 120.074219 11.21875 120.039062 11.101562 120.039062 9.492188 C 120.039062 6.902344 122.636719 3.972656 126.03125 3.972656 C 126.851562 3.964844 127.636719 4.117188 128.394531 4.425781 C 129.152344 4.738281 129.820312 5.179688 130.398438 5.753906 L 130.398438 3.972656 Z M 132.148438 3.949219 " fill-opacity="1" fill-rule="nonzero"/><path fill="#007dc5" d="M 140.738281 8.378906 C 141.25 8.933594 141.601562 9.574219 141.785156 10.304688 C 141.96875 11.035156 141.964844 11.765625 141.777344 12.492188 C 141.683594 12.9375 141.488281 13.332031 141.191406 13.675781 C 140.609375 14.484375 139.757812 15.382812 138.878906 14.875 C 137.496094 14.070312 135.96875 13.21875 135.96875 13.21875 L 136.222656 11.34375 C 136.328125 11.34375 138.496094 12.921875 139.234375 13.070312 C 139.234375 13.070312 140.171875 13.019531 140.171875 11.289062 C 140.1875 10.964844 140.132812 10.652344 140.015625 10.351562 C 139.894531 10.050781 139.714844 9.789062 139.480469 9.5625 C 139.246094 9.339844 138.976562 9.171875 138.671875 9.0625 C 138.363281 8.957031 138.046875 8.914062 137.722656 8.941406 C 136.257812 8.941406 135.839844 9.65625 135.578125 10.839844 C 135.332031 11.894531 135.503906 12.828125 134.445312 13.355469 C 134.078125 13.507812 133.695312 13.566406 133.300781 13.527344 L 132.828125 13.527344 L 132.828125 11.835938 L 133.300781 11.835938 C 133.621094 11.835938 133.957031 11.835938 133.957031 11.574219 C 133.957031 9.804688 134.675781 7.34375 138.046875 7.34375 C 139.082031 7.332031 139.980469 7.675781 140.738281 8.378906 " fill-opacity="1" fill-rule="nonzero"/><path fill="#007dc5" d="M 147.664062 13.519531 L 143.332031 13.519531 L 143.332031 0.15625 L 145.027344 0.15625 L 145.027344 11.835938 L 147.664062 11.835938 Z M 147.664062 13.519531 " fill-opacity="1" fill-rule="nonzero"/><path fill="#007dc5" d="M 159.40625 8.90625 C 159.40625 7.332031 157.394531 5.640625 154.507812 5.640625 C 152.472656 5.640625 149.644531 7.332031 149.644531 8.90625 C 149.644531 10.148438 149.683594 10.632812 150.097656 11.160156 C 150.734375 11.964844 152.695312 11.871094 154.484375 11.871094 C 156.277344 11.871094 158.316406 12 158.953125 11.160156 C 159.371094 10.632812 159.40625 10.148438 159.40625 8.90625 M 146.945312 11.835938 L 148.664062 11.835938 C 148.25 11.4375 147.949219 11.082031 147.949219 9.46875 C 147.96875 8.726562 148.140625 8.023438 148.464844 7.355469 C 148.789062 6.6875 149.238281 6.113281 149.8125 5.640625 L 148.0625 5.640625 L 149.589844 3.949219 L 155.109375 3.949219 C 158.503906 3.949219 161.101562 6.882812 161.101562 9.46875 C 161.101562 11.082031 160.800781 11.4375 160.386719 11.835938 L 162.105469 11.835938 L 162.105469 13.546875 L 146.945312 13.546875 Z M 146.945312 11.835938 " fill-opacity="1" fill-rule="nonzero"/><path fill="#007dc5" d="M 164.136719 11.835938 L 164.136719 0.15625 L 165.835938 0.15625 L 165.835938 13.519531 L 161.496094 13.519531 L 161.496094 11.835938 Z M 164.136719 11.835938 " fill-opacity="1" fill-rule="nonzero"/><path fill="#007dc5" d="M 168.132812 0.15625 L 169.832031 0.15625 L 169.832031 13.519531 L 168.132812 13.519531 Z M 168.132812 0.15625 " fill-opacity="1" fill-rule="nonzero"/><path fill="#007dc5" d="M 184.308594 1.003906 C 184.320312 1.152344 184.304688 1.300781 184.261719 1.441406 C 184.21875 1.585938 184.152344 1.714844 184.058594 1.832031 C 183.964844 1.949219 183.851562 2.042969 183.722656 2.117188 C 183.589844 2.1875 183.453125 2.234375 183.304688 2.253906 C 183.15625 2.273438 183.007812 2.265625 182.863281 2.226562 C 182.71875 2.191406 182.585938 2.128906 182.464844 2.039062 C 182.34375 1.949219 182.246094 1.84375 182.164062 1.714844 C 182.085938 1.589844 182.035156 1.453125 182.007812 1.304688 C 181.984375 1.148438 181.988281 0.996094 182.023438 0.84375 C 182.058594 0.691406 182.125 0.550781 182.21875 0.421875 C 182.3125 0.296875 182.425781 0.195312 182.5625 0.113281 C 182.699219 0.0351562 182.847656 -0.015625 183.003906 -0.0351562 C 183.160156 -0.0585938 183.3125 -0.046875 183.464844 -0.00390625 C 183.617188 0.0390625 183.753906 0.109375 183.878906 0.207031 C 184 0.304688 184.101562 0.425781 184.175781 0.5625 C 184.25 0.703125 184.292969 0.847656 184.308594 1.003906 M 181.816406 1.003906 C 181.835938 1.15625 181.828125 1.304688 181.792969 1.453125 C 181.753906 1.597656 181.6875 1.734375 181.59375 1.855469 C 181.503906 1.976562 181.390625 2.074219 181.261719 2.152344 C 181.128906 2.226562 180.988281 2.277344 180.835938 2.296875 C 180.683594 2.316406 180.53125 2.308594 180.382812 2.269531 C 180.234375 2.230469 180.097656 2.164062 179.972656 2.070312 C 179.851562 1.976562 179.75 1.867188 179.671875 1.734375 C 179.59375 1.601562 179.542969 1.457031 179.523438 1.304688 C 179.503906 1.152344 179.511719 1.003906 179.550781 0.851562 C 179.589844 0.703125 179.65625 0.570312 179.75 0.445312 C 179.84375 0.324219 179.957031 0.222656 180.089844 0.148438 C 180.222656 0.0703125 180.367188 0.0195312 180.519531 0 C 180.671875 -0.0195312 180.824219 -0.0117188 180.972656 0.03125 C 181.121094 0.0703125 181.253906 0.136719 181.378906 0.230469 C 181.5 0.324219 181.597656 0.4375 181.675781 0.570312 C 181.75 0.703125 181.796875 0.847656 181.816406 1 M 177.808594 8.898438 C 177.808594 10.140625 177.691406 10.660156 178.105469 11.1875 C 178.746094 11.992188 180.199219 11.832031 181.988281 11.832031 L 185.847656 11.832031 C 187.28125 11.832031 186.484375 9.085938 186.484375 9.085938 C 185.695312 6.945312 184.921875 5.632812 182.09375 5.632812 C 180.0625 5.632812 177.800781 7.324219 177.800781 8.898438 M 188.21875 3.945312 L 188.21875 11.835938 L 189.578125 11.835938 L 189.578125 13.546875 L 178.765625 13.546875 C 177.867188 13.304688 177.152344 12.804688 176.617188 12.042969 C 176.167969 11.21875 176.132812 11.101562 176.132812 9.492188 C 176.132812 6.902344 178.730469 3.972656 182.125 3.972656 C 182.9375 3.964844 183.71875 4.109375 184.472656 4.410156 C 185.226562 4.710938 185.894531 5.140625 186.476562 5.703125 L 186.476562 3.921875 Z M 188.21875 3.945312 " fill-opacity="1" fill-rule="nonzero"/><path fill="#007dc5" d="M 191.054688 4.476562 C 190.925781 4.34375 190.808594 4.214844 190.808594 3.6875 C 190.828125 3.441406 190.894531 3.203125 191.003906 2.980469 C 191.113281 2.757812 191.257812 2.5625 191.441406 2.394531 C 191.625 2.226562 191.832031 2.097656 192.0625 2.007812 C 192.296875 1.914062 192.535156 1.871094 192.785156 1.867188 C 193.171875 1.902344 193.542969 1.996094 193.902344 2.144531 L 193.652344 2.652344 C 193.382812 2.496094 193.09375 2.417969 192.785156 2.410156 C 192.125 2.410156 191.355469 2.996094 191.355469 3.515625 C 191.355469 3.894531 191.355469 4.078125 191.527344 4.230469 C 191.734375 4.507812 192.140625 4.472656 192.726562 4.472656 L 194.03125 4.472656 L 193.722656 4.992188 L 190.78125 4.992188 L 190.78125 4.476562 Z M 191.574219 11.835938 L 191.574219 6.582031 L 193.265625 6.582031 L 193.265625 11.835938 L 195.414062 11.835938 L 195.414062 13.546875 L 188.925781 13.546875 L 188.925781 11.835938 Z M 191.574219 11.835938 " fill-opacity="1" fill-rule="nonzero"/><path fill="#007dc5" d="M 200.082031 15.574219 C 200.101562 15.722656 200.09375 15.871094 200.054688 16.019531 C 200.019531 16.167969 199.953125 16.300781 199.859375 16.421875 C 199.769531 16.542969 199.65625 16.640625 199.523438 16.71875 C 199.394531 16.796875 199.253906 16.84375 199.101562 16.863281 C 198.949219 16.886719 198.796875 16.878906 198.648438 16.839844 C 198.496094 16.804688 198.359375 16.738281 198.238281 16.648438 C 198.113281 16.554688 198.011719 16.441406 197.933594 16.308594 C 197.855469 16.179688 197.804688 16.035156 197.78125 15.882812 C 197.761719 15.730469 197.769531 15.582031 197.808594 15.433594 C 197.847656 15.28125 197.914062 15.148438 198.007812 15.023438 C 198.101562 14.902344 198.214844 14.800781 198.347656 14.722656 C 198.480469 14.648438 198.621094 14.597656 198.777344 14.578125 C 198.929688 14.554688 199.078125 14.566406 199.230469 14.605469 C 199.378906 14.644531 199.515625 14.710938 199.636719 14.804688 C 199.757812 14.898438 199.859375 15.011719 199.9375 15.144531 C 200.011719 15.277344 200.0625 15.421875 200.082031 15.574219 M 197.597656 15.574219 C 197.617188 15.726562 197.605469 15.875 197.566406 16.023438 C 197.527344 16.171875 197.457031 16.304688 197.363281 16.425781 C 197.269531 16.546875 197.15625 16.644531 197.023438 16.722656 C 196.890625 16.796875 196.75 16.847656 196.597656 16.867188 C 196.445312 16.886719 196.292969 16.875 196.144531 16.835938 C 195.996094 16.796875 195.859375 16.730469 195.738281 16.636719 C 195.617188 16.542969 195.519531 16.429688 195.441406 16.296875 C 195.363281 16.164062 195.316406 16.023438 195.296875 15.871094 C 195.277344 15.71875 195.285156 15.570312 195.328125 15.421875 C 195.367188 15.273438 195.433594 15.140625 195.527344 15.019531 C 195.621094 14.894531 195.734375 14.796875 195.867188 14.71875 C 196 14.644531 196.140625 14.59375 196.292969 14.574219 C 196.445312 14.554688 196.597656 14.5625 196.746094 14.601562 C 196.898438 14.640625 197.03125 14.707031 197.15625 14.800781 C 197.277344 14.894531 197.378906 15.011719 197.453125 15.144531 C 197.53125 15.277344 197.578125 15.421875 197.597656 15.574219 M 197.195312 11.835938 L 197.195312 6.582031 L 198.894531 6.582031 L 198.894531 11.835938 L 201.042969 11.835938 L 201.042969 13.546875 L 194.5625 13.546875 L 194.5625 11.835938 Z M 197.195312 11.835938 " fill-opacity="1" fill-rule="nonzero"/><path fill="#007dc5" d="M 212.675781 8.90625 C 212.675781 7.421875 210.277344 5.660156 208.378906 5.660156 L 208.378906 11.835938 C 210.261719 11.835938 211.625 11.894531 212.203125 11.125 C 212.617188 10.597656 212.660156 10.113281 212.660156 8.871094 M 206.683594 5.734375 C 204.742188 5.734375 202.894531 7.558594 202.894531 8.871094 C 202.894531 10.183594 202.953125 10.582031 203.347656 11.125 C 203.890625 11.835938 206.683594 11.835938 206.683594 11.835938 Z M 206.683594 3.316406 L 208.378906 2.546875 L 208.378906 3.949219 C 211.753906 3.949219 214.359375 6.882812 214.359375 9.46875 C 214.359375 11.082031 214.050781 11.4375 213.644531 11.835938 L 215.355469 11.835938 L 215.355469 13.546875 L 200.210938 13.546875 L 200.210938 11.835938 L 201.929688 11.835938 C 201.515625 11.4375 201.214844 11.082031 201.214844 9.46875 C 201.214844 7.253906 203.246094 4.699219 206.699219 4.078125 Z M 206.683594 3.316406 " fill-opacity="1" fill-rule="nonzero"/><path fill="#007dc5" d="M 217.332031 11.835938 L 217.332031 0.15625 L 219.027344 0.15625 L 219.027344 13.519531 L 214.6875 13.519531 L 214.6875 11.835938 Z M 217.332031 11.835938 " fill-opacity="1" fill-rule="nonzero"/><path fill="#007dc5" d="M 221.324219 0.15625 L 223.023438 0.15625 L 223.023438 13.519531 L 221.324219 13.519531 Z M 221.324219 0.15625 " fill-opacity="1" fill-rule="nonzero"/><path fill="#007dc5" d="M 9.925781 25.472656 L 8.5625 26.277344 C 8.394531 25.933594 8.152344 25.644531 7.847656 25.414062 C 7.558594 25.25 7.25 25.171875 6.917969 25.1875 C 6.476562 25.171875 6.085938 25.304688 5.75 25.585938 C 5.4375 25.835938 5.28125 26.160156 5.292969 26.5625 C 5.292969 27.105469 5.691406 27.539062 6.5 27.867188 L 7.609375 28.324219 C 8.390625 28.59375 9.054688 29.039062 9.601562 29.65625 C 10.039062 30.226562 10.246094 30.871094 10.226562 31.589844 C 10.253906 32.582031 9.914062 33.425781 9.199219 34.121094 C 8.484375 34.8125 7.628906 35.148438 6.628906 35.125 C 5.714844 35.160156 4.917969 34.875 4.238281 34.265625 C 3.554688 33.597656 3.164062 32.792969 3.058594 31.847656 L 4.761719 31.476562 C 4.785156 31.953125 4.921875 32.394531 5.167969 32.800781 C 5.34375 33.042969 5.566406 33.226562 5.835938 33.351562 C 6.105469 33.480469 6.390625 33.535156 6.6875 33.515625 C 7.199219 33.53125 7.632812 33.359375 7.992188 32.996094 C 8.355469 32.625 8.527344 32.179688 8.511719 31.660156 C 8.511719 31.457031 8.480469 31.261719 8.421875 31.070312 C 8.359375 30.886719 8.265625 30.722656 8.140625 30.578125 C 7.996094 30.414062 7.832031 30.269531 7.648438 30.148438 C 7.417969 30.007812 7.179688 29.878906 6.929688 29.769531 L 5.84375 29.359375 C 4.320312 28.714844 3.558594 27.765625 3.558594 26.503906 C 3.546875 25.65625 3.867188 24.960938 4.523438 24.417969 C 5.214844 23.835938 6.011719 23.566406 6.917969 23.601562 C 7.554688 23.601562 8.148438 23.769531 8.6875 24.109375 C 9.230469 24.445312 9.644531 24.898438 9.925781 25.472656 " fill-opacity="1" fill-rule="nonzero"/><path fill="#007dc5" d="M 13.839844 31.375 C 13.8125 31.988281 13.992188 32.535156 14.386719 33.007812 C 14.746094 33.449219 15.210938 33.664062 15.78125 33.652344 C 16.351562 33.660156 16.828125 33.457031 17.214844 33.039062 C 17.394531 32.804688 17.53125 32.550781 17.628906 32.269531 C 17.722656 31.992188 17.773438 31.707031 17.773438 31.410156 C 17.773438 31.117188 17.722656 30.832031 17.628906 30.550781 C 17.53125 30.273438 17.394531 30.019531 17.214844 29.785156 C 16.832031 29.355469 16.355469 29.144531 15.78125 29.15625 C 15.214844 29.148438 14.75 29.359375 14.386719 29.792969 C 14 30.25 13.816406 30.777344 13.839844 31.375 M 17.707031 27.910156 L 19.332031 27.910156 L 19.332031 34.941406 L 17.707031 34.941406 L 17.707031 34.226562 C 17.402344 34.535156 17.050781 34.773438 16.644531 34.933594 C 16.242188 35.097656 15.824219 35.171875 15.390625 35.164062 C 14.957031 35.152344 14.542969 35.054688 14.148438 34.871094 C 13.753906 34.691406 13.414062 34.4375 13.125 34.113281 C 12.441406 33.328125 12.128906 32.414062 12.179688 31.375 C 12.144531 30.375 12.460938 29.5 13.125 28.75 C 13.421875 28.410156 13.777344 28.144531 14.191406 27.960938 C 14.605469 27.773438 15.039062 27.6875 15.496094 27.695312 C 16.382812 27.710938 17.121094 28.050781 17.707031 28.714844 Z M 17.707031 27.910156 " fill-opacity="1" fill-rule="nonzero"/><path fill="#007dc5" d="M 24.1875 27.929688 L 24.1875 31.9375 C 24.1875 33.09375 24.644531 33.671875 25.570312 33.671875 C 26.492188 33.671875 26.957031 33.09375 26.957031 31.9375 L 26.957031 27.929688 L 28.582031 27.929688 L 28.582031 31.980469 C 28.589844 32.46875 28.519531 32.945312 28.375 33.40625 C 28.21875 33.796875 27.980469 34.125 27.660156 34.390625 C 27.050781 34.898438 26.347656 35.136719 25.554688 35.105469 C 24.765625 35.136719 24.070312 34.898438 23.464844 34.390625 C 23.140625 34.125 22.902344 33.796875 22.746094 33.40625 C 22.59375 32.945312 22.523438 32.46875 22.546875 31.980469 L 22.546875 27.929688 Z M 24.1875 27.929688 " fill-opacity="1" fill-rule="nonzero"/><path fill="#007dc5" d="M 32.835938 31.375 C 32.808594 31.988281 32.988281 32.53125 33.375 33.007812 C 33.746094 33.457031 34.222656 33.671875 34.804688 33.652344 C 35.378906 33.664062 35.855469 33.460938 36.238281 33.039062 C 36.417969 32.804688 36.558594 32.550781 36.652344 32.269531 C 36.75 31.992188 36.796875 31.707031 36.796875 31.410156 C 36.796875 31.117188 36.75 30.832031 36.652344 30.550781 C 36.558594 30.273438 36.417969 30.019531 36.238281 29.785156 C 36.054688 29.582031 35.839844 29.421875 35.589844 29.3125 C 35.339844 29.199219 35.078125 29.144531 34.804688 29.144531 C 34.53125 29.144531 34.269531 29.199219 34.019531 29.3125 C 33.769531 29.421875 33.554688 29.582031 33.375 29.785156 C 32.992188 30.246094 32.8125 30.777344 32.835938 31.375 M 36.695312 22.753906 L 38.347656 22.753906 L 38.347656 34.941406 L 36.695312 34.941406 L 36.695312 34.226562 C 36.109375 34.835938 35.394531 35.148438 34.546875 35.164062 C 34.089844 35.171875 33.652344 35.085938 33.230469 34.902344 C 32.8125 34.71875 32.449219 34.457031 32.148438 34.113281 C 31.457031 33.328125 31.140625 32.417969 31.191406 31.375 C 31.15625 30.375 31.472656 29.503906 32.140625 28.757812 C 32.28125 28.59375 32.4375 28.445312 32.609375 28.316406 C 32.78125 28.183594 32.96875 28.070312 33.164062 27.980469 C 33.359375 27.886719 33.5625 27.816406 33.777344 27.769531 C 33.988281 27.722656 34.199219 27.695312 34.417969 27.695312 C 34.636719 27.691406 34.851562 27.710938 35.0625 27.757812 C 35.273438 27.800781 35.480469 27.863281 35.679688 27.953125 C 35.875 28.039062 36.0625 28.148438 36.238281 28.273438 C 36.414062 28.402344 36.574219 28.546875 36.71875 28.707031 Z M 36.695312 22.753906 " fill-opacity="1" fill-rule="nonzero"/><path fill="#007dc5" d="M 42.980469 34.941406 L 41.355469 34.941406 L 41.355469 27.929688 L 42.980469 27.929688 Z M 41.113281 25.03125 C 41.113281 24.890625 41.140625 24.757812 41.195312 24.628906 C 41.246094 24.5 41.324219 24.386719 41.421875 24.289062 C 41.519531 24.191406 41.636719 24.117188 41.761719 24.0625 C 41.890625 24.007812 42.027344 23.984375 42.164062 23.984375 C 42.304688 23.984375 42.4375 24.007812 42.566406 24.0625 C 42.695312 24.117188 42.8125 24.191406 42.910156 24.289062 C 43.007812 24.386719 43.085938 24.5 43.136719 24.628906 C 43.191406 24.757812 43.21875 24.890625 43.21875 25.03125 C 43.214844 25.308594 43.113281 25.546875 42.910156 25.742188 C 42.714844 25.949219 42.476562 26.050781 42.195312 26.050781 C 42.054688 26.050781 41.917969 26.023438 41.785156 25.96875 C 41.65625 25.917969 41.539062 25.839844 41.441406 25.738281 C 41.339844 25.640625 41.265625 25.523438 41.210938 25.394531 C 41.160156 25.261719 41.132812 25.128906 41.136719 24.988281 " fill-opacity="1" fill-rule="nonzero"/><path fill="#007dc5" d="M 57.339844 25.40625 L 53.449219 25.40625 L 53.449219 28.058594 L 57.195312 28.058594 L 57.195312 29.644531 L 53.449219 29.644531 L 53.449219 34.925781 L 51.789062 34.925781 L 51.789062 23.824219 L 57.339844 23.824219 Z M 57.339844 25.40625 " fill-opacity="1" fill-rule="nonzero"/><path fill="#007dc5" d="M 61.46875 31.375 C 61.433594 32.003906 61.625 32.558594 62.035156 33.039062 C 62.238281 33.234375 62.472656 33.382812 62.734375 33.492188 C 63 33.597656 63.273438 33.648438 63.558594 33.648438 C 63.839844 33.648438 64.113281 33.597656 64.378906 33.492188 C 64.640625 33.382812 64.875 33.234375 65.078125 33.039062 C 65.265625 32.804688 65.40625 32.550781 65.503906 32.269531 C 65.601562 31.992188 65.652344 31.703125 65.652344 31.40625 C 65.652344 31.113281 65.601562 30.824219 65.503906 30.542969 C 65.40625 30.265625 65.265625 30.011719 65.078125 29.777344 C 64.664062 29.339844 64.15625 29.132812 63.554688 29.15625 C 62.957031 29.136719 62.457031 29.34375 62.050781 29.777344 C 61.636719 30.230469 61.445312 30.765625 61.46875 31.375 M 59.828125 31.375 C 59.808594 30.355469 60.171875 29.496094 60.917969 28.792969 C 61.277344 28.449219 61.6875 28.183594 62.148438 28 C 62.609375 27.8125 63.085938 27.71875 63.585938 27.71875 C 64.082031 27.71875 64.5625 27.8125 65.023438 28 C 65.484375 28.183594 65.894531 28.449219 66.253906 28.792969 C 66.601562 29.144531 66.867188 29.550781 67.054688 30.003906 C 67.246094 30.460938 67.339844 30.9375 67.339844 31.429688 C 67.339844 31.921875 67.246094 32.398438 67.054688 32.851562 C 66.867188 33.308594 66.601562 33.714844 66.253906 34.0625 C 65.5 34.792969 64.601562 35.144531 63.554688 35.121094 C 62.511719 35.144531 61.628906 34.785156 60.902344 34.042969 C 60.164062 33.304688 59.804688 32.417969 59.828125 31.375 " fill-opacity="1" fill-rule="nonzero"/><path fill="#007dc5" d="M 71.242188 31.375 C 71.210938 32.003906 71.398438 32.558594 71.808594 33.039062 C 72.011719 33.234375 72.246094 33.382812 72.511719 33.492188 C 72.773438 33.597656 73.046875 33.648438 73.332031 33.648438 C 73.613281 33.648438 73.886719 33.597656 74.152344 33.492188 C 74.414062 33.382812 74.648438 33.234375 74.851562 33.039062 C 75.039062 32.804688 75.179688 32.550781 75.277344 32.269531 C 75.375 31.992188 75.425781 31.703125 75.425781 31.40625 C 75.425781 31.113281 75.375 30.824219 75.277344 30.542969 C 75.179688 30.265625 75.039062 30.011719 74.851562 29.777344 C 74.4375 29.339844 73.929688 29.132812 73.328125 29.15625 C 72.730469 29.136719 72.230469 29.34375 71.824219 29.777344 C 71.410156 30.230469 71.21875 30.765625 71.242188 31.375 M 69.582031 31.375 C 69.566406 30.355469 69.929688 29.496094 70.671875 28.792969 C 71.027344 28.449219 71.4375 28.183594 71.898438 28 C 72.359375 27.8125 72.839844 27.71875 73.335938 27.71875 C 73.835938 27.71875 74.316406 27.8125 74.777344 28 C 75.238281 28.183594 75.648438 28.449219 76.003906 28.792969 C 76.351562 29.144531 76.621094 29.550781 76.808594 30.003906 C 76.996094 30.460938 77.089844 30.9375 77.089844 31.429688 C 77.089844 31.921875 76.996094 32.398438 76.808594 32.851562 C 76.621094 33.308594 76.351562 33.714844 76.003906 34.0625 C 75.253906 34.792969 74.355469 35.144531 73.304688 35.121094 C 72.265625 35.144531 71.382812 34.785156 70.65625 34.042969 C 69.914062 33.304688 69.558594 32.417969 69.582031 31.375 " fill-opacity="1" fill-rule="nonzero"/><path fill="#007dc5" d="M 81.308594 31.375 C 81.28125 31.988281 81.460938 32.53125 81.847656 33.007812 C 82.21875 33.457031 82.695312 33.671875 83.277344 33.652344 C 83.847656 33.660156 84.328125 33.457031 84.710938 33.039062 C 84.890625 32.804688 85.027344 32.546875 85.121094 32.269531 C 85.214844 31.992188 85.261719 31.707031 85.261719 31.410156 C 85.261719 31.117188 85.214844 30.832031 85.121094 30.554688 C 85.027344 30.273438 84.890625 30.019531 84.710938 29.785156 C 84.332031 29.355469 83.855469 29.144531 83.277344 29.15625 C 82.699219 29.140625 82.222656 29.351562 81.847656 29.792969 C 81.464844 30.25 81.285156 30.78125 81.308594 31.375 M 85.167969 22.753906 L 86.792969 22.753906 L 86.792969 34.941406 L 85.175781 34.941406 L 85.175781 34.226562 C 84.589844 34.835938 83.875 35.148438 83.027344 35.164062 C 82.5625 35.175781 82.113281 35.085938 81.6875 34.894531 C 81.261719 34.707031 80.898438 34.433594 80.59375 34.078125 C 79.917969 33.300781 79.605469 32.402344 79.648438 31.375 C 79.621094 30.386719 79.9375 29.527344 80.59375 28.789062 C 80.734375 28.621094 80.890625 28.472656 81.0625 28.34375 C 81.234375 28.210938 81.417969 28.101562 81.617188 28.007812 C 81.8125 27.917969 82.015625 27.847656 82.226562 27.796875 C 82.4375 27.75 82.652344 27.726562 82.871094 27.722656 C 83.085938 27.71875 83.300781 27.742188 83.515625 27.785156 C 83.726562 27.828125 83.933594 27.894531 84.128906 27.980469 C 84.328125 28.070312 84.515625 28.175781 84.691406 28.304688 C 84.867188 28.429688 85.027344 28.574219 85.167969 28.738281 Z M 85.167969 22.753906 " fill-opacity="1" fill-rule="nonzero"/><path fill="#007dc5" d="M 98.609375 27.5625 L 98.753906 27.460938 C 98.988281 27.28125 99.183594 27.125 99.332031 26.996094 C 99.453125 26.898438 99.5625 26.785156 99.660156 26.664062 C 99.816406 26.472656 99.890625 26.253906 99.882812 26.007812 C 99.894531 25.722656 99.792969 25.484375 99.582031 25.292969 C 99.355469 25.097656 99.09375 25.007812 98.796875 25.023438 C 98.503906 25.011719 98.246094 25.105469 98.027344 25.300781 C 97.804688 25.488281 97.703125 25.722656 97.722656 26.011719 C 97.730469 26.382812 97.859375 26.703125 98.109375 26.976562 L 98.523438 27.480469 L 98.609375 27.589844 M 98.257812 29.730469 L 98.164062 29.792969 C 97.644531 30.121094 97.167969 30.503906 96.734375 30.941406 C 96.5 31.199219 96.378906 31.503906 96.367188 31.855469 C 96.378906 32.089844 96.433594 32.320312 96.527344 32.535156 C 96.625 32.753906 96.757812 32.949219 96.925781 33.117188 C 97.09375 33.285156 97.289062 33.417969 97.507812 33.511719 C 97.726562 33.609375 97.953125 33.660156 98.195312 33.671875 C 98.84375 33.671875 99.589844 33.242188 100.441406 32.402344 Z M 99.589844 28.78125 L 101.601562 31.199219 L 101.667969 31.125 C 101.882812 30.890625 102.089844 30.664062 102.28125 30.414062 C 102.476562 30.164062 102.660156 29.964844 102.832031 29.699219 L 103.9375 30.820312 C 103.800781 31.011719 103.621094 31.234375 103.398438 31.488281 C 103.175781 31.746094 102.917969 32.03125 102.617188 32.367188 L 104.6875 34.941406 L 102.589844 34.941406 L 101.480469 33.578125 C 101.082031 34.054688 100.605469 34.425781 100.050781 34.703125 C 99.492188 34.976562 98.90625 35.132812 98.285156 35.164062 C 97.324219 35.1875 96.484375 34.875 95.773438 34.226562 C 95.082031 33.597656 94.746094 32.816406 94.765625 31.882812 C 94.765625 31.3125 94.90625 30.777344 95.1875 30.28125 C 95.46875 29.785156 95.855469 29.386719 96.347656 29.09375 L 97.0625 28.601562 L 97.105469 28.601562 L 97.210938 28.515625 C 96.53125 27.894531 96.160156 27.125 96.101562 26.207031 C 96.074219 25.492188 96.3125 24.882812 96.820312 24.378906 C 97.085938 24.15625 97.386719 23.984375 97.714844 23.863281 C 98.046875 23.746094 98.386719 23.683594 98.738281 23.683594 C 99.089844 23.683594 99.429688 23.746094 99.757812 23.863281 C 100.089844 23.984375 100.386719 24.15625 100.65625 24.378906 C 101.160156 24.847656 101.398438 25.421875 101.371094 26.105469 C 101.378906 26.585938 101.238281 27.019531 100.957031 27.410156 C 100.539062 27.957031 100.050781 28.433594 99.488281 28.835938 " fill-opacity="1" fill-rule="nonzero"/><path fill="#007dc5" d="M 114.015625 33.34375 L 114.777344 33.34375 C 115.417969 33.363281 116.050781 33.28125 116.667969 33.101562 C 117.054688 32.972656 117.414062 32.785156 117.742188 32.539062 C 118.070312 32.292969 118.351562 32.003906 118.585938 31.667969 C 118.820312 31.328125 118.992188 30.964844 119.109375 30.574219 C 119.222656 30.179688 119.273438 29.78125 119.257812 29.371094 C 119.277344 28.8125 119.183594 28.277344 118.96875 27.761719 C 118.75 27.246094 118.4375 26.800781 118.027344 26.417969 C 117.070312 25.65625 115.980469 25.316406 114.753906 25.40625 L 113.996094 25.40625 Z M 112.347656 34.941406 L 112.347656 23.824219 L 114.691406 23.824219 C 115.59375 23.796875 116.484375 23.90625 117.355469 24.152344 C 118.074219 24.375 118.707031 24.746094 119.257812 25.257812 C 119.835938 25.78125 120.277344 26.40625 120.582031 27.125 C 120.882812 27.84375 121.019531 28.59375 120.992188 29.371094 C 121.003906 29.949219 120.925781 30.511719 120.757812 31.0625 C 120.589844 31.613281 120.339844 32.125 120.007812 32.59375 C 119.671875 33.066406 119.277344 33.472656 118.8125 33.820312 C 118.351562 34.164062 117.84375 34.429688 117.296875 34.613281 C 116.4375 34.855469 115.5625 34.957031 114.667969 34.925781 Z M 112.347656 34.941406 " fill-opacity="1" fill-rule="nonzero"/><path fill="#007dc5" d="M 123.660156 27.929688 L 125.289062 27.929688 L 125.289062 28.523438 C 125.515625 28.265625 125.78125 28.054688 126.082031 27.890625 C 126.34375 27.753906 126.625 27.6875 126.917969 27.695312 C 127.40625 27.714844 127.851562 27.855469 128.257812 28.117188 L 127.542969 29.601562 C 127.277344 29.390625 126.976562 29.277344 126.640625 29.265625 C 125.761719 29.265625 125.316406 29.933594 125.316406 31.269531 L 125.316406 34.941406 L 123.691406 34.941406 Z M 123.660156 27.929688 " fill-opacity="1" fill-rule="nonzero"/><path fill="#007dc5" d="M 132.226562 27.929688 L 132.226562 31.9375 C 132.226562 33.09375 132.683594 33.671875 133.609375 33.671875 C 134.53125 33.671875 134.996094 33.09375 134.996094 31.9375 L 134.996094 27.929688 L 136.621094 27.929688 L 136.621094 31.980469 C 136.628906 32.46875 136.558594 32.945312 136.414062 33.40625 C 136.257812 33.796875 136.019531 34.125 135.699219 34.390625 C 135.398438 34.625 135.066406 34.800781 134.707031 34.921875 C 134.347656 35.042969 133.980469 35.105469 133.601562 35.105469 C 133.21875 35.105469 132.851562 35.042969 132.492188 34.921875 C 132.132812 34.800781 131.800781 34.625 131.503906 34.390625 C 131.179688 34.125 130.941406 33.796875 130.785156 33.40625 C 130.628906 32.945312 130.558594 32.46875 130.578125 31.980469 L 130.578125 27.929688 Z M 132.226562 27.929688 " fill-opacity="1" fill-rule="nonzero"/><g clip-path="url(#5d701dbbe4)"><path fill="#007dc5" d="M 144.691406 31.433594 C 144.722656 30.820312 144.539062 30.277344 144.140625 29.808594 C 143.761719 29.375 143.285156 29.164062 142.707031 29.179688 C 142.109375 29.171875 141.628906 29.410156 141.277344 29.894531 C 140.960938 30.371094 140.800781 30.894531 140.800781 31.464844 C 140.800781 32.035156 140.960938 32.558594 141.277344 33.039062 C 141.640625 33.496094 142.117188 33.71875 142.707031 33.699219 C 143.3125 33.726562 143.804688 33.503906 144.183594 33.03125 C 144.542969 32.566406 144.710938 32.046875 144.683594 31.460938 M 146.238281 34.792969 C 146.238281 35.125 146.238281 35.410156 146.203125 35.667969 C 146.167969 35.925781 146.152344 36.140625 146.117188 36.332031 C 145.996094 36.847656 145.757812 37.296875 145.398438 37.6875 C 145.070312 38.058594 144.675781 38.339844 144.214844 38.535156 C 143.757812 38.726562 143.277344 38.808594 142.78125 38.785156 C 141.914062 38.820312 141.140625 38.566406 140.460938 38.027344 C 139.796875 37.46875 139.433594 36.753906 139.371094 35.890625 L 141.003906 35.890625 C 141.046875 36.179688 141.152344 36.445312 141.320312 36.6875 C 141.695312 37.164062 142.1875 37.382812 142.792969 37.34375 C 143.980469 37.34375 144.578125 36.617188 144.578125 35.164062 L 144.578125 34.144531 C 143.976562 34.796875 143.230469 35.125 142.34375 35.125 C 141.40625 35.140625 140.632812 34.796875 140.023438 34.09375 C 139.375 33.335938 139.066406 32.460938 139.097656 31.46875 C 139.070312 30.5 139.359375 29.628906 139.957031 28.867188 C 140.25 28.492188 140.613281 28.207031 141.042969 28.003906 C 141.472656 27.804688 141.925781 27.710938 142.398438 27.726562 C 143.292969 27.714844 144.03125 28.046875 144.613281 28.722656 L 144.613281 27.929688 L 146.238281 27.929688 Z M 146.238281 34.792969 " fill-opacity="1" fill-rule="nonzero"/></g><path fill="#007dc5" d="M 161.007812 30.664062 L 159.355469 26.875 L 157.621094 30.664062 Z M 161.726562 32.246094 L 156.921875 32.246094 L 155.683594 34.941406 L 153.871094 34.941406 L 159.355469 23.125 L 164.703125 34.941406 L 162.863281 34.941406 Z M 161.726562 32.246094 " fill-opacity="1" fill-rule="nonzero"/><path fill="#007dc5" d="M 168.277344 27.929688 L 168.277344 31.9375 C 168.277344 33.09375 168.742188 33.671875 169.664062 33.671875 C 170.589844 33.671875 171.054688 33.09375 171.054688 31.9375 L 171.054688 27.929688 L 172.679688 27.929688 L 172.679688 31.980469 C 172.6875 32.46875 172.617188 32.945312 172.464844 33.40625 C 172.3125 33.796875 172.074219 34.125 171.75 34.390625 C 171.449219 34.625 171.117188 34.800781 170.761719 34.921875 C 170.402344 35.042969 170.03125 35.105469 169.652344 35.105469 C 169.273438 35.105469 168.902344 35.042969 168.542969 34.921875 C 168.183594 34.800781 167.855469 34.625 167.554688 34.390625 C 167.234375 34.125 166.996094 33.796875 166.835938 33.40625 C 166.683594 32.945312 166.617188 32.46875 166.636719 31.980469 L 166.636719 27.929688 Z M 168.277344 27.929688 " fill-opacity="1" fill-rule="nonzero"/><path fill="#007dc5" d="M 177.671875 29.4375 L 177.671875 34.925781 L 176.046875 34.925781 L 176.046875 29.4375 L 175.351562 29.4375 L 175.351562 27.929688 L 176.046875 27.929688 L 176.046875 25.351562 L 177.671875 25.351562 L 177.671875 27.929688 L 178.9375 27.929688 L 178.9375 29.4375 Z M 177.671875 29.4375 " fill-opacity="1" fill-rule="nonzero"/><path fill="#007dc5" d="M 181.121094 22.777344 L 182.746094 22.777344 L 182.746094 28.480469 C 183.285156 27.976562 183.921875 27.71875 184.660156 27.703125 C 185.421875 27.683594 186.054688 27.957031 186.5625 28.523438 C 187.039062 29.160156 187.242188 29.871094 187.171875 30.664062 L 187.171875 34.941406 L 185.546875 34.941406 L 185.546875 30.777344 C 185.582031 30.335938 185.480469 29.929688 185.246094 29.558594 C 184.988281 29.273438 184.664062 29.144531 184.28125 29.179688 C 183.78125 29.132812 183.378906 29.308594 183.078125 29.707031 C 182.800781 30.285156 182.6875 30.894531 182.738281 31.53125 L 182.738281 34.941406 L 181.121094 34.941406 Z M 181.121094 22.777344 " fill-opacity="1" fill-rule="nonzero"/><path fill="#007dc5" d="M 191.347656 31.375 C 191.3125 32.003906 191.5 32.554688 191.90625 33.039062 C 192.320312 33.46875 192.828125 33.675781 193.429688 33.652344 C 194.03125 33.679688 194.542969 33.476562 194.957031 33.039062 C 195.136719 32.804688 195.277344 32.550781 195.375 32.269531 C 195.472656 31.992188 195.519531 31.703125 195.519531 31.40625 C 195.519531 31.113281 195.472656 30.824219 195.375 30.546875 C 195.277344 30.265625 195.136719 30.011719 194.957031 29.777344 C 194.542969 29.339844 194.03125 29.132812 193.429688 29.15625 C 192.832031 29.132812 192.332031 29.339844 191.925781 29.777344 C 191.515625 30.230469 191.320312 30.765625 191.347656 31.375 M 189.683594 31.375 C 189.664062 30.355469 190.027344 29.496094 190.773438 28.792969 C 191.128906 28.449219 191.539062 28.183594 192 28 C 192.460938 27.8125 192.941406 27.722656 193.4375 27.722656 C 193.933594 27.722656 194.414062 27.8125 194.875 28 C 195.335938 28.183594 195.742188 28.449219 196.101562 28.792969 C 196.449219 29.144531 196.71875 29.546875 196.910156 30.003906 C 197.097656 30.460938 197.191406 30.9375 197.191406 31.429688 C 197.191406 31.921875 197.097656 32.398438 196.910156 32.855469 C 196.71875 33.3125 196.449219 33.714844 196.101562 34.0625 C 195.351562 34.792969 194.457031 35.144531 193.410156 35.121094 C 192.367188 35.144531 191.484375 34.785156 190.757812 34.042969 C 190.015625 33.308594 189.65625 32.417969 189.683594 31.375 " fill-opacity="1" fill-rule="nonzero"/><path fill="#007dc5" d="M 199.886719 27.929688 L 201.515625 27.929688 L 201.515625 28.523438 C 201.746094 28.269531 202.007812 28.058594 202.308594 27.890625 C 202.570312 27.753906 202.851562 27.6875 203.144531 27.695312 C 203.632812 27.710938 204.078125 27.851562 204.484375 28.117188 L 203.769531 29.601562 C 203.503906 29.390625 203.203125 29.277344 202.867188 29.265625 C 201.980469 29.265625 201.535156 29.933594 201.535156 31.269531 L 201.535156 34.941406 L 199.910156 34.941406 Z M 199.886719 27.929688 " fill-opacity="1" fill-rule="nonzero"/><path fill="#007dc5" d="M 208.25 34.941406 L 206.613281 34.941406 L 206.613281 27.929688 L 208.238281 27.929688 Z M 206.390625 25.03125 C 206.390625 24.890625 206.417969 24.757812 206.472656 24.632812 C 206.523438 24.503906 206.601562 24.394531 206.699219 24.296875 C 206.796875 24.199219 206.910156 24.121094 207.035156 24.070312 C 207.164062 24.015625 207.296875 23.988281 207.433594 23.988281 C 207.730469 23.984375 207.980469 24.085938 208.1875 24.292969 C 208.390625 24.488281 208.492188 24.726562 208.496094 25.007812 C 208.492188 25.289062 208.386719 25.527344 208.1875 25.722656 C 207.992188 25.925781 207.753906 26.027344 207.472656 26.027344 C 207.1875 26.027344 206.949219 25.921875 206.753906 25.722656 C 206.542969 25.515625 206.4375 25.261719 206.445312 24.964844 " fill-opacity="1" fill-rule="nonzero"/><path fill="#007dc5" d="M 212.875 29.4375 L 212.875 34.925781 L 211.25 34.925781 L 211.25 29.4375 L 210.558594 29.4375 L 210.558594 27.929688 L 211.25 27.929688 L 211.25 25.351562 L 212.875 25.351562 L 212.875 27.929688 L 214.144531 27.929688 L 214.144531 29.4375 Z M 212.875 29.4375 " fill-opacity="1" fill-rule="nonzero"/><g clip-path="url(#95c924884b)"><path fill="#007dc5" d="M 218.75 33.628906 L 215.582031 27.929688 L 217.464844 27.929688 L 219.621094 31.953125 L 221.625 27.929688 L 223.460938 27.929688 L 217.859375 38.734375 L 216.003906 38.734375 Z M 218.75 33.628906 " fill-opacity="1" fill-rule="nonzero"/></g><path fill="#00b258" d="M 2.585938 20.003906 L 222.84375 20.003906 L 222.84375 20.515625 L 2.585938 20.515625 Z M 2.585938 20.003906 " fill-opacity="1" fill-rule="nonzero"/><g clip-path="url(#fed2f6d9b6)"><g clip-path="url(#a5da1bd987)"><g transform="matrix(1, 0, 0, 1, 53, 26)"><g clip-path="url(#6339ef3414)"><g clip-path="url(#b4e4cea00b)"><g clip-path="url(#e1ed10bfa6)"><rect x="-114.545" width="402.84" fill="#007dc5" height="57.239999" y="-34.745" fill-opacity="1"/></g></g></g></g></g></g></svg>