<svg xmlns="http://www.w3.org/2000/svg" xmlns:xlink="http://www.w3.org/1999/xlink" width="365" zoomAndPan="magnify" viewBox="0 0 273.75 89.999999" height="120" preserveAspectRatio="xMidYMid meet" version="1.0"><defs><clipPath id="ac8b7ce699"><path d="M 223 0.0429688 L 254 0.0429688 L 254 40 L 223 40 Z M 223 0.0429688 " clip-rule="nonzero"/></clipPath><clipPath id="a8861dd2a4"><path d="M 226 51 L 269 51 L 269 89.957031 L 226 89.957031 Z M 226 51 " clip-rule="nonzero"/></clipPath><clipPath id="4ca3eab44e"><path d="M 24.179688 44.417969 L 24.535156 44.417969 L 24.535156 44.695312 L 24.179688 44.695312 Z M 24.179688 44.417969 " clip-rule="nonzero"/></clipPath><clipPath id="3533aab576"><path d="M 24.515625 44.585938 C 23.839844 44.882812 24.4375 44.433594 24.4375 44.433594 " clip-rule="nonzero"/></clipPath><clipPath id="1116de3f52"><path d="M 0.179688 0.417969 L 0.535156 0.417969 L 0.535156 0.695312 L 0.179688 0.695312 Z M 0.179688 0.417969 " clip-rule="nonzero"/></clipPath><clipPath id="c879530b9b"><path d="M 0.515625 0.585938 C -0.160156 0.882812 0.4375 0.433594 0.4375 0.433594 " clip-rule="nonzero"/></clipPath><clipPath id="ea9823e722"><rect x="0" width="1" y="0" height="1"/></clipPath></defs><path fill="#6e6e71" d="M 95.785156 77.640625 L 96.726562 77.640625 C 96.726562 81 96.726562 84.367188 96.726562 87.726562 C 96.488281 87.726562 96.023438 87.726562 95.785156 87.726562 C 95.785156 84.367188 95.785156 81 95.785156 77.640625 " fill-opacity="1" fill-rule="nonzero"/><path fill="#27b2bc" d="M 108.402344 84.414062 C 108.738281 83.195312 109.261719 82.179688 109.988281 81.367188 C 110.8125 80.472656 111.777344 80.03125 112.875 80.03125 C 113.792969 80.03125 114.519531 80.351562 115.070312 80.984375 C 115.523438 81.523438 115.761719 82.191406 115.761719 82.980469 L 115.761719 83.292969 C 115.761719 83.996094 115.546875 84.535156 115.117188 84.917969 C 114.746094 85.25 114.257812 85.417969 113.664062 85.417969 L 108.675781 85.417969 C 108.261719 85.417969 107.902344 85.335938 107.59375 85.167969 C 107.496094 85.992188 107.140625 86.625 106.519531 87.089844 C 105.96875 87.507812 105.277344 87.710938 104.457031 87.710938 C 103.40625 87.710938 102.59375 87.34375 102.023438 86.601562 C 101.582031 86.027344 101.355469 85.359375 101.355469 84.570312 C 101.355469 83.890625 101.523438 83.316406 101.855469 82.828125 L 102.859375 82.609375 C 102.5 83.183594 102.320312 83.792969 102.320312 84.464844 C 102.320312 85.132812 102.523438 85.695312 102.953125 86.125 C 103.347656 86.53125 103.847656 86.734375 104.457031 86.734375 C 105.160156 86.734375 105.707031 86.53125 106.089844 86.113281 C 106.410156 85.765625 106.566406 85.3125 106.566406 84.761719 L 106.566406 81.535156 L 107.605469 80.984375 L 107.605469 83.234375 C 107.605469 83.914062 107.867188 84.296875 108.390625 84.402344 Z M 114.734375 83.195312 L 114.734375 82.980469 C 114.734375 82.347656 114.546875 81.859375 114.152344 81.488281 C 113.816406 81.164062 113.398438 81.011719 112.898438 81.011719 C 112.039062 81.011719 111.265625 81.40625 110.585938 82.179688 C 110.0625 82.789062 109.667969 83.554688 109.394531 84.464844 L 113.613281 84.464844 C 114.367188 84.464844 114.734375 84.042969 114.734375 83.207031 Z M 112.851562 78.726562 C 112.457031 78.726562 112.253906 78.523438 112.253906 78.128906 C 112.253906 77.738281 112.457031 77.535156 112.851562 77.535156 C 113.246094 77.535156 113.4375 77.738281 113.4375 78.128906 C 113.4375 78.523438 113.246094 78.726562 112.851562 78.726562 Z M 112.851562 78.726562 " fill-opacity="1" fill-rule="nonzero"/><path fill="#27b2bc" d="M 119.792969 85.429688 C 119.089844 85.429688 118.550781 85.203125 118.183594 84.75 C 117.859375 84.367188 117.707031 83.878906 117.707031 83.28125 L 117.707031 78.203125 L 118.742188 77.652344 L 118.742188 83.257812 C 118.742188 84.058594 119.136719 84.464844 119.921875 84.464844 L 120.722656 84.464844 L 120.722656 85.441406 L 119.804688 85.441406 Z M 119.792969 85.429688 " fill-opacity="1" fill-rule="nonzero"/><path fill="#27b2bc" d="M 119.984375 85.429688 L 119.984375 84.449219 L 120.78125 84.449219 C 121.570312 84.449219 121.964844 84.042969 121.964844 83.246094 L 121.964844 80.746094 L 123 80.199219 L 123 83.292969 C 123 83.972656 122.796875 84.511719 122.378906 84.90625 C 122 85.261719 121.511719 85.429688 120.902344 85.429688 Z M 120.617188 87.832031 C 120.222656 87.832031 120.019531 87.628906 120.019531 87.222656 C 120.019531 86.816406 120.222656 86.625 120.617188 86.625 C 121.007812 86.625 121.1875 86.828125 121.1875 87.222656 C 121.1875 87.617188 120.996094 87.832031 120.617188 87.832031 Z M 122.152344 87.832031 C 121.761719 87.832031 121.558594 87.628906 121.558594 87.222656 C 121.558594 86.816406 121.761719 86.625 122.152344 86.625 C 122.546875 86.625 122.726562 86.828125 122.726562 87.222656 C 122.726562 87.617188 122.535156 87.832031 122.152344 87.832031 Z M 122.152344 87.832031 " fill-opacity="1" fill-rule="nonzero"/><path fill="#27b2bc" d="M 128.890625 84.449219 L 129.691406 84.449219 L 129.691406 85.429688 L 128.773438 85.429688 C 128.367188 85.429688 128.007812 85.347656 127.710938 85.191406 C 127.640625 85.992188 127.367188 86.625 126.875 87.101562 C 126.433594 87.535156 125.886719 87.75 125.21875 87.75 C 124.742188 87.75 124.265625 87.628906 123.8125 87.390625 L 123.8125 86.480469 C 124.21875 86.710938 124.632812 86.816406 125.039062 86.816406 C 125.550781 86.816406 125.957031 86.636719 126.246094 86.304688 C 126.53125 85.957031 126.671875 85.480469 126.671875 84.871094 L 126.671875 80.746094 L 127.710938 80.199219 L 127.710938 83.496094 C 127.78125 84.140625 128.175781 84.464844 128.878906 84.464844 Z M 128.890625 84.449219 " fill-opacity="1" fill-rule="nonzero"/><path fill="#27b2bc" d="M 128.976562 85.429688 L 128.976562 84.449219 L 129.621094 84.449219 C 130.453125 84.449219 130.871094 84.007812 130.871094 83.136719 L 130.871094 78.203125 L 131.921875 77.652344 L 131.921875 83.160156 C 131.921875 83.878906 131.707031 84.4375 131.277344 84.855469 C 130.871094 85.238281 130.347656 85.441406 129.703125 85.441406 L 128.976562 85.441406 Z M 128.976562 85.429688 " fill-opacity="1" fill-rule="nonzero"/><path fill="#27b2bc" d="M 134.078125 85.429688 L 134.078125 78.203125 L 135.117188 77.652344 L 135.117188 85.441406 L 134.078125 85.441406 Z M 134.078125 85.429688 " fill-opacity="1" fill-rule="nonzero"/><path fill="#27b2bc" d="M 59.042969 85.429688 L 59.042969 77.808594 C 59.746094 77.699219 60.402344 77.652344 60.996094 77.652344 C 62.847656 77.652344 63.765625 78.429688 63.765625 79.996094 C 63.765625 81.011719 63.347656 81.726562 62.511719 82.144531 L 64.027344 85.441406 L 62.894531 85.441406 L 61.523438 82.421875 C 61.414062 82.433594 61.261719 82.445312 61.070312 82.445312 C 60.785156 82.445312 60.484375 82.421875 60.164062 82.359375 L 60.164062 85.441406 L 59.042969 85.441406 Z M 60.164062 78.621094 L 60.164062 81.441406 C 60.484375 81.5 60.785156 81.523438 61.070312 81.523438 C 62.082031 81.523438 62.585938 81.011719 62.585938 79.984375 C 62.585938 79.015625 62.070312 78.535156 61.058594 78.535156 C 60.6875 78.535156 60.390625 78.5625 60.164062 78.621094 Z M 60.164062 78.621094 " fill-opacity="1" fill-rule="nonzero"/><path fill="#27b2bc" d="M 65.207031 78.261719 C 65.207031 78.09375 65.265625 77.953125 65.386719 77.832031 C 65.507812 77.710938 65.648438 77.652344 65.816406 77.652344 C 65.984375 77.652344 66.125 77.710938 66.257812 77.832031 C 66.375 77.953125 66.449219 78.09375 66.449219 78.261719 C 66.449219 78.429688 66.386719 78.585938 66.269531 78.703125 C 66.148438 78.824219 65.996094 78.882812 65.828125 78.882812 C 65.660156 78.882812 65.507812 78.824219 65.386719 78.703125 C 65.265625 78.585938 65.207031 78.429688 65.207031 78.261719 Z M 66.328125 79.945312 L 66.328125 85.429688 L 65.292969 85.429688 L 65.292969 79.945312 Z M 66.328125 79.945312 " fill-opacity="1" fill-rule="nonzero"/><path fill="#27b2bc" d="M 72.792969 79.945312 L 70.441406 86.242188 C 70.0625 87.234375 69.5625 87.726562 68.917969 87.726562 C 68.488281 87.726562 68.035156 87.546875 67.570312 87.210938 L 67.878906 86.683594 C 68.152344 86.839844 68.390625 86.925781 68.59375 86.925781 C 68.964844 86.925781 69.261719 86.660156 69.476562 86.125 L 69.75 85.417969 L 69.535156 85.417969 L 67.484375 79.933594 L 68.558594 79.933594 L 70.109375 84.285156 L 71.707031 79.933594 L 72.792969 79.933594 Z M 72.792969 79.945312 " fill-opacity="1" fill-rule="nonzero"/><path fill="#27b2bc" d="M 77.933594 85.429688 L 77.121094 85.429688 L 77.003906 84.871094 C 76.574219 85.347656 75.976562 85.585938 75.25 85.585938 C 74.6875 85.585938 74.246094 85.429688 73.914062 85.121094 C 73.589844 84.808594 73.425781 84.390625 73.425781 83.855469 C 73.425781 83.257812 73.675781 82.789062 74.164062 82.457031 C 74.652344 82.121094 75.355469 81.964844 76.261719 81.964844 L 76.90625 81.964844 L 76.90625 81.90625 C 76.90625 81.070312 76.488281 80.652344 75.644531 80.652344 C 75.105469 80.652344 74.605469 80.820312 74.140625 81.164062 L 73.832031 80.617188 C 74.460938 80.078125 75.179688 79.804688 75.988281 79.804688 C 77.289062 79.804688 77.945312 80.578125 77.945312 82.132812 L 77.945312 85.429688 Z M 76.894531 82.660156 L 76.371094 82.660156 C 75.128906 82.660156 74.511719 83.03125 74.511719 83.769531 C 74.511719 84.082031 74.605469 84.320312 74.785156 84.5 C 74.964844 84.679688 75.214844 84.761719 75.511719 84.761719 C 75.808594 84.761719 76.109375 84.679688 76.371094 84.523438 C 76.632812 84.367188 76.8125 84.164062 76.894531 83.925781 Z M 76.894531 82.660156 " fill-opacity="1" fill-rule="nonzero"/><path fill="#27b2bc" d="M 83.679688 85.429688 L 83.527344 84.84375 C 83.167969 85.324219 82.621094 85.574219 81.902344 85.574219 C 81.09375 85.574219 80.449219 85.277344 79.984375 84.679688 C 79.589844 84.175781 79.398438 83.554688 79.398438 82.789062 C 79.398438 81.796875 79.6875 81.023438 80.269531 80.472656 C 80.734375 80.019531 81.308594 79.792969 81.964844 79.792969 C 82.570312 79.792969 83.074219 79.984375 83.453125 80.363281 L 83.453125 78.226562 L 84.492188 77.652344 L 84.492188 85.417969 L 83.679688 85.417969 Z M 83.453125 83.699219 L 83.453125 81.523438 C 83.394531 81.273438 83.238281 81.058594 82.976562 80.867188 C 82.714844 80.6875 82.441406 80.59375 82.140625 80.59375 C 81.652344 80.59375 81.261719 80.78125 80.949219 81.175781 C 80.640625 81.570312 80.496094 82.0625 80.496094 82.671875 C 80.496094 83.363281 80.652344 83.902344 80.972656 84.273438 C 81.261719 84.59375 81.617188 84.75 82.058594 84.75 C 82.371094 84.75 82.65625 84.640625 82.917969 84.4375 C 83.179688 84.234375 83.371094 83.984375 83.453125 83.6875 Z M 83.453125 83.699219 " fill-opacity="1" fill-rule="nonzero"/><path fill="#27b2bc" d="M 87.402344 77.640625 L 87.402344 80.542969 C 87.855469 80.042969 88.414062 79.792969 89.09375 79.792969 C 90.429688 79.792969 91.109375 80.578125 91.109375 82.15625 L 91.109375 85.417969 L 90.074219 85.417969 L 90.074219 82.21875 C 90.074219 81.1875 89.621094 80.6875 88.726562 80.6875 C 88.476562 80.6875 88.226562 80.746094 87.960938 80.867188 C 87.699219 80.984375 87.519531 81.128906 87.390625 81.296875 L 87.390625 85.40625 L 86.351562 85.40625 L 86.351562 78.179688 L 87.390625 77.628906 Z M 87.402344 77.640625 " fill-opacity="1" fill-rule="nonzero"/><path fill="#6d6f70" d="M 14.703125 46.492188 L 16.503906 46.492188 L 16.503906 48.90625 L 14.464844 48.90625 C 14.011719 48.90625 13.59375 48.847656 13.210938 48.726562 C 12.960938 50.007812 12.316406 51.007812 11.277344 51.75 C 10.347656 52.394531 9.214844 52.707031 7.890625 52.707031 C 6.089844 52.707031 4.707031 52.074219 3.71875 50.804688 C 2.941406 49.816406 2.5625 48.65625 2.5625 47.328125 C 2.5625 46.277344 2.8125 45.359375 3.300781 44.570312 L 5.699219 44.066406 C 5.160156 44.976562 4.898438 45.933594 4.898438 46.921875 C 4.898438 47.914062 5.183594 48.75 5.757812 49.386719 C 6.304688 49.980469 7.007812 50.28125 7.890625 50.28125 C 8.773438 50.28125 9.527344 50.042969 10.039062 49.585938 C 10.550781 49.121094 10.800781 48.464844 10.800781 47.628906 L 10.800781 41.355469 L 13.316406 40.042969 L 13.316406 45.058594 C 13.316406 45.585938 13.425781 45.957031 13.640625 46.171875 C 13.855469 46.386719 14.210938 46.503906 14.714844 46.503906 Z M 7.738281 40.171875 C 7.34375 40.171875 7.019531 40.054688 6.78125 39.816406 C 6.542969 39.574219 6.425781 39.253906 6.425781 38.835938 C 6.425781 38.453125 6.542969 38.128906 6.78125 37.890625 C 7.019531 37.652344 7.34375 37.53125 7.738281 37.53125 C 8.128906 37.53125 8.453125 37.652344 8.679688 37.878906 C 8.90625 38.105469 9.023438 38.429688 9.023438 38.824219 C 9.023438 39.71875 8.59375 40.160156 7.726562 40.160156 Z M 7.738281 40.171875 " fill-opacity="1" fill-rule="nonzero"/><path fill="#6d6f70" d="M 15.296875 46.492188 L 18.816406 46.492188 L 18.816406 48.90625 L 15.296875 48.90625 Z M 15.296875 46.492188 " fill-opacity="1" fill-rule="nonzero"/><path fill="#6d6f70" d="M 17.613281 46.492188 L 21.128906 46.492188 L 21.128906 48.90625 L 17.613281 48.90625 Z M 17.613281 46.492188 " fill-opacity="1" fill-rule="nonzero"/><path fill="#6d6f70" d="M 23.121094 43.386719 C 23.121094 42.191406 23.492188 41.25 24.242188 40.566406 C 24.898438 39.980469 25.734375 39.683594 26.757812 39.683594 C 28.070312 39.683594 29.097656 40.171875 29.835938 41.140625 C 30.457031 41.953125 30.777344 43.003906 30.777344 44.28125 C 30.777344 45.765625 30.382812 46.921875 29.597656 47.785156 C 28.894531 48.523438 28 48.90625 26.902344 48.90625 C 25.804688 48.90625 24.96875 48.667969 24.289062 48.203125 C 23.644531 48.667969 22.882812 48.90625 21.976562 48.90625 L 19.9375 48.90625 L 19.9375 46.492188 L 21.738281 46.492188 C 22.238281 46.492188 22.597656 46.386719 22.8125 46.160156 C 23.027344 45.945312 23.132812 45.574219 23.132812 45.046875 L 23.132812 43.386719 Z M 25.636719 45.371094 C 25.636719 46.109375 26.03125 46.492188 26.820312 46.492188 C 27.808594 46.492188 28.296875 45.730469 28.296875 44.210938 C 28.296875 42.695312 27.785156 42.035156 26.757812 42.035156 C 26.019531 42.035156 25.636719 42.480469 25.636719 43.351562 Z M 25.636719 45.371094 " fill-opacity="1" fill-rule="nonzero"/><path fill="#6d6f70" d="M 41.738281 37.351562 L 44.253906 36.015625 L 44.253906 44.75 C 44.253906 46.039062 43.859375 47.078125 43.074219 47.84375 C 42.347656 48.546875 41.378906 48.90625 40.175781 48.90625 L 32.648438 48.90625 L 33.902344 46.492188 L 36.539062 46.492188 L 36.539062 39.957031 L 39.054688 38.621094 L 39.054688 46.492188 L 40.03125 46.492188 C 40.640625 46.492188 41.082031 46.363281 41.34375 46.097656 C 41.605469 45.835938 41.738281 45.382812 41.738281 44.738281 Z M 40.019531 36.195312 L 39.375 37.351562 L 35.667969 37.351562 L 36.3125 36.195312 L 36.90625 36.195312 C 36.765625 35.933594 36.691406 35.65625 36.691406 35.371094 C 36.691406 34.941406 36.847656 34.582031 37.15625 34.269531 C 37.46875 33.960938 37.851562 33.816406 38.292969 33.816406 C 38.683594 33.816406 39.066406 33.960938 39.414062 34.234375 L 39.414062 35.394531 C 39.089844 35.121094 38.769531 34.976562 38.457031 34.976562 C 38.015625 34.976562 37.800781 35.179688 37.800781 35.574219 C 37.800781 35.777344 37.886719 35.980469 38.066406 36.195312 L 40.042969 36.195312 Z M 40.019531 36.195312 " fill-opacity="1" fill-rule="nonzero"/><path fill="#6d6f70" d="M 47.832031 48.90625 L 47.832031 37.351562 L 50.347656 36.015625 L 50.347656 48.90625 Z M 47.832031 48.90625 " fill-opacity="1" fill-rule="nonzero"/><path fill="#6d6f70" d="M 69.761719 43.433594 C 68.808594 42.550781 67.890625 42.121094 67.007812 42.121094 C 66.589844 42.121094 66.257812 42.238281 65.996094 42.46875 C 65.734375 42.707031 65.601562 43.015625 65.601562 43.398438 C 65.601562 43.875 65.757812 44.246094 66.066406 44.523438 C 66.375 44.785156 66.996094 45.082031 67.925781 45.417969 C 68.855469 45.730469 69.511719 46.027344 69.882812 46.339844 C 70.480469 46.828125 70.777344 47.519531 70.777344 48.394531 C 70.777344 49.765625 70.144531 50.855469 68.882812 51.65625 C 67.746094 52.359375 66.304688 52.71875 64.527344 52.71875 C 62.320312 52.71875 60.652344 52.085938 59.542969 50.820312 C 58.71875 49.875 58.300781 48.714844 58.300781 47.339844 C 58.300781 46.289062 58.554688 45.371094 59.042969 44.582031 L 61.4375 44.078125 C 60.902344 44.988281 60.640625 45.945312 60.640625 46.933594 C 60.640625 47.988281 60.972656 48.8125 61.640625 49.398438 C 62.308594 49.992188 63.277344 50.292969 64.539062 50.292969 C 65.804688 50.292969 66.78125 50.089844 67.449219 49.695312 C 68.011719 49.347656 68.285156 48.90625 68.285156 48.382812 C 68.285156 48.105469 68.164062 47.867188 67.9375 47.6875 C 67.710938 47.507812 67.234375 47.292969 66.507812 47.042969 C 65.351562 46.636719 64.550781 46.207031 64.109375 45.765625 C 63.515625 45.167969 63.214844 44.367188 63.214844 43.386719 C 63.214844 42.214844 63.621094 41.296875 64.433594 40.652344 C 65.039062 40.148438 65.757812 39.886719 66.566406 39.886719 C 67.925781 39.886719 68.976562 40.363281 69.738281 41.308594 L 69.738281 43.445312 Z M 69.761719 43.433594 " fill-opacity="1" fill-rule="nonzero"/><path fill="#6d6f70" d="M 83.261719 46.492188 L 83.261719 48.90625 L 80.808594 48.90625 C 80.710938 50.101562 80.1875 51.070312 79.207031 51.785156 C 78.410156 52.371094 77.480469 52.671875 76.417969 52.671875 C 75.582031 52.671875 74.761719 52.445312 73.960938 51.988281 L 73.960938 49.816406 C 74.675781 50.234375 75.40625 50.4375 76.121094 50.4375 C 76.679688 50.4375 77.167969 50.28125 77.609375 49.980469 C 78.050781 49.683594 78.277344 49.3125 78.3125 48.882812 C 78.207031 48.871094 78.039062 48.859375 77.8125 48.847656 C 77.585938 48.824219 77.417969 48.800781 77.300781 48.789062 C 75.929688 48.644531 74.867188 48.105469 74.128906 47.164062 C 73.507812 46.375 73.1875 45.417969 73.1875 44.308594 C 73.1875 42.835938 73.578125 41.679688 74.378906 40.832031 C 75.082031 40.089844 76.011719 39.707031 77.167969 39.707031 C 78.328125 39.707031 79.28125 40.089844 79.949219 40.84375 C 80.519531 41.5 80.808594 42.347656 80.808594 43.398438 L 80.808594 46.492188 Z M 78.3125 43.351562 C 78.3125 42.46875 77.933594 42.035156 77.179688 42.035156 C 76.167969 42.035156 75.667969 42.765625 75.667969 44.210938 C 75.667969 45.5 76.25 46.21875 77.417969 46.375 C 77.609375 46.410156 77.910156 46.445312 78.3125 46.46875 Z M 78.3125 43.351562 " fill-opacity="1" fill-rule="nonzero"/><path fill="#6d6f70" d="M 82.070312 46.492188 L 85.589844 46.492188 L 85.589844 48.90625 L 82.070312 48.90625 Z M 82.070312 46.492188 " fill-opacity="1" fill-rule="nonzero"/><path fill="#6d6f70" d="M 84.382812 48.90625 L 84.382812 46.492188 L 87.582031 46.492188 C 87.1875 45.90625 86.984375 45.179688 86.984375 44.296875 C 86.984375 42.824219 87.378906 41.667969 88.175781 40.816406 C 88.894531 40.078125 89.835938 39.695312 90.992188 39.695312 C 92.148438 39.695312 93.089844 40.078125 93.746094 40.832031 C 94.332031 41.488281 94.628906 42.335938 94.628906 43.386719 L 94.628906 45.191406 C 94.617188 46.339844 94.269531 47.246094 93.617188 47.914062 C 92.960938 48.585938 92.078125 48.917969 90.957031 48.917969 L 84.398438 48.917969 Z M 89.476562 38.273438 C 89.082031 38.273438 88.761719 38.152344 88.523438 37.914062 C 88.285156 37.675781 88.164062 37.351562 88.164062 36.933594 C 88.164062 36.074219 88.605469 35.632812 89.476562 35.632812 C 89.871094 35.632812 90.191406 35.753906 90.417969 35.980469 C 90.644531 36.207031 90.765625 36.527344 90.765625 36.921875 C 90.765625 37.820312 90.335938 38.261719 89.464844 38.261719 Z M 92.113281 43.351562 C 92.113281 42.46875 91.742188 42.035156 90.992188 42.035156 C 89.964844 42.035156 89.453125 42.765625 89.453125 44.210938 C 89.453125 45.65625 89.941406 46.492188 90.933594 46.492188 C 91.71875 46.492188 92.113281 46.0625 92.113281 45.214844 Z M 92.542969 38.273438 C 92.148438 38.273438 91.828125 38.152344 91.585938 37.914062 C 91.347656 37.675781 91.230469 37.351562 91.230469 36.933594 C 91.230469 36.074219 91.671875 35.632812 92.542969 35.632812 C 92.933594 35.632812 93.257812 35.753906 93.484375 35.980469 C 93.710938 36.21875 93.828125 36.527344 93.828125 36.921875 C 93.828125 37.820312 93.402344 38.261719 92.53125 38.261719 Z M 92.542969 38.273438 " fill-opacity="1" fill-rule="nonzero"/><path fill="#6d6f70" d="M 114.832031 48.90625 C 114.675781 50.136719 113.984375 51.09375 112.757812 51.785156 C 111.648438 52.394531 110.277344 52.707031 108.628906 52.707031 C 106.421875 52.707031 104.753906 52.074219 103.644531 50.804688 C 102.820312 49.863281 102.40625 48.703125 102.40625 47.328125 C 102.40625 46.277344 102.65625 45.359375 103.144531 44.570312 L 105.542969 44.066406 C 105.003906 44.976562 104.742188 45.933594 104.742188 46.921875 C 104.742188 48.046875 105.074219 48.90625 105.742188 49.503906 C 106.410156 50.113281 107.378906 50.425781 108.640625 50.425781 C 110.609375 50.425781 111.800781 49.921875 112.230469 48.90625 L 110.3125 48.90625 L 111.5625 46.492188 L 114.890625 46.492188 L 114.890625 48.90625 Z M 114.832031 48.90625 " fill-opacity="1" fill-rule="nonzero"/><path fill="#6d6f70" d="M 123.394531 46.492188 L 126.542969 46.492188 L 126.542969 48.90625 L 121.808594 48.90625 C 121.128906 48.90625 120.601562 48.859375 120.210938 48.761719 C 119.792969 48.859375 119.269531 48.90625 118.613281 48.90625 L 113.867188 48.90625 L 113.867188 46.492188 L 117.015625 46.492188 C 116.511719 45.679688 116.25 44.855469 116.25 44.007812 C 116.25 42.671875 116.644531 41.605469 117.429688 40.792969 C 118.136719 40.066406 119.066406 39.695312 120.210938 39.695312 C 121.511719 39.695312 122.523438 40.171875 123.238281 41.117188 C 123.835938 41.894531 124.132812 42.863281 124.132812 44.019531 C 124.132812 44.855469 123.882812 45.679688 123.371094 46.503906 Z M 120.199219 46.265625 C 120.652344 46.050781 121.019531 45.730469 121.308594 45.273438 C 121.59375 44.832031 121.738281 44.355469 121.738281 43.863281 C 121.738281 43.292969 121.59375 42.835938 121.332031 42.515625 C 121.070312 42.191406 120.6875 42.023438 120.222656 42.023438 C 119.207031 42.023438 118.707031 42.632812 118.707031 43.839844 C 118.707031 44.367188 118.851562 44.84375 119.125 45.285156 C 119.398438 45.730469 119.769531 46.050781 120.199219 46.253906 Z M 120.199219 38.273438 C 119.804688 38.273438 119.484375 38.152344 119.242188 37.914062 C 119.003906 37.675781 118.886719 37.351562 118.886719 36.933594 C 118.886719 36.554688 119.003906 36.230469 119.242188 35.992188 C 119.484375 35.753906 119.804688 35.632812 120.199219 35.632812 C 120.589844 35.632812 120.914062 35.753906 121.140625 35.980469 C 121.367188 36.207031 121.484375 36.527344 121.484375 36.921875 C 121.484375 37.820312 121.058594 38.261719 120.1875 38.261719 Z M 120.199219 38.273438 " fill-opacity="1" fill-rule="nonzero"/><path fill="#6d6f70" d="M 125.351562 48.90625 L 125.351562 46.492188 L 127.460938 46.492188 C 127.960938 46.492188 128.332031 46.386719 128.546875 46.160156 C 128.761719 45.933594 128.878906 45.574219 128.878906 45.046875 L 128.878906 42.40625 L 131.394531 41.09375 L 131.394531 45.046875 C 131.394531 45.574219 131.503906 45.945312 131.71875 46.160156 C 131.933594 46.375 132.289062 46.492188 132.792969 46.492188 L 134.152344 46.492188 C 134.652344 46.492188 135.011719 46.386719 135.222656 46.160156 C 135.4375 45.945312 135.546875 45.574219 135.546875 45.046875 L 135.546875 41.894531 L 138.0625 40.554688 L 138.0625 45.046875 C 138.0625 45.574219 138.171875 45.945312 138.398438 46.160156 C 138.613281 46.375 138.980469 46.492188 139.480469 46.492188 L 140.839844 46.492188 C 141.34375 46.492188 141.699219 46.386719 141.914062 46.160156 C 142.128906 45.945312 142.238281 45.574219 142.238281 45.046875 L 142.238281 41.34375 L 144.753906 40.03125 L 144.753906 44.726562 C 144.753906 45.371094 144.882812 45.824219 145.148438 46.085938 C 145.410156 46.351562 145.839844 46.480469 146.457031 46.480469 L 148.296875 46.480469 L 148.296875 48.894531 L 146.316406 48.894531 C 145.195312 48.894531 144.300781 48.574219 143.621094 47.9375 C 143.023438 48.558594 142.214844 48.882812 141.210938 48.894531 L 139.230469 48.894531 C 138.242188 48.894531 137.441406 48.597656 136.824219 48.011719 C 136.25 48.585938 135.488281 48.882812 134.542969 48.894531 L 132.566406 48.894531 C 131.574219 48.894531 130.777344 48.597656 130.15625 48.011719 C 129.535156 48.597656 128.726562 48.894531 127.746094 48.894531 L 125.375 48.894531 Z M 135.164062 38.273438 C 134.769531 38.273438 134.449219 38.152344 134.210938 37.914062 C 133.972656 37.675781 133.851562 37.351562 133.851562 36.933594 C 133.851562 36.554688 133.972656 36.230469 134.210938 35.992188 C 134.449219 35.753906 134.769531 35.632812 135.164062 35.632812 C 135.558594 35.632812 135.878906 35.753906 136.105469 35.980469 C 136.332031 36.21875 136.453125 36.527344 136.453125 36.921875 C 136.453125 37.820312 136.023438 38.261719 135.152344 38.261719 Z M 136.679688 35.335938 C 135.878906 35.335938 135.488281 34.929688 135.488281 34.117188 C 135.488281 33.304688 135.878906 32.933594 136.679688 32.933594 C 137.480469 32.933594 137.859375 33.328125 137.859375 34.117188 C 137.859375 34.902344 137.464844 35.335938 136.679688 35.335938 Z M 138.242188 38.273438 C 137.847656 38.273438 137.527344 38.152344 137.289062 37.914062 C 137.050781 37.675781 136.929688 37.351562 136.929688 36.933594 C 136.929688 36.554688 137.050781 36.230469 137.289062 35.992188 C 137.527344 35.753906 137.847656 35.632812 138.242188 35.632812 C 138.636719 35.632812 138.957031 35.753906 139.183594 35.980469 C 139.410156 36.207031 139.53125 36.527344 139.53125 36.921875 C 139.53125 37.820312 139.101562 38.261719 138.230469 38.261719 Z M 138.242188 38.273438 " fill-opacity="1" fill-rule="nonzero"/><path fill="#6d6f70" d="M 154.1875 46.492188 L 155.988281 46.492188 L 155.988281 48.90625 L 153.949219 48.90625 C 152.980469 48.90625 152.171875 48.644531 151.539062 48.128906 C 150.894531 48.644531 150.097656 48.90625 149.128906 48.90625 L 147.089844 48.90625 L 147.089844 46.492188 L 148.890625 46.492188 C 149.390625 46.492188 149.75 46.386719 149.964844 46.160156 C 150.179688 45.945312 150.285156 45.574219 150.285156 45.046875 L 150.285156 41.34375 L 152.804688 40.03125 L 152.804688 45.046875 C 152.804688 45.574219 152.910156 45.945312 153.125 46.160156 C 153.339844 46.375 153.699219 46.492188 154.199219 46.492188 Z M 148.976562 38.273438 C 148.582031 38.273438 148.257812 38.152344 148.019531 37.914062 C 147.78125 37.675781 147.664062 37.351562 147.664062 36.933594 C 147.664062 36.554688 147.78125 36.230469 148.019531 35.992188 C 148.257812 35.753906 148.582031 35.632812 148.976562 35.632812 C 149.367188 35.632812 149.691406 35.753906 149.917969 35.980469 C 150.144531 36.21875 150.261719 36.527344 150.261719 36.921875 C 150.261719 37.820312 149.832031 38.261719 148.964844 38.261719 Z M 152.027344 38.273438 C 151.632812 38.273438 151.3125 38.152344 151.074219 37.902344 C 150.835938 37.652344 150.714844 37.328125 150.714844 36.933594 C 150.714844 36.542969 150.835938 36.230469 151.085938 35.992188 C 151.335938 35.753906 151.648438 35.632812 152.027344 35.632812 C 152.410156 35.632812 152.742188 35.753906 152.96875 35.980469 C 153.195312 36.207031 153.316406 36.527344 153.316406 36.921875 C 153.316406 37.820312 152.886719 38.261719 152.015625 38.261719 Z M 152.027344 38.273438 " fill-opacity="1" fill-rule="nonzero"/><path fill="#6d6f70" d="M 154.78125 48.90625 L 154.78125 46.492188 L 156.894531 46.492188 C 157.394531 46.492188 157.765625 46.386719 157.980469 46.160156 C 158.195312 45.933594 158.3125 45.574219 158.3125 45.046875 L 158.3125 42.40625 L 160.828125 41.09375 L 160.828125 45.046875 C 160.828125 45.574219 160.9375 45.945312 161.152344 46.160156 C 161.367188 46.375 161.722656 46.492188 162.226562 46.492188 L 163.585938 46.492188 C 164.085938 46.492188 164.441406 46.386719 164.65625 46.160156 C 164.871094 45.945312 164.980469 45.574219 164.980469 45.046875 L 164.980469 41.894531 L 167.496094 40.554688 L 167.496094 45.046875 C 167.496094 45.574219 167.601562 45.945312 167.828125 46.160156 C 168.042969 46.375 168.414062 46.492188 168.914062 46.492188 L 170.273438 46.492188 C 170.777344 46.492188 171.132812 46.386719 171.347656 46.160156 C 171.5625 45.945312 171.671875 45.574219 171.671875 45.046875 L 171.671875 41.34375 L 174.1875 40.03125 L 174.1875 44.726562 C 174.1875 45.371094 174.316406 45.824219 174.578125 46.085938 C 174.84375 46.351562 175.273438 46.480469 175.890625 46.480469 L 177.726562 46.480469 L 177.726562 48.894531 L 175.75 48.894531 C 174.628906 48.894531 173.734375 48.574219 173.054688 47.9375 C 172.457031 48.558594 171.644531 48.882812 170.644531 48.894531 L 168.664062 48.894531 C 167.675781 48.894531 166.875 48.597656 166.253906 48.011719 C 165.683594 48.585938 164.921875 48.882812 163.976562 48.894531 L 162 48.894531 C 161.007812 48.894531 160.210938 48.597656 159.589844 48.011719 C 158.96875 48.597656 158.15625 48.894531 157.179688 48.894531 L 154.808594 48.894531 Z M 154.78125 48.90625 " fill-opacity="1" fill-rule="nonzero"/><path fill="#6d6f70" d="M 179.707031 43.386719 C 179.707031 42.191406 180.078125 41.25 180.828125 40.566406 C 181.484375 39.980469 182.320312 39.683594 183.34375 39.683594 C 184.65625 39.683594 185.683594 40.171875 186.421875 41.140625 C 187.042969 41.953125 187.363281 43.003906 187.363281 44.28125 C 187.363281 45.765625 186.972656 46.921875 186.183594 47.785156 C 185.480469 48.523438 184.585938 48.90625 183.488281 48.90625 C 182.390625 48.90625 181.554688 48.667969 180.875 48.203125 C 180.234375 48.667969 179.46875 48.90625 178.5625 48.90625 L 176.523438 48.90625 L 176.523438 46.492188 L 178.324219 46.492188 C 178.824219 46.492188 179.183594 46.386719 179.398438 46.160156 C 179.613281 45.945312 179.71875 45.574219 179.71875 45.046875 L 179.71875 43.386719 Z M 182.222656 45.371094 C 182.222656 46.109375 182.617188 46.492188 183.40625 46.492188 C 184.394531 46.492188 184.882812 45.730469 184.882812 44.210938 C 184.882812 42.695312 184.371094 42.035156 183.34375 42.035156 C 182.605469 42.035156 182.222656 42.480469 182.222656 43.351562 Z M 182.222656 45.371094 " fill-opacity="1" fill-rule="nonzero"/><path fill="#6d6f70" d="M 9.539062 63.066406 C 9.359375 63.339844 9.074219 63.746094 8.691406 64.296875 C 7.878906 63.9375 7.152344 63.757812 6.519531 63.757812 C 5.6875 63.757812 5.257812 64.070312 5.257812 64.703125 C 5.257812 64.988281 5.351562 65.203125 5.542969 65.371094 C 5.734375 65.539062 6.140625 65.730469 6.746094 65.96875 C 7.84375 66.398438 8.632812 66.851562 9.109375 67.355469 C 9.585938 67.855469 9.824219 68.453125 9.824219 69.144531 C 9.824219 70.125 9.453125 70.890625 8.714844 71.429688 C 8.105469 71.871094 7.355469 72.085938 6.449219 72.085938 C 5.386719 72.085938 4.253906 71.703125 3.050781 70.925781 L 3.933594 69.695312 C 4.515625 70.089844 5.269531 70.292969 6.199219 70.292969 C 7.234375 70.292969 7.761719 69.875 7.761719 69.027344 C 7.761719 68.476562 7.199219 68.011719 6.078125 67.628906 C 4.265625 67.019531 3.359375 66.050781 3.359375 64.714844 C 3.359375 63.902344 3.660156 63.257812 4.265625 62.777344 C 4.839844 62.324219 5.589844 62.097656 6.53125 62.097656 C 7.605469 62.097656 8.609375 62.417969 9.539062 63.066406 Z M 9.539062 63.066406 " fill-opacity="1" fill-rule="nonzero"/><path fill="#6d6f70" d="M 11.480469 62.277344 L 17.765625 62.277344 L 17.765625 63.878906 L 13.472656 63.878906 L 13.472656 66.148438 L 17.050781 66.148438 L 17.050781 67.75 L 13.472656 67.75 L 13.472656 70.316406 L 17.96875 70.316406 L 17.96875 71.917969 L 11.492188 71.917969 L 11.492188 62.289062 Z M 11.480469 62.277344 " fill-opacity="1" fill-rule="nonzero"/><path fill="#6d6f70" d="M 26.269531 70.820312 C 25.421875 71.65625 24.445312 72.085938 23.3125 72.085938 C 21.679688 72.085938 20.472656 71.476562 19.675781 70.257812 C 19.101562 69.386719 18.804688 68.359375 18.804688 67.1875 C 18.804688 65.65625 19.199219 64.425781 19.984375 63.496094 C 20.761719 62.5625 21.84375 62.097656 23.230469 62.097656 C 24.195312 62.097656 25.171875 62.503906 26.136719 63.328125 L 25.363281 64.59375 C 24.636719 64.070312 23.96875 63.804688 23.371094 63.804688 C 22.535156 63.804688 21.90625 64.152344 21.441406 64.855469 C 21.046875 65.453125 20.84375 66.230469 20.84375 67.199219 C 20.84375 68.046875 21.082031 68.777344 21.535156 69.386719 C 22.035156 70.03125 22.691406 70.339844 23.527344 70.339844 C 24.074219 70.339844 24.71875 70.101562 25.472656 69.625 L 26.246094 70.832031 Z M 26.269531 70.820312 " fill-opacity="1" fill-rule="nonzero"/><path fill="#6d6f70" d="M 35.5 67.855469 C 35.5 70.675781 34.261719 72.085938 31.792969 72.085938 C 29.324219 72.085938 28.082031 70.675781 28.082031 67.855469 L 28.082031 62.277344 L 30.085938 62.277344 L 30.085938 68.128906 C 30.085938 69.648438 30.660156 70.414062 31.792969 70.414062 C 32.925781 70.414062 33.519531 69.648438 33.519531 68.128906 L 33.519531 62.277344 L 35.488281 62.277344 L 35.488281 67.855469 Z M 35.5 67.855469 " fill-opacity="1" fill-rule="nonzero"/><path fill="#6d6f70" d="M 37.921875 71.90625 L 37.921875 62.300781 C 38.066406 62.265625 38.457031 62.226562 39.113281 62.179688 C 39.769531 62.132812 40.269531 62.109375 40.617188 62.109375 C 43.0625 62.109375 44.289062 63.113281 44.289062 65.121094 C 44.289062 66.207031 43.847656 67.128906 42.964844 67.890625 C 43.335938 68.738281 43.957031 70.078125 44.839844 71.917969 L 42.835938 71.917969 C 42.332031 70.832031 41.796875 69.671875 41.226562 68.417969 C 41.117188 68.441406 40.960938 68.453125 40.773438 68.453125 C 40.332031 68.453125 40.03125 68.417969 39.902344 68.332031 L 39.902344 71.917969 L 37.910156 71.917969 Z M 39.914062 63.792969 L 39.914062 66.695312 C 40.210938 66.792969 40.546875 66.828125 40.902344 66.828125 C 41.773438 66.828125 42.203125 66.253906 42.203125 65.097656 C 42.203125 64.152344 41.75 63.6875 40.855469 63.6875 C 40.34375 63.6875 40.019531 63.722656 39.914062 63.792969 Z M 39.914062 63.792969 " fill-opacity="1" fill-rule="nonzero"/><path fill="#6d6f70" d="M 45.898438 62.277344 L 47.855469 62.277344 L 47.855469 71.90625 L 45.898438 71.90625 Z M 45.898438 62.277344 " fill-opacity="1" fill-rule="nonzero"/><path fill="#6d6f70" d="M 52.078125 63.867188 L 49.296875 63.867188 L 49.296875 62.265625 L 57.074219 62.265625 L 57.074219 63.867188 L 54.082031 63.867188 L 54.082031 71.894531 L 52.078125 71.894531 Z M 52.078125 63.867188 " fill-opacity="1" fill-rule="nonzero"/><path fill="#6d6f70" d="M 57.371094 62.277344 L 59.507812 62.277344 C 60.210938 63.722656 60.9375 65.15625 61.664062 66.589844 L 63.777344 62.277344 L 65.910156 62.277344 L 62.644531 68.105469 L 62.644531 71.90625 L 60.652344 71.90625 L 60.652344 68.105469 C 59.496094 66.074219 58.398438 64.140625 57.359375 62.277344 Z M 57.371094 62.277344 " fill-opacity="1" fill-rule="nonzero"/><path fill="#6d6f70" d="M 70.609375 71.90625 L 70.609375 62.277344 L 76.894531 62.277344 L 76.894531 63.878906 L 72.601562 63.878906 L 72.601562 66.160156 L 76.179688 66.160156 L 76.179688 67.761719 L 72.601562 67.761719 L 72.601562 71.90625 Z M 70.609375 71.90625 " fill-opacity="1" fill-rule="nonzero"/><path fill="#6d6f70" d="M 82.082031 62.097656 C 83.5625 62.097656 84.695312 62.683594 85.492188 63.867188 C 86.125 64.785156 86.4375 65.910156 86.4375 67.210938 C 86.4375 68.714844 86.03125 69.910156 85.207031 70.820312 C 84.433594 71.667969 83.382812 72.097656 82.082031 72.097656 C 80.582031 72.097656 79.449219 71.546875 78.671875 70.460938 C 78.039062 69.601562 77.730469 68.523438 77.730469 67.222656 C 77.730469 65.707031 78.136719 64.460938 78.957031 63.496094 C 79.734375 62.574219 80.78125 62.109375 82.082031 62.109375 Z M 82.082031 70.414062 C 82.808594 70.414062 83.371094 70.136719 83.765625 69.589844 C 84.15625 69.039062 84.359375 68.238281 84.359375 67.210938 C 84.359375 66.113281 84.144531 65.238281 83.703125 64.628906 C 83.300781 64.082031 82.761719 63.804688 82.082031 63.804688 C 81.355469 63.804688 80.796875 64.105469 80.390625 64.703125 C 79.984375 65.300781 79.792969 66.136719 79.792969 67.210938 C 79.792969 69.347656 80.554688 70.425781 82.082031 70.425781 Z M 82.082031 70.414062 " fill-opacity="1" fill-rule="nonzero"/><path fill="#6d6f70" d="M 88.261719 71.90625 L 88.261719 62.300781 C 88.402344 62.265625 88.796875 62.226562 89.453125 62.179688 C 90.109375 62.132812 90.609375 62.109375 90.957031 62.109375 C 93.402344 62.109375 94.628906 63.113281 94.628906 65.121094 C 94.628906 66.207031 94.1875 67.128906 93.304688 67.890625 C 93.675781 68.738281 94.296875 70.078125 95.175781 71.917969 L 93.175781 71.917969 C 92.671875 70.832031 92.136719 69.671875 91.5625 68.417969 C 91.457031 68.441406 91.300781 68.453125 91.109375 68.453125 C 90.667969 68.453125 90.371094 68.417969 90.238281 68.332031 L 90.238281 71.917969 L 88.25 71.917969 Z M 90.253906 63.792969 L 90.253906 66.695312 C 90.550781 66.792969 90.882812 66.828125 91.242188 66.828125 C 92.113281 66.828125 92.542969 66.253906 92.542969 65.097656 C 92.542969 64.152344 92.089844 63.6875 91.195312 63.6875 C 90.679688 63.6875 90.359375 63.722656 90.253906 63.792969 Z M 90.253906 63.792969 " fill-opacity="1" fill-rule="nonzero"/><path fill="#6d6f70" d="M 103.097656 70.820312 C 102.25 71.65625 101.273438 72.085938 100.140625 72.085938 C 98.503906 72.085938 97.300781 71.476562 96.5 70.257812 C 95.929688 69.386719 95.628906 68.359375 95.628906 67.1875 C 95.628906 65.65625 96.023438 64.425781 96.8125 63.496094 C 97.585938 62.5625 98.671875 62.097656 100.054688 62.097656 C 101.019531 62.097656 102 62.503906 102.964844 63.328125 L 102.191406 64.59375 C 101.460938 64.070312 100.792969 63.804688 100.199219 63.804688 C 99.363281 63.804688 98.730469 64.152344 98.265625 64.855469 C 97.871094 65.453125 97.671875 66.230469 97.671875 67.199219 C 97.671875 68.046875 97.910156 68.777344 98.363281 69.386719 C 98.863281 70.03125 99.519531 70.339844 100.351562 70.339844 C 100.902344 70.339844 101.546875 70.101562 102.296875 69.625 L 103.074219 70.832031 Z M 103.097656 70.820312 " fill-opacity="1" fill-rule="nonzero"/><path fill="#6d6f70" d="M 104.671875 62.277344 L 110.957031 62.277344 L 110.957031 63.878906 L 106.664062 63.878906 L 106.664062 66.148438 L 110.238281 66.148438 L 110.238281 67.75 L 106.664062 67.75 L 106.664062 70.316406 L 111.15625 70.316406 L 111.15625 71.917969 L 104.683594 71.917969 L 104.683594 62.289062 Z M 104.671875 62.277344 " fill-opacity="1" fill-rule="nonzero"/><path fill="#6d6f70" d="M 118.539062 63.066406 C 118.363281 63.339844 118.074219 63.746094 117.695312 64.296875 C 116.882812 63.9375 116.15625 63.757812 115.523438 63.757812 C 114.6875 63.757812 114.257812 64.070312 114.257812 64.703125 C 114.257812 64.988281 114.355469 65.203125 114.546875 65.371094 C 114.734375 65.539062 115.140625 65.730469 115.75 65.96875 C 116.847656 66.398438 117.632812 66.851562 118.109375 67.355469 C 118.589844 67.855469 118.828125 68.453125 118.828125 69.144531 C 118.828125 70.125 118.457031 70.890625 117.71875 71.429688 C 117.109375 71.871094 116.359375 72.085938 115.453125 72.085938 C 114.390625 72.085938 113.257812 71.703125 112.050781 70.925781 L 112.933594 69.695312 C 113.519531 70.089844 114.269531 70.292969 115.199219 70.292969 C 116.238281 70.292969 116.761719 69.875 116.761719 69.027344 C 116.761719 68.476562 116.203125 68.011719 115.082031 67.628906 C 113.269531 67.019531 112.363281 66.050781 112.363281 64.714844 C 112.363281 63.902344 112.660156 63.257812 113.269531 62.777344 C 113.839844 62.324219 114.59375 62.097656 115.535156 62.097656 C 116.609375 62.097656 117.609375 62.417969 118.539062 63.066406 Z M 118.539062 63.066406 " fill-opacity="1" fill-rule="nonzero"/><path fill="#6d6f70" d="M 126.328125 71.90625 L 124.371094 71.90625 L 124.371094 62.277344 L 126.328125 62.277344 L 126.328125 66.136719 L 130.453125 66.136719 L 130.453125 62.277344 L 132.445312 62.277344 L 132.445312 71.90625 L 130.453125 71.90625 L 130.453125 67.738281 L 126.328125 67.738281 Z M 126.328125 71.90625 " fill-opacity="1" fill-rule="nonzero"/><path fill="#6d6f70" d="M 138.625 62.097656 C 140.101562 62.097656 141.234375 62.683594 142.035156 63.867188 C 142.667969 64.785156 142.976562 65.910156 142.976562 67.210938 C 142.976562 68.714844 142.570312 69.910156 141.75 70.820312 C 140.972656 71.667969 139.921875 72.097656 138.625 72.097656 C 137.121094 72.097656 135.988281 71.546875 135.210938 70.460938 C 134.582031 69.601562 134.269531 68.523438 134.269531 67.222656 C 134.269531 65.707031 134.675781 64.460938 135.5 63.496094 C 136.273438 62.574219 137.324219 62.109375 138.625 62.109375 Z M 138.625 70.414062 C 139.351562 70.414062 139.910156 70.136719 140.304688 69.589844 C 140.699219 69.039062 140.902344 68.238281 140.902344 67.210938 C 140.902344 66.113281 140.6875 65.238281 140.246094 64.628906 C 139.839844 64.082031 139.304688 63.804688 138.625 63.804688 C 137.894531 63.804688 137.335938 64.105469 136.929688 64.703125 C 136.523438 65.300781 136.332031 66.136719 136.332031 67.210938 C 136.332031 69.347656 137.097656 70.425781 138.625 70.425781 Z M 138.625 70.414062 " fill-opacity="1" fill-rule="nonzero"/><path fill="#6d6f70" d="M 150.753906 63.066406 C 150.574219 63.339844 150.285156 63.746094 149.90625 64.296875 C 149.09375 63.9375 148.367188 63.757812 147.734375 63.757812 C 146.898438 63.757812 146.472656 64.070312 146.472656 64.703125 C 146.472656 64.988281 146.566406 65.203125 146.757812 65.371094 C 146.949219 65.539062 147.351562 65.730469 147.960938 65.96875 C 149.058594 66.398438 149.847656 66.851562 150.324219 67.355469 C 150.800781 67.855469 151.039062 68.453125 151.039062 69.144531 C 151.039062 70.125 150.667969 70.890625 149.929688 71.429688 C 149.320312 71.871094 148.570312 72.085938 147.664062 72.085938 C 146.601562 72.085938 145.46875 71.703125 144.265625 70.925781 L 145.148438 69.695312 C 145.730469 70.089844 146.484375 70.292969 147.414062 70.292969 C 148.449219 70.292969 148.976562 69.875 148.976562 69.027344 C 148.976562 68.476562 148.414062 68.011719 147.292969 67.628906 C 145.480469 67.019531 144.574219 66.050781 144.574219 64.714844 C 144.574219 63.902344 144.871094 63.257812 145.480469 62.777344 C 146.054688 62.324219 146.804688 62.097656 147.746094 62.097656 C 148.820312 62.097656 149.820312 62.417969 150.753906 63.066406 Z M 150.753906 63.066406 " fill-opacity="1" fill-rule="nonzero"/><path fill="#6d6f70" d="M 152.933594 71.90625 L 152.933594 62.300781 C 153.078125 62.265625 153.472656 62.226562 154.128906 62.179688 C 154.78125 62.132812 155.285156 62.109375 155.628906 62.109375 C 158.074219 62.109375 159.304688 63.113281 159.304688 65.121094 C 159.304688 66.363281 158.875 67.28125 158.027344 67.855469 C 157.453125 68.25 156.785156 68.453125 156.023438 68.453125 C 155.414062 68.453125 155.046875 68.417969 154.914062 68.332031 L 154.914062 71.917969 L 152.921875 71.917969 Z M 154.925781 63.792969 L 154.925781 66.695312 C 155.1875 66.792969 155.523438 66.851562 155.914062 66.851562 C 156.308594 66.851562 156.644531 66.707031 156.871094 66.421875 C 157.109375 66.136719 157.214844 65.730469 157.214844 65.226562 C 157.214844 64.199219 156.761719 63.6875 155.867188 63.6875 C 155.355469 63.6875 155.035156 63.722656 154.925781 63.792969 Z M 154.925781 63.792969 " fill-opacity="1" fill-rule="nonzero"/><path fill="#6d6f70" d="M 161.140625 62.277344 L 163.09375 62.277344 L 163.09375 71.90625 L 161.140625 71.90625 Z M 161.140625 62.277344 " fill-opacity="1" fill-rule="nonzero"/><path fill="#6d6f70" d="M 167.316406 63.867188 L 164.539062 63.867188 L 164.539062 62.265625 L 172.3125 62.265625 L 172.3125 63.867188 L 169.320312 63.867188 L 169.320312 71.894531 L 167.316406 71.894531 Z M 167.316406 63.867188 " fill-opacity="1" fill-rule="nonzero"/><path fill="#6d6f70" d="M 175.308594 62.277344 L 176.976562 62.277344 L 180.507812 71.90625 L 178.492188 71.90625 C 178.324219 71.402344 178.109375 70.734375 177.847656 69.898438 L 174.402344 69.898438 C 174.257812 70.351562 174.042969 71.023438 173.746094 71.90625 L 171.753906 71.90625 L 175.296875 62.277344 Z M 176.167969 64.878906 C 175.878906 65.679688 175.5 66.804688 174.996094 68.261719 L 177.300781 68.261719 C 176.820312 66.863281 176.441406 65.742188 176.167969 64.878906 Z M 176.167969 64.878906 " fill-opacity="1" fill-rule="nonzero"/><path fill="#6d6f70" d="M 181.808594 71.90625 L 181.808594 62.277344 L 183.796875 62.277344 L 183.796875 70.304688 L 187.398438 70.304688 L 187.398438 71.90625 Z M 181.808594 71.90625 " fill-opacity="1" fill-rule="nonzero"/><path fill="#bf9f6a" d="M 2.046875 56.074219 L 187.9375 56.074219 L 187.9375 57.210938 L 2.046875 57.210938 Z M 2.046875 56.074219 " fill-opacity="1" fill-rule="nonzero"/><g clip-path="url(#ac8b7ce699)"><path fill="#bf9d68" d="M 234.6875 11.390625 C 234.914062 13.734375 237.429688 15.464844 239.695312 14.890625 C 241.304688 14.546875 242.484375 13.171875 242.890625 11.617188 C 242.4375 12.226562 242.054688 12.910156 241.414062 13.339844 C 239.828125 14.449219 237.394531 13.636719 236.726562 11.84375 C 235.925781 10.027344 237.273438 7.746094 239.21875 7.507812 C 240.269531 7.28125 241.199219 7.890625 242.082031 8.34375 C 241.199219 7.28125 239.851562 6.613281 238.453125 6.730469 C 236.175781 6.839844 234.292969 9.121094 234.6875 11.390625 M 238.40625 0.0429688 C 238.921875 1.796875 239.492188 3.53125 240.304688 5.179688 C 241.269531 4.140625 242.34375 3.050781 243.785156 2.753906 C 246.003906 2.191406 248.328125 3.21875 249.773438 4.902344 C 247.433594 4.140625 244.597656 4.59375 243.011719 6.601562 C 245.242188 6.0625 247.6875 6.171875 249.699219 7.339844 C 251.574219 8.34375 252.910156 10.28125 253.074219 12.417969 C 252.410156 11.691406 251.835938 10.867188 251.011719 10.304688 C 249.261719 9.0625 247.019531 8.632812 244.894531 8.894531 C 246.886719 9.382812 248.769531 10.398438 250.117188 11.964844 C 252.183594 14.292969 252.683594 17.796875 251.644531 20.699219 C 251.441406 18.761719 251.035156 16.78125 249.914062 15.144531 C 248.769531 13.398438 246.980469 12.058594 244.941406 11.582031 C 246.777344 13.277344 248.292969 15.429688 248.84375 17.902344 C 249.425781 20.496094 249.117188 23.316406 247.816406 25.65625 C 247.949219 23.171875 247.925781 20.566406 246.742188 18.308594 C 246.113281 17.042969 245.230469 15.90625 244.144531 15 C 245.203125 17.542969 245.707031 20.375 245.085938 23.101562 C 244.65625 25.058594 243.75 26.921875 242.367188 28.378906 C 243.023438 25.871094 243.390625 23.183594 242.710938 20.640625 C 242.378906 19.347656 241.617188 18.175781 240.578125 17.339844 C 239.839844 24.785156 239.195312 32.226562 238.417969 39.671875 C 237.691406 32.226562 237.011719 24.785156 236.296875 17.339844 C 234.902344 18.453125 234.101562 20.160156 233.910156 21.917969 C 233.601562 24.089844 233.945312 26.300781 234.53125 28.40625 C 232.039062 25.789062 231.074219 21.929688 231.71875 18.40625 C 231.90625 17.234375 232.347656 16.121094 232.753906 15.011719 C 230.894531 16.550781 229.628906 18.773438 229.222656 21.152344 C 228.9375 22.644531 229.046875 24.164062 229.070312 25.667969 C 227.507812 22.824219 227.351562 19.277344 228.582031 16.277344 C 229.285156 14.449219 230.558594 12.933594 231.957031 11.59375 C 229.414062 12.179688 227.304688 14.089844 226.265625 16.457031 C 225.648438 17.796875 225.433594 19.265625 225.242188 20.710938 C 224.488281 18.582031 224.574219 16.171875 225.433594 14.089844 C 226.589844 11.414062 229.1875 9.539062 231.992188 8.941406 C 229.878906 8.621094 227.636719 9.097656 225.875 10.316406 C 225.050781 10.878906 224.476562 11.703125 223.832031 12.441406 C 223.953125 10.027344 225.660156 7.949219 227.828125 7.03125 C 229.714844 6.144531 231.871094 6.132812 233.863281 6.625 C 232.277344 4.59375 229.4375 4.164062 227.101562 4.914062 C 228.4375 3.410156 230.441406 2.394531 232.492188 2.667969 C 234.160156 2.8125 235.53125 3.925781 236.523438 5.203125 C 237.429688 3.613281 237.988281 1.84375 238.417969 0.0664062 " fill-opacity="1" fill-rule="nonzero"/></g><path fill="#bf9d68" d="M 213.125 35.046875 C 219.015625 33.804688 225.230469 34.761719 230.703125 37.175781 C 235.234375 39.167969 239.242188 42.15625 242.988281 45.359375 C 242.070312 46.195312 241.113281 47.007812 240.21875 47.867188 C 236.535156 44.890625 232.765625 41.941406 228.4375 39.933594 C 224.15625 37.914062 219.46875 36.578125 214.710938 36.671875 C 211.480469 36.730469 208.304688 37.378906 205.167969 38.082031 C 207.542969 36.457031 210.34375 35.621094 213.136719 35.046875 " fill-opacity="1" fill-rule="nonzero"/><path fill="#bf9d68" d="M 249.105469 36.050781 C 254.28125 34.332031 259.921875 33.984375 265.214844 35.371094 C 267.445312 35.945312 269.6875 36.683594 271.609375 38 C 268.984375 37.53125 266.386719 36.898438 263.714844 36.746094 C 258.707031 36.324219 253.683594 37.554688 249.140625 39.613281 C 246.503906 40.769531 244.082031 42.335938 241.699219 43.925781 C 240.707031 43.089844 239.683594 42.3125 238.65625 41.523438 C 241.949219 39.359375 245.335938 37.234375 249.117188 36.039062 " fill-opacity="1" fill-rule="nonzero"/><path fill="#bf9d68" d="M 214.386719 39.96875 C 215.640625 39.753906 216.894531 39.636719 218.15625 39.585938 C 218.300781 40.640625 218.429688 41.691406 218.5625 42.742188 C 217.273438 42.695312 215.988281 42.800781 214.710938 42.957031 C 214.601562 41.964844 214.484375 40.960938 214.386719 39.96875 " fill-opacity="1" fill-rule="nonzero"/><path fill="#bf9d68" d="M 255.066406 43.230469 C 254.972656 44.1875 254.863281 45.132812 254.746094 46.074219 C 258.324219 46.148438 261.902344 46.074219 265.480469 46.109375 C 265.609375 45.144531 265.695312 44.164062 265.765625 43.195312 C 262.257812 42.429688 258.574219 42.359375 255.078125 43.230469 M 246.480469 43.207031 C 250.34375 40.84375 254.875 39.457031 259.421875 39.636719 C 262.949219 39.777344 266.492188 40.722656 269.511719 42.574219 C 269.234375 44.738281 268.792969 49.074219 268.792969 49.074219 L 250.785156 49.074219 C 250.785156 49.074219 251.121094 46.125 251.261719 44.640625 C 246.265625 47.210938 242.222656 51.238281 238.515625 55.394531 C 236.726562 53.496094 232.8125 50.03125 232.8125 50.03125 L 236.226562 47.820312 C 236.226562 47.820312 237.761719 49.324219 238.515625 50.101562 C 240.898438 47.519531 243.429688 45.011719 246.46875 43.21875 " fill-opacity="1" fill-rule="nonzero"/><path fill="#bf9d68" d="M 221.710938 39.804688 C 225.921875 40.183594 229.738281 42.324219 232.96875 44.941406 C 231.800781 45.71875 230.609375 46.457031 229.4375 47.222656 C 228.246094 46.265625 227.007812 45.382812 225.632812 44.6875 C 225.753906 46.148438 226.050781 49.074219 226.050781 49.074219 L 208.175781 49.074219 C 208.175781 49.074219 207.769531 44.714844 207.507812 42.585938 C 208.582031 41.871094 209.773438 41.378906 210.964844 40.914062 C 211.15625 42.644531 211.300781 44.378906 211.492188 46.097656 C 215.117188 46.074219 218.742188 46.125 222.367188 46.074219 C 222.117188 43.984375 221.9375 41.882812 221.710938 39.789062 " fill-opacity="1" fill-rule="nonzero"/><path fill="#bf9d68" d="M 228.796875 47.964844 C 230.835938 46.683594 234.867188 44.042969 234.867188 44.042969 L 237.917969 46.410156 C 237.917969 46.410156 234.269531 48.800781 232.445312 49.992188 C 232.730469 52.539062 232.992188 55.082031 233.277344 57.628906 C 234.996094 58.691406 236.703125 59.765625 238.429688 60.820312 C 240.160156 59.753906 241.878906 58.691406 243.617188 57.628906 C 243.882812 55.371094 244.097656 53.101562 244.359375 50.84375 C 244.214844 50.722656 243.917969 50.484375 243.773438 50.363281 C 244.726562 49.539062 245.632812 48.644531 246.683594 47.9375 C 247.160156 48.191406 247.578125 48.535156 248.007812 48.871094 C 247.601562 52.429688 247.257812 56.003906 246.851562 59.5625 C 244.035156 61.296875 241.246094 63.066406 238.429688 64.808594 C 235.617188 63.078125 232.851562 61.285156 230.023438 59.574219 C 229.582031 55.703125 229.164062 51.835938 228.796875 47.949219 " fill-opacity="1" fill-rule="nonzero"/><path fill="#2bb1b9" d="M 208.332031 51.429688 C 214.328125 51.441406 220.316406 51.390625 226.3125 51.453125 C 226.421875 52.644531 226.578125 53.828125 226.707031 55.023438 C 221.972656 55.023438 217.238281 55.023438 212.503906 55.023438 C 213.003906 60.148438 213.554688 65.273438 214.03125 70.414062 C 216.558594 72.0625 219.125 73.625 221.675781 75.238281 C 222.296875 74.246094 222.914062 73.257812 223.511719 72.253906 C 221.449219 70.949219 219.375 69.683594 217.335938 68.34375 C 217.058594 65.070312 216.667969 61.796875 216.414062 58.523438 C 219.980469 58.546875 223.535156 58.523438 227.101562 58.523438 C 227.207031 59.71875 227.304688 60.914062 227.433594 62.109375 C 229.046875 63.066406 230.621094 64.082031 232.230469 65.035156 C 231.632812 66.085938 230.988281 67.101562 230.320312 68.117188 C 228.425781 66.898438 226.492188 65.71875 224.585938 64.523438 C 223.667969 64.070312 224.035156 62.824219 223.820312 61.988281 C 222.640625 61.988281 221.460938 61.988281 220.28125 61.988281 C 220.433594 63.304688 220.53125 64.628906 220.722656 65.945312 C 220.722656 66.363281 221.175781 66.492188 221.449219 66.707031 C 223.796875 68.128906 228.460938 71.046875 228.460938 71.046875 L 222.832031 80.1875 L 210.597656 72.585938 C 210.597656 72.585938 209.082031 58.332031 208.332031 51.402344 Z M 208.332031 51.429688 " fill-opacity="1" fill-rule="nonzero"/><g clip-path="url(#a8861dd2a4)"><path fill="#2bb1b9" d="M 234.03125 74.535156 C 235.496094 75.492188 236.988281 76.398438 238.46875 77.34375 C 239.921875 76.375 241.496094 75.5625 242.867188 74.5 C 242.484375 73.410156 241.949219 72.382812 241.496094 71.320312 C 240.480469 71.941406 239.480469 72.574219 238.46875 73.195312 C 237.441406 72.5625 236.425781 71.941406 235.402344 71.320312 C 234.925781 72.382812 234.484375 73.460938 234.019531 74.523438 M 253.816406 55.035156 C 253.625 56.910156 253.433594 58.800781 253.242188 60.675781 C 254.351562 61.378906 255.449219 62.109375 256.59375 62.753906 C 256.855469 60.183594 257.105469 57.605469 257.371094 55.035156 C 256.1875 55.035156 254.996094 55.035156 253.816406 55.035156 M 250.632812 51.429688 L 268.589844 51.429688 C 268.589844 51.429688 266.289062 72.597656 266.289062 72.597656 C 266.289062 72.597656 247.746094 84.1875 238.441406 89.945312 C 234.519531 87.507812 230.609375 85.046875 226.671875 82.636719 C 227.113281 81.488281 227.601562 80.375 228.101562 79.253906 C 231.550781 81.429688 235.007812 83.566406 238.46875 85.730469 C 240.910156 84.222656 243.332031 82.695312 245.765625 81.175781 C 245.300781 80.089844 244.824219 79.015625 244.382812 77.925781 C 242.367188 79.097656 240.433594 80.402344 238.441406 81.609375 C 235.460938 79.71875 232.457031 77.855469 229.488281 75.945312 C 230.917969 72.648438 232.347656 69.335938 233.746094 66.027344 C 235.332031 66.972656 236.894531 67.976562 238.453125 68.941406 C 240.042969 67.988281 241.578125 66.972656 243.175781 66.027344 C 245.039062 70.4375 246.957031 74.820312 248.78125 79.230469 C 253.527344 76.351562 258.191406 73.363281 262.890625 70.414062 C 263.390625 65.273438 263.953125 60.136719 264.429688 55 C 263.261719 55 262.09375 55.011719 260.921875 55 C 260.421875 59.457031 260.050781 63.925781 259.550781 68.382812 C 256.210938 66.277344 252.847656 64.199219 249.5 62.109375 C 249.867188 58.535156 250.261719 54.976562 250.632812 51.414062 " fill-opacity="1" fill-rule="nonzero"/></g><path fill="#2bb1b9" d="M 244.703125 65.082031 C 245.632812 64.488281 246.578125 63.914062 247.507812 63.328125 C 248.460938 64.105469 249.414062 64.894531 250.332031 65.707031 C 249.152344 66.480469 247.9375 67.210938 246.742188 67.964844 C 246.0625 67.007812 245.382812 66.039062 244.703125 65.097656 " fill-opacity="1" fill-rule="nonzero"/><path fill="#2bb1b9" d="M 248.792969 70.878906 C 250.25 69.910156 251.742188 69.015625 253.21875 68.070312 C 254.210938 68.871094 255.1875 69.695312 256.164062 70.519531 C 254.421875 71.621094 252.671875 72.71875 250.917969 73.804688 C 250.203125 72.839844 249.511719 71.835938 248.792969 70.878906 " fill-opacity="1" fill-rule="nonzero"/><g clip-path="url(#4ca3eab44e)"><g clip-path="url(#3533aab576)"><g transform="matrix(1, 0, 0, 1, 24, 44)"><g clip-path="url(#ea9823e722)"><g clip-path="url(#1116de3f52)"><g clip-path="url(#c879530b9b)"><rect x="-84.225" width="394.2" fill="#6d6f70" height="129.599999" y="-63.8" fill-opacity="1"/></g></g></g></g></g></g></svg>