<svg xmlns="http://www.w3.org/2000/svg" xmlns:xlink="http://www.w3.org/1999/xlink" width="369" zoomAndPan="magnify" viewBox="0 0 276.75 26.249999" height="35" preserveAspectRatio="xMidYMid meet" version="1.0"><defs><clipPath id="3c53e79aa8"><path d="M 266 17 L 272 17 L 272 24.792969 L 266 24.792969 Z M 266 17 " clip-rule="nonzero"/></clipPath><clipPath id="9fcf48cb7b"><path d="M 25.320312 15.15625 L 25.664062 15.15625 L 25.664062 15.429688 L 25.320312 15.429688 Z M 25.320312 15.15625 " clip-rule="nonzero"/></clipPath><clipPath id="447bd65f62"><path d="M 25.644531 15.320312 C 24.988281 15.609375 25.574219 15.171875 25.574219 15.171875 " clip-rule="nonzero"/></clipPath><clipPath id="39456dc004"><path d="M 0.320312 0.167969 L 0.65625 0.167969 L 0.65625 0.429688 L 0.320312 0.429688 Z M 0.320312 0.167969 " clip-rule="nonzero"/></clipPath><clipPath id="9b4f553028"><path d="M 0.644531 0.320312 C -0.0117188 0.609375 0.574219 0.171875 0.574219 0.171875 " clip-rule="nonzero"/></clipPath><clipPath id="6c50fc567d"><rect x="0" width="1" y="0" height="1"/></clipPath></defs><path fill="#000000" d="M 19.527344 22.421875 C 14.53125 22.765625 8.734375 21.761719 5.011719 18.207031 C 4.976562 18.171875 4.976562 18.140625 5.019531 18.113281 L 8.078125 15.917969 C 8.117188 15.894531 8.148438 15.894531 8.179688 15.925781 C 11.140625 18.734375 15.988281 19.414062 19.875 18.945312 C 21.523438 18.746094 24.160156 18.050781 24.328125 16.015625 C 24.496094 14.03125 22.488281 13.496094 20.949219 13.257812 C 19.667969 13.0625 18.230469 12.957031 16.863281 12.875 C 15.308594 12.785156 13.796875 12.621094 12.328125 12.386719 C 11.671875 12.28125 10.984375 12.113281 10.273438 11.886719 C 9.402344 11.605469 8.640625 11.109375 7.984375 10.402344 C 6.972656 9.3125 6.625 7.804688 6.773438 6.335938 C 7.121094 2.886719 10.175781 1.238281 13.292969 0.738281 C 15.933594 0.316406 18.582031 0.355469 21.242188 0.855469 C 23.726562 1.324219 26.363281 2.421875 28.132812 4.25 C 28.160156 4.273438 28.15625 4.316406 28.132812 4.339844 C 28.128906 4.34375 28.125 4.347656 28.121094 4.347656 L 25.015625 6.21875 C 24.984375 6.238281 24.945312 6.234375 24.917969 6.214844 C 22.988281 4.757812 20.546875 4.042969 18.101562 3.890625 C 16.683594 3.804688 15.199219 3.855469 13.789062 4.140625 C 12.582031 4.390625 10.9375 5.054688 10.820312 6.460938 C 10.722656 7.625 11.511719 8.28125 12.558594 8.585938 C 13.121094 8.75 13.839844 8.886719 14.707031 9 C 17.195312 9.320312 19.929688 9.457031 22.316406 9.730469 C 22.808594 9.789062 23.339844 9.886719 23.921875 10.03125 C 25.054688 10.316406 25.972656 10.777344 26.777344 11.617188 C 27.683594 12.5625 28.167969 13.726562 28.242188 15.117188 C 28.507812 20.242188 23.847656 22.121094 19.527344 22.421875 Z M 19.527344 22.421875 " fill-opacity="1" fill-rule="nonzero"/><path fill="#000000" d="M 37.9375 12.648438 C 36.648438 12.519531 35.445312 12.304688 34.320312 11.992188 C 33.414062 11.742188 32.621094 11.289062 31.9375 10.636719 C 30.855469 9.597656 30.414062 8.207031 30.476562 6.722656 C 30.644531 2.785156 34.109375 1.105469 37.625 0.644531 C 40.011719 0.335938 42.394531 0.390625 44.773438 0.816406 C 45.984375 1.035156 47.164062 1.390625 48.316406 1.886719 C 49.636719 2.457031 50.941406 3.25 51.871094 4.265625 C 51.890625 4.285156 51.890625 4.316406 51.867188 4.335938 C 51.863281 4.339844 51.863281 4.339844 51.859375 4.34375 L 48.730469 6.226562 C 48.707031 6.238281 48.679688 6.238281 48.65625 6.222656 C 46.21875 4.367188 43.007812 3.757812 39.980469 3.863281 C 38.382812 3.917969 35.320312 4.195312 34.648438 6 C 34.445312 6.554688 34.507812 7.226562 34.863281 7.703125 C 35.28125 8.257812 36.007812 8.542969 36.683594 8.695312 C 37.316406 8.835938 37.933594 8.945312 38.542969 9.011719 C 40.566406 9.246094 42.535156 9.425781 44.460938 9.554688 C 44.714844 9.574219 45.300781 9.640625 46.214844 9.757812 C 47.054688 9.863281 48.074219 10.082031 48.820312 10.429688 C 50.449219 11.183594 51.460938 12.441406 51.855469 14.195312 C 51.972656 14.722656 52.007812 15.347656 51.957031 16.074219 C 51.667969 20.292969 47.625 21.964844 43.964844 22.355469 C 42.285156 22.535156 40.5 22.527344 38.621094 22.328125 C 35.035156 21.945312 31.363281 20.710938 28.730469 18.203125 C 28.710938 18.183594 28.710938 18.148438 28.730469 18.125 C 28.730469 18.121094 28.734375 18.121094 28.738281 18.117188 L 31.8125 15.914062 C 31.84375 15.894531 31.875 15.894531 31.902344 15.921875 C 34.90625 18.753906 39.773438 19.433594 43.742188 18.925781 C 45.152344 18.746094 46.773438 18.296875 47.617188 17.164062 C 48.152344 16.4375 48.242188 15.378906 47.71875 14.636719 C 47.175781 13.871094 46.195312 13.539062 45.269531 13.367188 C 44.292969 13.183594 43.238281 13.054688 42.109375 12.980469 C 40.613281 12.886719 39.222656 12.773438 37.9375 12.648438 Z M 37.9375 12.648438 " fill-opacity="1" fill-rule="nonzero"/><path fill="#000000" d="M 199.609375 1.34375 C 199.609375 1.570312 199.53125 1.765625 199.375 1.929688 C 199.21875 2.089844 199.027344 2.171875 198.804688 2.171875 C 198.578125 2.171875 198.386719 2.09375 198.230469 1.933594 C 198.070312 1.773438 197.992188 1.582031 197.988281 1.351562 C 197.988281 1.125 198.066406 0.929688 198.222656 0.769531 C 198.378906 0.609375 198.570312 0.527344 198.796875 0.527344 C 199.019531 0.523438 199.210938 0.605469 199.367188 0.765625 C 199.527344 0.925781 199.609375 1.117188 199.609375 1.34375 Z M 199.609375 1.34375 " fill-opacity="1" fill-rule="nonzero"/><path fill="#000000" d="M 228.003906 0.527344 C 228.230469 0.527344 228.421875 0.609375 228.578125 0.773438 C 228.734375 0.933594 228.8125 1.128906 228.808594 1.355469 C 228.808594 1.582031 228.726562 1.777344 228.566406 1.933594 C 228.40625 2.09375 228.214844 2.171875 227.992188 2.171875 C 227.765625 2.167969 227.578125 2.085938 227.417969 1.925781 C 227.261719 1.761719 227.183594 1.570312 227.1875 1.34375 C 227.1875 1.113281 227.269531 0.921875 227.429688 0.761719 C 227.589844 0.605469 227.78125 0.523438 228.003906 0.527344 Z M 228.003906 0.527344 " fill-opacity="1" fill-rule="nonzero"/><path fill="#000000" d="M 148.261719 5.519531 C 148.261719 5.582031 148.285156 5.589844 148.324219 5.539062 C 149.167969 4.523438 150.441406 3.882812 151.757812 4.03125 C 153.539062 4.230469 154.207031 5.632812 154.027344 7.257812 C 154.027344 7.28125 154.042969 7.308594 154.074219 7.3125 C 154.074219 7.3125 154.074219 7.3125 154.078125 7.3125 C 154.800781 7.335938 155.574219 7.414062 155.578125 6.429688 C 155.578125 4.507812 155.582031 2.574219 155.578125 0.636719 C 155.578125 0.609375 155.601562 0.585938 155.632812 0.585938 L 157.160156 0.585938 C 157.179688 0.585938 157.195312 0.601562 157.195312 0.621094 C 157.203125 2.742188 157.199219 4.78125 157.1875 6.738281 C 157.1875 7.015625 157.128906 7.304688 157.011719 7.609375 C 156.699219 8.414062 155.867188 8.703125 155.054688 8.703125 C 150.234375 8.710938 145.523438 8.714844 140.921875 8.707031 C 140.421875 8.707031 140.015625 8.53125 139.695312 8.1875 C 139.671875 8.164062 139.652344 8.164062 139.625 8.183594 C 139.039062 8.714844 138.09375 8.746094 137.3125 8.699219 C 136.820312 8.671875 136.445312 8.5 136.183594 8.191406 C 136.160156 8.164062 136.136719 8.164062 136.109375 8.1875 C 135.753906 8.480469 135.28125 8.648438 134.6875 8.6875 C 133.988281 8.730469 133.347656 8.722656 132.757812 8.664062 C 132.414062 8.628906 132.101562 8.527344 131.816406 8.351562 C 131.789062 8.335938 131.753906 8.332031 131.726562 8.347656 C 130.347656 8.980469 127.910156 8.625 127.753906 6.757812 C 127.617188 5.078125 128.941406 4.15625 130.511719 4.136719 C 131.277344 4.125 132.066406 4.125 132.886719 4.132812 C 132.898438 4.132812 132.910156 4.144531 132.910156 4.15625 C 132.910156 4.839844 132.910156 5.558594 132.90625 6.3125 C 132.90625 6.765625 132.898438 7.273438 133.507812 7.304688 C 133.828125 7.324219 134.125 7.320312 134.402344 7.289062 C 134.929688 7.238281 135.050781 6.832031 135.050781 6.386719 C 135.046875 5.640625 135.046875 4.910156 135.046875 4.191406 C 135.046875 4.148438 135.070312 4.128906 135.109375 4.128906 L 136.621094 4.128906 C 136.65625 4.128906 136.671875 4.148438 136.675781 4.183594 C 136.679688 4.839844 136.679688 5.542969 136.671875 6.289062 C 136.667969 6.796875 136.867188 7.21875 137.410156 7.296875 C 138.15625 7.402344 138.570312 7.199219 138.574219 6.394531 C 138.574219 5.644531 138.574219 4.90625 138.574219 4.183594 C 138.574219 4.148438 138.589844 4.128906 138.625 4.128906 L 140.132812 4.128906 C 140.171875 4.128906 140.191406 4.148438 140.191406 4.1875 C 140.1875 4.894531 140.1875 5.601562 140.191406 6.3125 C 140.195312 6.984375 140.527344 7.316406 141.191406 7.316406 C 142.996094 7.3125 144.800781 7.3125 146.613281 7.3125 C 146.636719 7.3125 146.644531 7.300781 146.644531 7.28125 L 146.644531 0.683594 C 146.648438 0.621094 146.679688 0.589844 146.742188 0.589844 L 148.199219 0.585938 C 148.242188 0.585938 148.261719 0.605469 148.261719 0.648438 Z M 151.429688 5.488281 C 150.21875 5.300781 149.050781 6.339844 148.332031 7.269531 C 148.320312 7.28125 148.324219 7.296875 148.335938 7.304688 C 148.339844 7.308594 148.34375 7.3125 148.351562 7.3125 L 152.394531 7.3125 C 152.410156 7.3125 152.425781 7.300781 152.429688 7.285156 C 152.550781 6.519531 152.300781 5.625 151.429688 5.488281 Z M 129.371094 6.265625 C 129.285156 7.277344 130.484375 7.253906 131.171875 7.101562 C 131.191406 7.097656 131.207031 7.082031 131.207031 7.058594 L 131.210938 5.59375 C 131.210938 5.550781 131.1875 5.53125 131.148438 5.527344 C 130.558594 5.5 129.441406 5.4375 129.371094 6.265625 Z M 129.371094 6.265625 " fill-opacity="1" fill-rule="nonzero"/><path fill="#000000" d="M 158.496094 0.585938 L 160.027344 0.585938 C 160.054688 0.585938 160.070312 0.601562 160.070312 0.628906 L 160.070312 8.667969 C 160.070312 8.695312 160.054688 8.707031 160.027344 8.707031 L 158.496094 8.707031 C 158.46875 8.707031 158.453125 8.695312 158.453125 8.667969 L 158.453125 0.628906 C 158.453125 0.601562 158.46875 0.585938 158.496094 0.585938 Z M 158.496094 0.585938 " fill-opacity="1" fill-rule="nonzero"/><path fill="#000000" d="M 166.734375 5.539062 C 167.730469 4.257812 169.589844 3.601562 171.082031 4.273438 C 172.75 5.023438 172.582031 7.226562 172.175781 8.679688 C 172.171875 8.699219 172.15625 8.707031 172.136719 8.707031 L 164.175781 8.707031 C 164.140625 8.707031 164.121094 8.691406 164.121094 8.65625 L 164.121094 7.382812 C 164.121094 7.34375 164.152344 7.3125 164.191406 7.3125 L 164.988281 7.3125 C 165.023438 7.3125 165.039062 7.292969 165.039062 7.257812 L 165.039062 0.621094 C 165.039062 0.601562 165.054688 0.585938 165.074219 0.585938 L 166.625 0.585938 C 166.652344 0.585938 166.671875 0.605469 166.671875 0.632812 L 166.671875 5.515625 C 166.671875 5.582031 166.691406 5.589844 166.734375 5.539062 Z M 169.46875 5.46875 C 168.410156 5.523438 167.414062 6.40625 166.71875 7.253906 C 166.6875 7.292969 166.695312 7.3125 166.746094 7.3125 L 170.777344 7.3125 C 170.816406 7.3125 170.835938 7.292969 170.839844 7.257812 C 170.941406 6.3125 170.574219 5.40625 169.46875 5.46875 Z M 169.46875 5.46875 " fill-opacity="1" fill-rule="nonzero"/><path fill="#000000" d="M 212.53125 7.308594 C 212.914062 7.320312 213.261719 7.316406 213.578125 7.296875 C 214.25 7.253906 214.289062 6.699219 214.285156 6.1875 C 214.285156 5.519531 214.285156 4.851562 214.285156 4.191406 C 214.285156 4.15625 214.3125 4.128906 214.347656 4.128906 L 215.839844 4.128906 C 215.882812 4.128906 215.902344 4.148438 215.902344 4.191406 C 215.910156 4.824219 215.90625 5.523438 215.898438 6.292969 C 215.890625 6.972656 216.222656 7.3125 216.910156 7.3125 C 219.332031 7.3125 221.527344 7.3125 223.503906 7.3125 C 223.863281 7.3125 224.117188 7.128906 224.125 6.738281 C 224.136719 6.148438 224.136719 5.550781 224.128906 4.945312 C 224.128906 4.929688 224.144531 4.914062 224.160156 4.914062 L 225.707031 4.914062 C 225.746094 4.914062 225.761719 4.929688 225.761719 4.964844 C 225.765625 5.5 225.761719 6.066406 225.753906 6.671875 C 225.75 7.117188 226 7.332031 226.503906 7.320312 C 226.941406 7.308594 227.160156 7.101562 227.164062 6.703125 C 227.167969 6.105469 227.167969 5.527344 227.164062 4.96875 C 227.164062 4.933594 227.183594 4.914062 227.222656 4.914062 L 228.753906 4.914062 C 228.777344 4.914062 228.796875 4.933594 228.796875 4.953125 C 228.800781 5.492188 228.800781 6.085938 228.796875 6.730469 C 228.792969 7.300781 229.367188 7.394531 229.804688 7.277344 C 230.234375 7.160156 230.214844 6.640625 230.210938 6.292969 C 230.203125 5.605469 230.203125 4.90625 230.207031 4.1875 C 230.207031 4.15625 230.234375 4.128906 230.265625 4.128906 L 231.773438 4.128906 C 231.804688 4.128906 231.824219 4.148438 231.824219 4.179688 C 231.824219 4.910156 231.824219 5.640625 231.824219 6.386719 C 231.824219 6.832031 232.054688 7.214844 232.519531 7.292969 C 233.210938 7.40625 233.714844 7.195312 233.714844 6.421875 C 233.714844 4.484375 233.71875 2.550781 233.714844 0.625 C 233.714844 0.605469 233.734375 0.585938 233.753906 0.585938 L 235.289062 0.585938 C 235.320312 0.585938 235.34375 0.609375 235.34375 0.640625 C 235.347656 2.574219 235.347656 4.519531 235.34375 6.476562 C 235.339844 7.527344 235 8.40625 233.828125 8.628906 C 233.414062 8.707031 232.964844 8.730469 232.472656 8.699219 C 231.984375 8.671875 231.601562 8.5 231.332031 8.191406 C 231.3125 8.171875 231.292969 8.167969 231.273438 8.1875 C 230.488281 8.855469 229.167969 8.878906 228.332031 8.351562 C 228.292969 8.328125 228.257812 8.328125 228.21875 8.351562 C 227.59375 8.742188 226.839844 8.765625 226.082031 8.675781 C 225.746094 8.632812 225.449219 8.519531 225.183594 8.332031 C 225.15625 8.308594 225.125 8.308594 225.09375 8.328125 C 224.730469 8.578125 224.335938 8.699219 223.90625 8.703125 C 222.429688 8.710938 219.984375 8.710938 216.566406 8.703125 C 216.121094 8.703125 215.734375 8.535156 215.414062 8.199219 C 215.390625 8.175781 215.367188 8.171875 215.339844 8.195312 C 214.878906 8.53125 214.324219 8.703125 213.675781 8.703125 C 212.28125 8.707031 210.726562 8.710938 209.015625 8.710938 C 208.539062 8.710938 208.109375 8.980469 208.1875 9.5 C 208.296875 10.222656 209.476562 10.050781 209.964844 9.992188 C 210.003906 9.988281 210.03125 10.007812 210.039062 10.046875 L 210.296875 11.273438 C 210.300781 11.300781 210.289062 11.324219 210.261719 11.332031 C 209.453125 11.566406 208.695312 11.566406 207.984375 11.332031 C 206.972656 11 206.441406 10.109375 206.574219 9.074219 C 206.722656 7.902344 207.714844 7.332031 208.835938 7.316406 C 209.464844 7.308594 210.117188 7.308594 210.796875 7.316406 C 210.824219 7.316406 210.839844 7.304688 210.839844 7.277344 C 210.878906 6.480469 210.640625 5.625 209.710938 5.496094 C 209.289062 5.4375 208.816406 5.460938 208.300781 5.570312 C 208.265625 5.578125 208.230469 5.554688 208.222656 5.523438 L 207.90625 4.320312 C 207.894531 4.277344 207.910156 4.25 207.949219 4.234375 C 208.550781 4.039062 209.179688 3.96875 209.84375 4.03125 C 211.738281 4.207031 212.527344 5.480469 212.460938 7.238281 C 212.460938 7.285156 212.484375 7.308594 212.53125 7.308594 Z M 212.53125 7.308594 " fill-opacity="1" fill-rule="nonzero"/><path fill="#000000" d="M 236.628906 0.585938 L 238.167969 0.585938 C 238.199219 0.585938 238.210938 0.601562 238.210938 0.628906 L 238.210938 8.664062 C 238.210938 8.695312 238.199219 8.707031 238.167969 8.707031 L 236.628906 8.707031 C 236.601562 8.707031 236.585938 8.695312 236.585938 8.664062 L 236.585938 0.628906 C 236.585938 0.601562 236.601562 0.585938 236.628906 0.585938 Z M 236.628906 0.585938 " fill-opacity="1" fill-rule="nonzero"/><path fill="#000000" d="M 108.609375 19.222656 C 111.132812 19.097656 113.574219 18.21875 115.167969 16.285156 C 115.433594 15.96875 115.644531 15.640625 115.808594 15.300781 C 115.820312 15.269531 115.855469 15.257812 115.882812 15.265625 L 119.308594 16.246094 C 119.335938 16.253906 119.351562 16.28125 119.34375 16.308594 C 119.34375 16.308594 119.34375 16.3125 119.34375 16.316406 C 119.035156 17.019531 118.589844 17.699219 118.09375 18.292969 C 115.921875 20.882812 112.707031 22.148438 109.296875 22.390625 C 105.855469 22.632812 101.988281 22.117188 99.238281 19.9375 C 96.421875 17.707031 95.320312 14.214844 95.46875 10.675781 C 95.496094 10.003906 95.589844 9.363281 95.746094 8.742188 C 97.324219 2.445312 103.558594 0.21875 109.574219 0.71875 C 113.613281 1.054688 117.421875 3.089844 119.132812 6.773438 C 119.164062 6.835938 119.144531 6.882812 119.074219 6.902344 L 115.703125 7.949219 C 115.671875 7.957031 115.640625 7.945312 115.628906 7.917969 C 114.949219 6.574219 113.894531 5.539062 112.464844 4.8125 C 110.523438 3.832031 108.042969 3.621094 105.886719 4.007812 C 101.742188 4.753906 99.179688 8.027344 99.378906 12.183594 C 99.511719 15.058594 101.285156 17.378906 103.953125 18.496094 C 105.316406 19.0625 106.867188 19.304688 108.609375 19.222656 Z M 108.609375 19.222656 " fill-opacity="1" fill-rule="nonzero"/><path fill="#000000" d="M 58.125 3.976562 C 58.125 4.015625 58.140625 4.019531 58.167969 3.992188 C 59.582031 2.472656 61.5625 1.414062 63.574219 1.035156 C 65.894531 0.597656 68.128906 0.710938 70.269531 1.375 C 72.042969 1.921875 73.40625 2.957031 74.351562 4.480469 C 74.359375 4.488281 74.375 4.492188 74.382812 4.484375 C 74.386719 4.484375 74.386719 4.484375 74.390625 4.480469 C 75.597656 2.996094 77.339844 1.910156 79.148438 1.367188 C 82.332031 0.40625 86.144531 0.441406 89.121094 2.042969 C 91.351562 3.242188 92.664062 5.019531 93.058594 7.375 C 93.175781 8.089844 93.238281 8.871094 93.238281 9.722656 C 93.238281 13.691406 93.238281 17.683594 93.238281 21.695312 C 93.238281 21.71875 93.222656 21.734375 93.203125 21.734375 L 89.613281 21.734375 C 89.589844 21.734375 89.566406 21.714844 89.566406 21.6875 C 89.566406 18.003906 89.566406 14.390625 89.566406 10.84375 C 89.566406 10.191406 89.542969 9.59375 89.496094 9.054688 C 89.292969 6.734375 87.839844 5.277344 85.714844 4.558594 C 83.070312 3.660156 79.640625 4.261719 77.5 6.082031 C 76.5625 6.878906 75.988281 7.835938 75.777344 8.949219 C 75.6875 9.4375 75.644531 9.988281 75.640625 10.605469 C 75.640625 14.292969 75.640625 17.988281 75.644531 21.695312 C 75.644531 21.71875 75.625 21.734375 75.601562 21.734375 L 72.015625 21.734375 C 71.988281 21.734375 71.964844 21.714844 71.964844 21.6875 C 71.972656 17.800781 71.972656 13.996094 71.960938 10.277344 C 71.953125 7.523438 70.953125 5.359375 68.085938 4.460938 C 67.367188 4.238281 66.621094 4.132812 65.851562 4.144531 C 63.308594 4.191406 60.828125 5.066406 59.207031 7.050781 C 58.640625 7.738281 58.257812 8.65625 58.1875 9.511719 C 58.144531 10.03125 58.125 10.566406 58.125 11.074219 C 58.125 14.609375 58.125 18.144531 58.128906 21.679688 C 58.128906 21.714844 58.109375 21.734375 58.070312 21.734375 L 54.355469 21.734375 C 54.339844 21.734375 54.324219 21.722656 54.324219 21.707031 L 54.324219 1.359375 C 54.324219 1.34375 54.339844 1.328125 54.359375 1.328125 L 58.070312 1.328125 C 58.109375 1.328125 58.125 1.347656 58.125 1.382812 Z M 58.125 3.976562 " fill-opacity="1" fill-rule="nonzero"/><path fill="#000000" d="M 191.316406 1.957031 C 191.320312 2.183594 191.242188 2.378906 191.089844 2.539062 C 190.933594 2.703125 190.742188 2.785156 190.519531 2.789062 C 190.292969 2.792969 190.101562 2.714844 189.941406 2.558594 C 189.78125 2.398438 189.699219 2.207031 189.695312 1.980469 C 189.691406 1.757812 189.765625 1.5625 189.921875 1.398438 C 190.078125 1.238281 190.269531 1.152344 190.492188 1.152344 C 190.714844 1.148438 190.910156 1.222656 191.070312 1.382812 C 191.230469 1.539062 191.3125 1.730469 191.316406 1.957031 Z M 191.316406 1.957031 " fill-opacity="1" fill-rule="nonzero"/><path fill="#000000" d="M 210.179688 1.960938 C 210.179688 2.1875 210.105469 2.378906 209.949219 2.542969 C 209.792969 2.703125 209.601562 2.785156 209.378906 2.789062 C 209.15625 2.789062 208.960938 2.714844 208.800781 2.554688 C 208.640625 2.398438 208.5625 2.207031 208.558594 1.980469 C 208.554688 1.753906 208.632812 1.558594 208.789062 1.398438 C 208.945312 1.234375 209.132812 1.152344 209.359375 1.152344 C 209.582031 1.148438 209.773438 1.226562 209.933594 1.382812 C 210.09375 1.542969 210.175781 1.734375 210.179688 1.960938 Z M 210.179688 1.960938 " fill-opacity="1" fill-rule="nonzero"/><path fill="#000000" d="M 130.503906 2.085938 C 130.503906 2.3125 130.421875 2.503906 130.261719 2.660156 C 130.101562 2.820312 129.910156 2.898438 129.683594 2.898438 C 129.457031 2.898438 129.265625 2.820312 129.105469 2.660156 C 128.945312 2.503906 128.863281 2.3125 128.863281 2.085938 C 128.863281 1.863281 128.945312 1.671875 129.105469 1.515625 C 129.265625 1.355469 129.457031 1.277344 129.683594 1.277344 C 129.910156 1.277344 130.101562 1.355469 130.261719 1.515625 C 130.421875 1.671875 130.503906 1.863281 130.503906 2.085938 Z M 130.503906 2.085938 " fill-opacity="1" fill-rule="nonzero"/><path fill="#000000" d="M 132.457031 2.085938 C 132.457031 2.3125 132.378906 2.503906 132.21875 2.660156 C 132.058594 2.820312 131.867188 2.898438 131.640625 2.898438 C 131.414062 2.898438 131.21875 2.820312 131.058594 2.660156 C 130.898438 2.503906 130.820312 2.3125 130.820312 2.085938 C 130.820312 1.863281 130.898438 1.671875 131.058594 1.515625 C 131.21875 1.355469 131.414062 1.277344 131.640625 1.277344 C 131.867188 1.277344 132.058594 1.355469 132.21875 1.515625 C 132.378906 1.671875 132.457031 1.863281 132.457031 2.085938 Z M 132.457031 2.085938 " fill-opacity="1" fill-rule="nonzero"/><path fill="#000000" d="M 245.039062 2.085938 C 245.039062 2.3125 244.957031 2.503906 244.796875 2.660156 C 244.636719 2.820312 244.445312 2.898438 244.21875 2.898438 C 243.992188 2.898438 243.796875 2.820312 243.636719 2.660156 C 243.476562 2.503906 243.398438 2.3125 243.398438 2.085938 C 243.398438 1.863281 243.476562 1.671875 243.636719 1.515625 C 243.796875 1.355469 243.992188 1.277344 244.21875 1.277344 C 244.445312 1.277344 244.636719 1.355469 244.796875 1.515625 C 244.957031 1.671875 245.039062 1.863281 245.039062 2.085938 Z M 245.039062 2.085938 " fill-opacity="1" fill-rule="nonzero"/><path fill="#000000" d="M 246.992188 2.085938 C 246.992188 2.3125 246.910156 2.503906 246.75 2.660156 C 246.589844 2.820312 246.398438 2.898438 246.171875 2.898438 C 245.945312 2.898438 245.753906 2.820312 245.59375 2.660156 C 245.433594 2.503906 245.351562 2.3125 245.351562 2.085938 C 245.351562 1.863281 245.433594 1.671875 245.59375 1.515625 C 245.753906 1.355469 245.945312 1.277344 246.171875 1.277344 C 246.398438 1.277344 246.589844 1.355469 246.75 1.515625 C 246.910156 1.671875 246.992188 1.863281 246.992188 2.085938 Z M 246.992188 2.085938 " fill-opacity="1" fill-rule="nonzero"/><path fill="#000000" d="M 249.96875 1.269531 C 250.191406 1.269531 250.382812 1.347656 250.539062 1.507812 C 250.699219 1.667969 250.777344 1.863281 250.777344 2.089844 C 250.773438 2.316406 250.695312 2.507812 250.539062 2.667969 C 250.378906 2.828125 250.1875 2.910156 249.964844 2.90625 C 249.742188 2.90625 249.550781 2.828125 249.390625 2.667969 C 249.234375 2.507812 249.15625 2.3125 249.15625 2.085938 C 249.15625 1.859375 249.234375 1.667969 249.394531 1.507812 C 249.550781 1.347656 249.742188 1.269531 249.96875 1.269531 Z M 249.96875 1.269531 " fill-opacity="1" fill-rule="nonzero"/><path fill="#000000" d="M 198.597656 2.996094 C 198.597656 3.21875 198.515625 3.410156 198.355469 3.570312 C 198.195312 3.726562 198 3.808594 197.773438 3.808594 C 197.546875 3.808594 197.351562 3.726562 197.191406 3.570312 C 197.03125 3.410156 196.949219 3.21875 196.949219 2.996094 C 196.949219 2.769531 197.03125 2.578125 197.191406 2.417969 C 197.351562 2.261719 197.546875 2.183594 197.773438 2.183594 C 198 2.183594 198.195312 2.261719 198.355469 2.417969 C 198.515625 2.578125 198.597656 2.769531 198.597656 2.996094 Z M 198.597656 2.996094 " fill-opacity="1" fill-rule="nonzero"/><path fill="#000000" d="M 200.550781 2.996094 C 200.550781 3.21875 200.46875 3.410156 200.308594 3.570312 C 200.148438 3.726562 199.957031 3.808594 199.730469 3.808594 C 199.5 3.808594 199.308594 3.726562 199.148438 3.570312 C 198.988281 3.410156 198.90625 3.21875 198.90625 2.996094 C 198.90625 2.769531 198.988281 2.578125 199.148438 2.421875 C 199.308594 2.261719 199.5 2.183594 199.730469 2.183594 C 199.957031 2.183594 200.148438 2.261719 200.308594 2.421875 C 200.46875 2.578125 200.550781 2.769531 200.550781 2.996094 Z M 200.550781 2.996094 " fill-opacity="1" fill-rule="nonzero"/><path fill="#000000" d="M 227.796875 2.996094 C 227.796875 3.21875 227.714844 3.410156 227.554688 3.570312 C 227.394531 3.726562 227.199219 3.808594 226.972656 3.808594 C 226.746094 3.808594 226.550781 3.726562 226.390625 3.570312 C 226.230469 3.410156 226.148438 3.21875 226.148438 2.996094 C 226.148438 2.769531 226.230469 2.578125 226.390625 2.417969 C 226.550781 2.261719 226.746094 2.183594 226.972656 2.183594 C 227.199219 2.183594 227.394531 2.261719 227.554688 2.417969 C 227.714844 2.578125 227.796875 2.769531 227.796875 2.996094 Z M 227.796875 2.996094 " fill-opacity="1" fill-rule="nonzero"/><path fill="#000000" d="M 229.75 2.996094 C 229.75 3.21875 229.667969 3.410156 229.507812 3.570312 C 229.347656 3.726562 229.15625 3.808594 228.929688 3.808594 C 228.699219 3.808594 228.507812 3.726562 228.347656 3.570312 C 228.1875 3.410156 228.105469 3.21875 228.105469 2.996094 C 228.105469 2.769531 228.1875 2.578125 228.347656 2.421875 C 228.507812 2.261719 228.699219 2.183594 228.929688 2.183594 C 229.15625 2.183594 229.347656 2.261719 229.507812 2.421875 C 229.667969 2.578125 229.75 2.769531 229.75 2.996094 Z M 229.75 2.996094 " fill-opacity="1" fill-rule="nonzero"/><path fill="#000000" d="M 258.902344 7.253906 C 258.753906 6.359375 257.910156 5.5625 257.148438 5.085938 C 257.117188 5.066406 257.109375 5.027344 257.128906 5 C 257.128906 5 257.128906 4.996094 257.132812 4.996094 L 258.027344 3.820312 C 258.058594 3.78125 258.097656 3.773438 258.140625 3.800781 C 259.417969 4.597656 260.359375 5.699219 260.5 7.25 C 260.503906 7.292969 260.527344 7.3125 260.566406 7.3125 L 266.828125 7.3125 C 266.878906 7.3125 266.890625 7.289062 266.871094 7.246094 C 266.789062 7.082031 266.742188 6.902344 266.71875 6.722656 C 266.464844 4.914062 267.894531 3.921875 269.5625 4.019531 C 270.472656 4.070312 271.136719 4.445312 271.558594 5.140625 C 272.144531 6.117188 271.894531 7.597656 270.921875 8.238281 C 270.292969 8.65625 269.605469 8.710938 268.835938 8.710938 C 264.6875 8.707031 260.390625 8.707031 255.941406 8.710938 C 255.890625 8.710938 255.867188 8.683594 255.867188 8.632812 L 255.867188 7.371094 C 255.863281 7.339844 255.890625 7.3125 255.921875 7.3125 L 258.851562 7.3125 C 258.894531 7.3125 258.910156 7.292969 258.902344 7.253906 Z M 268.875 5.546875 C 268.183594 5.820312 268.203125 6.683594 268.503906 7.257812 C 268.523438 7.289062 268.550781 7.304688 268.585938 7.308594 C 269.21875 7.339844 270.007812 7.414062 270.210938 6.660156 C 270.441406 5.796875 269.652344 5.238281 268.875 5.546875 Z M 268.875 5.546875 " fill-opacity="1" fill-rule="nonzero"/><path fill="#000000" d="M 176.617188 8.707031 C 175.652344 8.738281 174.738281 8.679688 174.035156 8.007812 C 173.113281 7.125 173.277344 5.503906 174.199219 4.679688 C 174.824219 4.121094 175.589844 3.910156 176.492188 4.050781 C 177.4375 4.195312 178.027344 4.71875 178.273438 5.613281 C 178.410156 6.121094 178.347656 6.71875 178.355469 7.257812 C 178.355469 7.292969 178.375 7.3125 178.410156 7.3125 C 180.871094 7.3125 183.25 7.3125 185.539062 7.308594 C 186.253906 7.308594 186.253906 6.601562 186.253906 6.09375 C 186.25 5.449219 186.25 4.8125 186.25 4.183594 C 186.25 4.148438 186.269531 4.128906 186.304688 4.128906 L 187.8125 4.128906 C 187.847656 4.128906 187.867188 4.148438 187.867188 4.183594 C 187.863281 4.886719 187.863281 5.605469 187.867188 6.347656 C 187.871094 6.996094 188.238281 7.320312 188.851562 7.316406 C 189.875 7.308594 190.867188 7.308594 191.832031 7.3125 C 191.863281 7.3125 191.878906 7.300781 191.882812 7.273438 C 191.984375 6.519531 191.792969 5.734375 190.957031 5.527344 C 190.5 5.414062 189.929688 5.46875 189.4375 5.570312 C 189.402344 5.574219 189.371094 5.554688 189.359375 5.523438 L 189.027344 4.300781 C 189.019531 4.269531 189.03125 4.25 189.0625 4.238281 C 189.796875 4.011719 190.53125 3.953125 191.265625 4.066406 C 192.976562 4.324219 193.625 5.605469 193.519531 7.246094 C 193.519531 7.289062 193.539062 7.3125 193.585938 7.3125 C 193.871094 7.320312 194.136719 7.3125 194.378906 7.304688 C 194.742188 7.285156 194.925781 7.078125 194.933594 6.675781 C 194.941406 6.097656 194.941406 5.527344 194.9375 4.96875 C 194.9375 4.9375 194.957031 4.914062 194.988281 4.914062 L 196.5 4.914062 C 196.53125 4.914062 196.554688 4.9375 196.554688 4.964844 C 196.554688 5.496094 196.554688 6.070312 196.554688 6.695312 C 196.558594 7.230469 196.964844 7.351562 197.414062 7.308594 C 197.773438 7.273438 197.957031 7.082031 197.960938 6.722656 C 197.964844 6.160156 197.96875 5.578125 197.960938 4.980469 C 197.960938 4.945312 197.992188 4.914062 198.03125 4.914062 L 199.527344 4.910156 C 199.574219 4.910156 199.597656 4.933594 199.597656 4.980469 C 199.597656 5.582031 199.59375 6.164062 199.597656 6.71875 C 199.597656 7.105469 199.8125 7.304688 200.242188 7.316406 C 200.742188 7.335938 200.996094 7.117188 200.996094 6.667969 C 201 5.835938 201 5.007812 201 4.183594 C 201 4.148438 201.019531 4.128906 201.054688 4.128906 L 202.566406 4.128906 C 202.605469 4.128906 202.625 4.148438 202.625 4.1875 C 202.625 5.101562 202.625 5.996094 202.621094 6.875 C 202.613281 8.703125 200.382812 9.132812 199.121094 8.34375 C 199.089844 8.324219 199.058594 8.324219 199.027344 8.34375 C 198.449219 8.722656 197.769531 8.746094 197.078125 8.695312 C 196.644531 8.664062 196.269531 8.539062 195.960938 8.3125 C 195.945312 8.300781 195.925781 8.304688 195.910156 8.3125 C 195.476562 8.644531 195.007812 8.699219 194.398438 8.703125 C 191.605469 8.714844 189.640625 8.710938 188.507812 8.695312 C 188.066406 8.691406 187.691406 8.523438 187.378906 8.195312 C 187.355469 8.171875 187.328125 8.167969 187.304688 8.191406 C 186.863281 8.527344 186.355469 8.695312 185.777344 8.699219 C 183.839844 8.710938 181.375 8.710938 178.390625 8.703125 C 178.339844 8.703125 178.316406 8.726562 178.3125 8.773438 C 178.105469 10.710938 176.003906 10.925781 174.488281 10.761719 C 174.460938 10.761719 174.4375 10.738281 174.433594 10.707031 L 174.359375 9.382812 C 174.359375 9.351562 174.382812 9.324219 174.414062 9.324219 C 174.417969 9.324219 174.421875 9.324219 174.425781 9.324219 C 175.109375 9.40625 176.300781 9.46875 176.671875 8.789062 C 176.699219 8.730469 176.683594 8.703125 176.617188 8.707031 Z M 175.691406 7.257812 C 175.925781 7.320312 176.257812 7.339844 176.679688 7.308594 C 176.71875 7.304688 176.738281 7.285156 176.738281 7.246094 C 176.753906 6.820312 176.742188 6.464844 176.707031 6.179688 C 176.65625 5.785156 176.460938 5.554688 176.125 5.484375 C 175 5.25 174.683594 6.988281 175.691406 7.257812 Z M 175.691406 7.257812 " fill-opacity="1" fill-rule="nonzero"/><path fill="#000000" d="M 250.21875 8.183594 C 249.890625 8.476562 249.425781 8.648438 248.828125 8.6875 C 248.058594 8.742188 247.011719 8.777344 246.359375 8.355469 C 246.332031 8.335938 246.292969 8.332031 246.265625 8.347656 C 244.832031 8.980469 242.460938 8.644531 242.285156 6.710938 C 242.179688 5.527344 242.914062 4.609375 244.046875 4.28125 C 244.429688 4.171875 244.859375 4.121094 245.335938 4.125 C 245.980469 4.132812 246.660156 4.132812 247.382812 4.125 C 247.421875 4.125 247.441406 4.144531 247.441406 4.183594 C 247.445312 4.941406 247.445312 5.707031 247.441406 6.480469 C 247.4375 6.839844 247.5 7.230469 247.929688 7.289062 C 248.367188 7.351562 249.007812 7.363281 249.105469 6.8125 C 249.152344 6.554688 249.175781 6.273438 249.171875 5.960938 C 249.167969 5.382812 249.164062 4.789062 249.171875 4.183594 C 249.171875 4.148438 249.1875 4.128906 249.226562 4.128906 L 250.722656 4.128906 C 250.761719 4.128906 250.785156 4.148438 250.785156 4.191406 C 250.789062 4.84375 250.789062 5.5625 250.785156 6.351562 C 250.78125 7.351562 251.566406 7.339844 252.324219 7.308594 C 252.832031 7.285156 253.085938 7.019531 253.09375 6.515625 C 253.105469 5.765625 253.109375 4.988281 253.101562 4.191406 C 253.101562 4.148438 253.121094 4.128906 253.164062 4.128906 L 254.65625 4.128906 C 254.703125 4.128906 254.722656 4.148438 254.726562 4.195312 C 254.738281 5.074219 254.734375 5.902344 254.714844 6.679688 C 254.675781 8.15625 253.851562 8.640625 252.527344 8.703125 C 252.007812 8.726562 251.5625 8.714844 251.191406 8.667969 C 250.828125 8.621094 250.527344 8.460938 250.289062 8.1875 C 250.265625 8.160156 250.242188 8.160156 250.21875 8.183594 Z M 243.898438 6.328125 C 243.859375 7.269531 245.042969 7.257812 245.691406 7.101562 C 245.71875 7.09375 245.738281 7.070312 245.738281 7.042969 L 245.738281 5.574219 C 245.738281 5.542969 245.726562 5.527344 245.695312 5.527344 C 245.085938 5.511719 243.9375 5.414062 243.898438 6.328125 Z M 243.898438 6.328125 " fill-opacity="1" fill-rule="nonzero"/><path fill="#000000" d="M 135.472656 10.339844 C 135.472656 10.5625 135.390625 10.753906 135.230469 10.914062 C 135.070312 11.070312 134.878906 11.148438 134.652344 11.148438 C 134.425781 11.148438 134.230469 11.070312 134.070312 10.914062 C 133.910156 10.753906 133.832031 10.5625 133.832031 10.339844 C 133.832031 10.117188 133.910156 9.925781 134.070312 9.765625 C 134.230469 9.609375 134.425781 9.527344 134.652344 9.527344 C 134.878906 9.527344 135.070312 9.609375 135.230469 9.765625 C 135.390625 9.925781 135.472656 10.117188 135.472656 10.339844 Z M 135.472656 10.339844 " fill-opacity="1" fill-rule="nonzero"/><path fill="#000000" d="M 137.425781 10.339844 C 137.425781 10.5625 137.34375 10.753906 137.183594 10.914062 C 137.023438 11.070312 136.832031 11.148438 136.605469 11.148438 C 136.378906 11.148438 136.183594 11.070312 136.023438 10.914062 C 135.863281 10.753906 135.785156 10.5625 135.785156 10.339844 C 135.785156 10.117188 135.863281 9.925781 136.023438 9.765625 C 136.183594 9.609375 136.378906 9.527344 136.605469 9.527344 C 136.832031 9.527344 137.023438 9.609375 137.183594 9.765625 C 137.34375 9.925781 137.425781 10.117188 137.425781 10.339844 Z M 137.425781 10.339844 " fill-opacity="1" fill-rule="nonzero"/><path fill="#000000" d="M 139.257812 9.523438 C 139.480469 9.527344 139.667969 9.613281 139.824219 9.777344 C 139.976562 9.941406 140.050781 10.136719 140.042969 10.359375 C 140.039062 10.585938 139.953125 10.777344 139.792969 10.933594 C 139.628906 11.085938 139.4375 11.164062 139.214844 11.15625 C 138.988281 11.152344 138.800781 11.066406 138.648438 10.902344 C 138.492188 10.738281 138.417969 10.542969 138.425781 10.320312 C 138.429688 10.09375 138.515625 9.902344 138.675781 9.746094 C 138.839844 9.59375 139.03125 9.515625 139.257812 9.523438 Z M 139.257812 9.523438 " fill-opacity="1" fill-rule="nonzero"/><path fill="#000000" d="M 187.730469 10.339844 C 187.730469 10.5625 187.648438 10.753906 187.488281 10.914062 C 187.328125 11.070312 187.136719 11.148438 186.910156 11.148438 C 186.683594 11.148438 186.488281 11.070312 186.328125 10.914062 C 186.167969 10.753906 186.089844 10.5625 186.089844 10.339844 C 186.089844 10.117188 186.167969 9.925781 186.328125 9.765625 C 186.488281 9.609375 186.683594 9.527344 186.910156 9.527344 C 187.136719 9.527344 187.328125 9.609375 187.488281 9.765625 C 187.648438 9.925781 187.730469 10.117188 187.730469 10.339844 Z M 187.730469 10.339844 " fill-opacity="1" fill-rule="nonzero"/><path fill="#000000" d="M 214.695312 10.339844 C 214.695312 10.5625 214.617188 10.753906 214.457031 10.910156 C 214.296875 11.070312 214.105469 11.148438 213.878906 11.148438 C 213.652344 11.148438 213.457031 11.070312 213.296875 10.910156 C 213.136719 10.753906 213.058594 10.5625 213.058594 10.339844 C 213.058594 10.113281 213.136719 9.921875 213.296875 9.765625 C 213.457031 9.605469 213.652344 9.527344 213.878906 9.527344 C 214.105469 9.527344 214.296875 9.605469 214.457031 9.765625 C 214.617188 9.921875 214.695312 10.113281 214.695312 10.339844 Z M 214.695312 10.339844 " fill-opacity="1" fill-rule="nonzero"/><path fill="#000000" d="M 216.652344 10.339844 C 216.652344 10.5625 216.570312 10.753906 216.410156 10.914062 C 216.25 11.070312 216.058594 11.148438 215.832031 11.148438 C 215.605469 11.148438 215.414062 11.070312 215.253906 10.914062 C 215.09375 10.753906 215.011719 10.5625 215.011719 10.339844 C 215.011719 10.117188 215.09375 9.925781 215.253906 9.765625 C 215.414062 9.609375 215.605469 9.527344 215.832031 9.527344 C 216.058594 9.527344 216.25 9.609375 216.410156 9.765625 C 216.570312 9.925781 216.652344 10.117188 216.652344 10.339844 Z M 216.652344 10.339844 " fill-opacity="1" fill-rule="nonzero"/><path fill="#000000" d="M 253.382812 10.339844 C 253.382812 10.5625 253.300781 10.753906 253.140625 10.910156 C 252.980469 11.070312 252.789062 11.148438 252.5625 11.148438 C 252.335938 11.148438 252.144531 11.070312 251.984375 10.910156 C 251.824219 10.753906 251.742188 10.5625 251.742188 10.339844 C 251.742188 10.113281 251.824219 9.921875 251.984375 9.765625 C 252.144531 9.605469 252.335938 9.527344 252.5625 9.527344 C 252.789062 9.527344 252.980469 9.605469 253.140625 9.765625 C 253.300781 9.921875 253.382812 10.113281 253.382812 10.339844 Z M 253.382812 10.339844 " fill-opacity="1" fill-rule="nonzero"/><path fill="#000000" d="M 255.335938 10.339844 C 255.335938 10.5625 255.257812 10.753906 255.097656 10.914062 C 254.9375 11.070312 254.742188 11.148438 254.515625 11.148438 C 254.289062 11.148438 254.097656 11.070312 253.9375 10.914062 C 253.777344 10.753906 253.695312 10.5625 253.695312 10.339844 C 253.695312 10.117188 253.777344 9.925781 253.9375 9.765625 C 254.097656 9.609375 254.289062 9.527344 254.515625 9.527344 C 254.742188 9.527344 254.9375 9.609375 255.097656 9.765625 C 255.257812 9.925781 255.335938 10.117188 255.335938 10.339844 Z M 255.335938 10.339844 " fill-opacity="1" fill-rule="nonzero"/><path fill="#000000" d="M 135.132812 18.183594 C 135.550781 17.433594 136.601562 17.355469 137.316406 17.644531 C 138.054688 17.941406 138.234375 18.792969 138.242188 19.519531 C 138.25 20.371094 138.253906 21.304688 138.25 22.324219 C 138.25 22.367188 138.226562 22.390625 138.179688 22.390625 L 136.816406 22.390625 C 136.769531 22.390625 136.746094 22.367188 136.746094 22.320312 C 136.75 21.488281 136.75 20.660156 136.742188 19.839844 C 136.738281 19.378906 136.625 18.847656 136.070312 18.804688 C 135.289062 18.75 135.085938 19.3125 135.085938 19.945312 C 135.085938 20.726562 135.085938 21.519531 135.082031 22.324219 C 135.082031 22.367188 135.0625 22.390625 135.015625 22.390625 L 133.628906 22.390625 C 133.605469 22.390625 133.585938 22.375 133.585938 22.351562 L 133.585938 15.03125 C 133.585938 14.984375 133.609375 14.960938 133.65625 14.960938 L 135.035156 14.960938 C 135.066406 14.960938 135.085938 14.976562 135.085938 15.011719 L 135.085938 18.171875 C 135.085938 18.238281 135.101562 18.242188 135.132812 18.183594 Z M 135.132812 18.183594 " fill-opacity="1" fill-rule="nonzero"/><path fill="#000000" d="M 148.921875 20.066406 L 148.925781 22.355469 C 148.925781 22.375 148.914062 22.390625 148.894531 22.390625 L 147.464844 22.390625 C 147.449219 22.390625 147.433594 22.375 147.433594 22.355469 C 147.433594 22.355469 147.433594 14.992188 147.433594 14.992188 C 147.433594 14.972656 147.449219 14.960938 147.464844 14.960938 L 148.894531 14.964844 C 148.914062 14.964844 148.929688 14.980469 148.929688 14.996094 C 148.929688 14.996094 148.925781 19.398438 148.925781 19.398438 C 148.925781 19.417969 148.941406 19.433594 148.960938 19.433594 C 148.96875 19.433594 148.980469 19.429688 148.984375 19.421875 L 150.558594 17.617188 C 150.5625 17.609375 150.574219 17.605469 150.582031 17.605469 L 152.347656 17.605469 C 152.367188 17.605469 152.382812 17.621094 152.382812 17.636719 C 152.382812 17.648438 152.378906 17.65625 152.371094 17.660156 L 150.511719 19.746094 C 150.5 19.757812 150.496094 19.773438 150.507812 19.789062 L 152.421875 22.335938 C 152.433594 22.351562 152.429688 22.371094 152.414062 22.382812 C 152.410156 22.386719 152.402344 22.390625 152.394531 22.390625 L 150.582031 22.390625 C 150.570312 22.390625 150.558594 22.386719 150.550781 22.375 L 148.984375 20.050781 C 148.976562 20.035156 148.953125 20.03125 148.9375 20.039062 C 148.929688 20.046875 148.925781 20.058594 148.925781 20.066406 Z M 148.921875 20.066406 " fill-opacity="1" fill-rule="nonzero"/><path fill="#000000" d="M 154.503906 18.15625 C 154.734375 17.789062 155.101562 17.570312 155.527344 17.515625 C 157.066406 17.328125 157.589844 18.246094 157.601562 19.625 C 157.609375 20.5 157.613281 21.398438 157.609375 22.328125 C 157.609375 22.367188 157.585938 22.390625 157.542969 22.390625 L 156.15625 22.390625 C 156.117188 22.390625 156.09375 22.371094 156.097656 22.332031 C 156.105469 21.457031 156.101562 20.59375 156.089844 19.738281 C 156.085938 19.300781 155.933594 18.851562 155.441406 18.808594 C 154.746094 18.746094 154.453125 19.210938 154.449219 19.816406 C 154.445312 20.6875 154.441406 21.523438 154.445312 22.320312 C 154.445312 22.367188 154.421875 22.390625 154.375 22.390625 L 153.007812 22.390625 C 152.964844 22.390625 152.945312 22.367188 152.945312 22.328125 L 152.945312 15.019531 C 152.945312 14.980469 152.964844 14.960938 153.003906 14.960938 L 154.394531 14.960938 C 154.421875 14.960938 154.445312 14.984375 154.445312 15.011719 C 154.445312 15.011719 154.445312 18.140625 154.445312 18.140625 C 154.445312 18.210938 154.464844 18.21875 154.503906 18.15625 Z M 154.503906 18.15625 " fill-opacity="1" fill-rule="nonzero"/><path fill="#000000" d="M 168.78125 18.160156 C 168.976562 17.832031 169.28125 17.625 169.691406 17.539062 C 170.0625 17.460938 170.539062 17.480469 170.894531 17.621094 C 171.699219 17.925781 171.871094 18.777344 171.878906 19.558594 C 171.890625 20.519531 171.890625 21.445312 171.882812 22.332031 C 171.882812 22.371094 171.863281 22.390625 171.820312 22.390625 L 170.433594 22.390625 C 170.390625 22.390625 170.371094 22.367188 170.371094 22.324219 C 170.375 21.480469 170.375 20.628906 170.371094 19.773438 C 170.371094 19.234375 170.171875 18.746094 169.5 18.804688 C 168.902344 18.859375 168.726562 19.355469 168.726562 19.867188 C 168.726562 20.632812 168.722656 21.453125 168.726562 22.324219 C 168.726562 22.367188 168.703125 22.390625 168.65625 22.390625 L 167.265625 22.390625 C 167.242188 22.390625 167.222656 22.371094 167.222656 22.347656 C 167.222656 22.347656 167.226562 15.023438 167.226562 15.023438 C 167.226562 14.988281 167.253906 14.960938 167.289062 14.960938 L 168.664062 14.960938 C 168.703125 14.960938 168.722656 14.984375 168.722656 15.023438 L 168.722656 18.148438 C 168.726562 18.21875 168.742188 18.222656 168.78125 18.160156 Z M 168.78125 18.160156 " fill-opacity="1" fill-rule="nonzero"/><path fill="#000000" d="M 179.765625 20.046875 L 179.769531 22.355469 C 179.769531 22.375 179.753906 22.390625 179.738281 22.390625 L 178.328125 22.390625 C 178.28125 22.390625 178.257812 22.367188 178.257812 22.320312 L 178.257812 15.011719 C 178.257812 14.976562 178.273438 14.960938 178.308594 14.960938 L 179.71875 14.960938 C 179.753906 14.960938 179.769531 14.976562 179.769531 15.011719 L 179.769531 19.394531 C 179.769531 19.449219 179.785156 19.453125 179.820312 19.414062 L 181.378906 17.628906 C 181.394531 17.613281 181.410156 17.605469 181.429688 17.605469 L 183.160156 17.601562 C 183.179688 17.601562 183.195312 17.621094 183.195312 17.640625 C 183.195312 17.644531 183.195312 17.644531 183.195312 17.648438 C 183.1875 17.679688 183.171875 17.703125 183.148438 17.726562 C 182.527344 18.417969 181.929688 19.082031 181.359375 19.730469 C 181.339844 19.75 181.339844 19.785156 181.359375 19.808594 L 183.265625 22.351562 C 183.273438 22.363281 183.269531 22.378906 183.257812 22.386719 C 183.253906 22.386719 183.25 22.390625 183.242188 22.390625 L 181.449219 22.390625 C 181.414062 22.390625 181.386719 22.375 181.367188 22.347656 L 179.808594 20.035156 C 179.78125 19.992188 179.765625 19.996094 179.765625 20.046875 Z M 179.765625 20.046875 " fill-opacity="1" fill-rule="nonzero"/><path fill="#000000" d="M 185.332031 18.160156 C 185.78125 17.441406 186.769531 17.355469 187.484375 17.632812 C 188.234375 17.925781 188.429688 18.773438 188.429688 19.511719 C 188.433594 20.375 188.433594 21.3125 188.433594 22.324219 C 188.433594 22.367188 188.410156 22.390625 188.363281 22.390625 L 186.996094 22.390625 C 186.960938 22.390625 186.933594 22.363281 186.933594 22.328125 C 186.945312 21.433594 186.941406 20.550781 186.925781 19.683594 C 186.917969 19.328125 186.757812 18.882812 186.359375 18.820312 C 185.441406 18.675781 185.269531 19.351562 185.277344 20.09375 C 185.289062 20.847656 185.289062 21.59375 185.28125 22.328125 C 185.28125 22.363281 185.253906 22.390625 185.214844 22.390625 L 183.847656 22.390625 C 183.800781 22.390625 183.777344 22.367188 183.777344 22.320312 L 183.777344 15.011719 C 183.773438 14.984375 183.796875 14.960938 183.828125 14.960938 L 185.222656 14.960938 C 185.257812 14.960938 185.285156 14.984375 185.285156 15.019531 L 185.285156 18.148438 C 185.285156 18.207031 185.300781 18.214844 185.332031 18.160156 Z M 185.332031 18.160156 " fill-opacity="1" fill-rule="nonzero"/><path fill="#000000" d="M 191.109375 18.050781 C 191.488281 17.582031 192.15625 17.46875 192.742188 17.5 C 194.597656 17.601562 195.261719 20.015625 194.449219 21.402344 C 194.070312 22.050781 193.480469 22.414062 192.671875 22.5 C 192.023438 22.566406 191.367188 22.320312 190.972656 21.820312 C 190.9375 21.773438 190.917969 21.78125 190.917969 21.839844 L 190.921875 22.328125 C 190.921875 22.367188 190.898438 22.390625 190.855469 22.390625 L 189.613281 22.390625 C 189.570312 22.390625 189.542969 22.367188 189.542969 22.320312 L 189.542969 15.011719 C 189.542969 14.976562 189.5625 14.960938 189.597656 14.960938 L 190.984375 14.960938 C 191.019531 14.960938 191.039062 14.980469 191.039062 15.015625 L 191.039062 18.023438 C 191.039062 18.101562 191.0625 18.109375 191.109375 18.050781 Z M 193.277344 19.863281 C 193.273438 19.277344 192.792969 18.808594 192.203125 18.808594 L 191.992188 18.808594 C 191.402344 18.8125 190.925781 19.285156 190.929688 19.871094 L 190.929688 20.136719 C 190.929688 20.722656 191.410156 21.191406 192.003906 21.191406 L 192.210938 21.191406 C 192.800781 21.1875 193.28125 20.714844 193.277344 20.128906 Z M 193.277344 19.863281 " fill-opacity="1" fill-rule="nonzero"/><path fill="#000000" d="M 232.804688 21.835938 C 231.855469 22.917969 230.1875 22.621094 229.421875 21.542969 C 228.476562 20.214844 229.109375 17.664062 230.980469 17.507812 C 231.605469 17.453125 232.277344 17.578125 232.695312 18.066406 C 232.726562 18.097656 232.738281 18.09375 232.738281 18.046875 L 232.734375 15.015625 C 232.734375 14.980469 232.753906 14.960938 232.789062 14.960938 L 234.199219 14.960938 C 234.234375 14.960938 234.253906 14.976562 234.253906 15.011719 L 234.253906 22.320312 C 234.253906 22.367188 234.226562 22.390625 234.183594 22.390625 L 232.933594 22.390625 C 232.886719 22.390625 232.863281 22.367188 232.863281 22.320312 L 232.863281 21.855469 C 232.863281 21.796875 232.84375 21.789062 232.804688 21.835938 Z M 232.851562 19.859375 C 232.847656 19.273438 232.367188 18.804688 231.773438 18.808594 L 231.566406 18.808594 C 230.972656 18.816406 230.496094 19.292969 230.503906 19.875 L 230.503906 20.140625 C 230.507812 20.726562 230.992188 21.195312 231.582031 21.191406 L 231.792969 21.191406 C 232.382812 21.183594 232.859375 20.707031 232.855469 20.125 C 232.855469 20.125 232.851562 19.859375 232.851562 19.859375 Z M 232.851562 19.859375 " fill-opacity="1" fill-rule="nonzero"/><path fill="#000000" d="M 248.105469 14.960938 L 249.53125 14.960938 C 249.554688 14.960938 249.570312 14.972656 249.570312 15 L 249.570312 22.351562 C 249.570312 22.378906 249.554688 22.390625 249.53125 22.390625 L 248.105469 22.390625 C 248.082031 22.390625 248.066406 22.378906 248.066406 22.351562 L 248.066406 15 C 248.066406 14.972656 248.082031 14.960938 248.105469 14.960938 Z M 248.105469 14.960938 " fill-opacity="1" fill-rule="nonzero"/><path fill="#000000" d="M 129.492188 22.539062 C 128.789062 22.460938 128.175781 22.1875 127.65625 21.722656 C 127.636719 21.703125 127.632812 21.675781 127.652344 21.65625 L 128.703125 20.515625 C 128.71875 20.496094 128.738281 20.496094 128.753906 20.515625 C 129.28125 21.082031 129.894531 21.265625 130.597656 21.058594 C 131.082031 20.917969 131.382812 20.351562 130.957031 19.976562 C 130.792969 19.835938 130.601562 19.726562 130.382812 19.65625 C 129.167969 19.261719 127.691406 18.957031 127.863281 17.296875 C 128.09375 15.042969 131.242188 14.738281 132.679688 15.960938 C 132.699219 15.972656 132.699219 16 132.683594 16.015625 L 131.679688 17.101562 C 131.664062 17.121094 131.636719 17.121094 131.617188 17.105469 C 131.179688 16.71875 130.667969 16.597656 130.085938 16.742188 C 129.632812 16.855469 129.269531 17.304688 129.59375 17.738281 C 129.703125 17.886719 129.902344 18.007812 130.195312 18.101562 C 130.605469 18.234375 131.015625 18.363281 131.417969 18.488281 C 131.601562 18.546875 131.816406 18.667969 132.0625 18.851562 C 132.429688 19.125 132.640625 19.488281 132.695312 19.941406 C 132.925781 21.933594 131.21875 22.734375 129.492188 22.539062 Z M 129.492188 22.539062 " fill-opacity="1" fill-rule="nonzero"/><path fill="#000000" d="M 146.476562 16.117188 C 146.476562 16.355469 146.394531 16.558594 146.222656 16.726562 C 146.050781 16.894531 145.847656 16.976562 145.605469 16.976562 C 145.363281 16.976562 145.160156 16.894531 144.988281 16.726562 C 144.816406 16.558594 144.734375 16.355469 144.734375 16.117188 C 144.734375 15.878906 144.816406 15.675781 144.988281 15.507812 C 145.160156 15.339844 145.363281 15.253906 145.605469 15.253906 C 145.847656 15.253906 146.050781 15.339844 146.222656 15.507812 C 146.394531 15.675781 146.476562 15.878906 146.476562 16.117188 Z M 146.476562 16.117188 " fill-opacity="1" fill-rule="nonzero"/><path fill="#000000" d="M 162.328125 20.523438 C 162.347656 20.503906 162.378906 20.503906 162.398438 20.523438 C 162.910156 21.074219 163.515625 21.257812 164.207031 21.066406 C 164.710938 20.929688 165 20.425781 164.613281 19.992188 C 164.503906 19.871094 164.292969 19.753906 163.972656 19.644531 C 163.046875 19.328125 161.71875 19.0625 161.53125 17.933594 C 161.269531 16.378906 162.398438 15.382812 163.890625 15.269531 C 164.8125 15.199219 165.605469 15.410156 166.292969 15.9375 C 166.332031 15.96875 166.335938 16 166.300781 16.035156 L 165.320312 17.097656 C 165.292969 17.125 165.265625 17.125 165.238281 17.101562 C 164.769531 16.671875 164.003906 16.53125 163.421875 16.871094 C 163.046875 17.09375 162.996094 17.605469 163.347656 17.859375 C 163.527344 17.988281 163.734375 18.089844 163.96875 18.15625 C 164.972656 18.449219 166.234375 18.730469 166.339844 20.011719 C 166.449219 21.320312 165.714844 22.222656 164.453125 22.484375 C 163.34375 22.714844 162.175781 22.5 161.308594 21.742188 C 161.277344 21.714844 161.277344 21.667969 161.304688 21.640625 L 162.328125 20.527344 Z M 162.328125 20.523438 " fill-opacity="1" fill-rule="nonzero"/><path fill="#000000" d="M 236.996094 16.117188 C 236.996094 16.355469 236.910156 16.558594 236.738281 16.726562 C 236.570312 16.894531 236.363281 16.980469 236.121094 16.980469 C 235.882812 16.980469 235.675781 16.894531 235.503906 16.726562 C 235.335938 16.558594 235.25 16.355469 235.25 16.117188 C 235.25 15.878906 235.335938 15.675781 235.503906 15.507812 C 235.675781 15.335938 235.882812 15.253906 236.121094 15.253906 C 236.363281 15.253906 236.570312 15.335938 236.738281 15.507812 C 236.910156 15.675781 236.996094 15.878906 236.996094 16.117188 Z M 236.996094 16.117188 " fill-opacity="1" fill-rule="nonzero"/><path fill="#000000" d="M 257.773438 16.816406 C 255.738281 16.117188 254.453125 18.320312 255.257812 19.992188 C 255.589844 20.683594 256.128906 21.0625 256.863281 21.136719 C 257.460938 21.195312 258.070312 20.9375 258.410156 20.433594 C 258.425781 20.410156 258.460938 20.402344 258.488281 20.417969 C 258.488281 20.417969 258.488281 20.421875 258.488281 20.421875 L 259.707031 21.316406 C 259.734375 21.335938 259.738281 21.375 259.71875 21.402344 C 258.964844 22.398438 257.699219 22.707031 256.488281 22.519531 C 254.820312 22.261719 253.648438 21.140625 253.433594 19.46875 C 253.199219 17.605469 254.097656 15.949219 255.984375 15.417969 C 257.210938 15.070312 258.664062 15.238281 259.550781 16.234375 C 259.570312 16.257812 259.570312 16.296875 259.542969 16.320312 L 258.421875 17.222656 C 258.394531 17.242188 258.355469 17.238281 258.332031 17.214844 C 258.175781 17.023438 257.988281 16.886719 257.773438 16.816406 Z M 257.773438 16.816406 " fill-opacity="1" fill-rule="nonzero"/><path fill="#000000" d="M 261.941406 16.117188 C 261.941406 16.355469 261.855469 16.558594 261.683594 16.726562 C 261.515625 16.894531 261.308594 16.980469 261.066406 16.980469 C 260.824219 16.980469 260.621094 16.894531 260.449219 16.726562 C 260.277344 16.558594 260.195312 16.355469 260.195312 16.117188 C 260.195312 15.878906 260.277344 15.675781 260.449219 15.507812 C 260.621094 15.339844 260.824219 15.253906 261.066406 15.253906 C 261.308594 15.253906 261.515625 15.339844 261.683594 15.507812 C 261.855469 15.675781 261.941406 15.878906 261.941406 16.117188 Z M 261.941406 16.117188 " fill-opacity="1" fill-rule="nonzero"/><path fill="#000000" d="M 220.863281 17.191406 C 220.863281 17.089844 220.847656 17.085938 220.8125 17.183594 L 219.023438 22.335938 C 219.011719 22.367188 218.980469 22.390625 218.945312 22.390625 L 217.871094 22.390625 C 217.832031 22.390625 217.804688 22.371094 217.789062 22.332031 L 216.09375 17.246094 C 216.046875 17.109375 216.027344 17.113281 216.027344 17.257812 L 216.027344 22.324219 C 216.027344 22.367188 216.003906 22.390625 215.960938 22.390625 L 214.507812 22.390625 C 214.484375 22.390625 214.46875 22.375 214.46875 22.351562 C 214.46875 22.351562 214.46875 15.480469 214.46875 15.480469 C 214.46875 15.453125 214.492188 15.433594 214.519531 15.433594 L 216.757812 15.433594 C 216.800781 15.433594 216.828125 15.453125 216.84375 15.492188 L 218.40625 19.878906 C 218.429688 19.945312 218.453125 19.945312 218.480469 19.878906 L 220.058594 15.472656 C 220.070312 15.449219 220.09375 15.433594 220.117188 15.433594 L 222.371094 15.433594 C 222.398438 15.433594 222.421875 15.453125 222.421875 15.480469 L 222.421875 22.320312 C 222.421875 22.359375 222.390625 22.390625 222.351562 22.390625 L 220.929688 22.390625 C 220.882812 22.390625 220.859375 22.367188 220.859375 22.320312 Z M 220.863281 17.191406 " fill-opacity="1" fill-rule="nonzero"/><path fill="#000000" d="M 209.261719 18.863281 C 209.265625 19.453125 209.269531 20.019531 209.277344 20.5625 C 209.28125 20.816406 209.335938 20.992188 209.445312 21.097656 C 209.691406 21.335938 210.238281 21.277344 210.523438 21.160156 C 210.5625 21.144531 210.582031 21.160156 210.582031 21.203125 L 210.582031 22.304688 C 210.582031 22.34375 210.566406 22.371094 210.527344 22.378906 C 209.6875 22.613281 208.371094 22.632812 207.90625 21.75 C 207.804688 21.558594 207.757812 21.289062 207.757812 20.941406 C 207.765625 20.183594 207.769531 19.488281 207.765625 18.855469 C 207.765625 18.820312 207.75 18.800781 207.714844 18.800781 L 206.871094 18.800781 C 206.839844 18.800781 206.8125 18.773438 206.8125 18.742188 L 206.8125 17.671875 C 206.8125 17.628906 206.835938 17.605469 206.878906 17.605469 L 207.714844 17.605469 C 207.742188 17.605469 207.765625 17.582031 207.765625 17.554688 L 207.765625 16.265625 C 207.765625 16.21875 207.789062 16.195312 207.835938 16.195312 L 209.191406 16.195312 C 209.242188 16.195312 209.269531 16.222656 209.269531 16.273438 L 209.265625 17.554688 C 209.265625 17.589844 209.285156 17.605469 209.320312 17.605469 L 210.511719 17.605469 C 210.558594 17.605469 210.585938 17.628906 210.585938 17.675781 L 210.585938 18.730469 C 210.582031 18.777344 210.558594 18.800781 210.511719 18.800781 L 209.328125 18.800781 C 209.285156 18.800781 209.261719 18.820312 209.261719 18.863281 Z M 209.261719 18.863281 " fill-opacity="1" fill-rule="nonzero"/><path fill="#000000" d="M 264.898438 17.605469 L 266.058594 17.605469 C 266.105469 17.605469 266.128906 17.628906 266.128906 17.675781 L 266.128906 18.734375 C 266.128906 18.78125 266.105469 18.800781 266.058594 18.800781 L 264.878906 18.800781 C 264.847656 18.800781 264.824219 18.824219 264.824219 18.855469 C 264.824219 19.34375 264.824219 19.824219 264.820312 20.292969 C 264.816406 20.664062 264.796875 21.148438 265.292969 21.234375 C 265.570312 21.285156 265.824219 21.257812 266.0625 21.160156 C 266.105469 21.144531 266.128906 21.15625 266.128906 21.203125 L 266.128906 22.304688 C 266.128906 22.355469 266.105469 22.382812 266.058594 22.394531 C 264.941406 22.65625 263.332031 22.582031 263.320312 21.089844 C 263.3125 20.347656 263.3125 19.601562 263.316406 18.855469 C 263.316406 18.816406 263.296875 18.796875 263.257812 18.796875 L 262.414062 18.808594 C 262.382812 18.808594 262.359375 18.785156 262.359375 18.757812 C 262.359375 18.757812 262.359375 17.660156 262.359375 17.660156 C 262.359375 17.625 262.378906 17.605469 262.417969 17.605469 L 263.265625 17.605469 C 263.292969 17.605469 263.316406 17.582031 263.316406 17.554688 L 263.316406 16.265625 C 263.316406 16.21875 263.335938 16.195312 263.382812 16.195312 L 264.753906 16.195312 C 264.800781 16.195312 264.824219 16.21875 264.824219 16.261719 L 264.824219 17.53125 C 264.824219 17.582031 264.847656 17.605469 264.898438 17.605469 Z M 264.898438 17.605469 " fill-opacity="1" fill-rule="nonzero"/><path fill="#000000" d="M 140.578125 20.542969 C 140.871094 21.550781 142.085938 21.640625 142.679688 20.859375 C 142.707031 20.820312 142.761719 20.8125 142.800781 20.839844 L 143.742188 21.523438 C 143.769531 21.542969 143.777344 21.582031 143.757812 21.609375 C 143.753906 21.609375 143.753906 21.609375 143.753906 21.613281 C 142.632812 22.886719 140.359375 22.816406 139.425781 21.339844 C 138.839844 20.40625 138.953125 19.152344 139.667969 18.347656 C 140.238281 17.703125 141.105469 17.445312 141.976562 17.503906 C 143.132812 17.585938 143.859375 18.445312 143.984375 19.539062 C 144.015625 19.832031 144.027344 20.125 144.015625 20.425781 C 144.015625 20.449219 143.996094 20.46875 143.972656 20.46875 L 140.636719 20.46875 C 140.582031 20.46875 140.5625 20.492188 140.578125 20.542969 Z M 140.59375 19.464844 L 142.507812 19.449219 C 142.515625 19.449219 142.519531 19.445312 142.519531 19.4375 L 142.519531 19.425781 C 142.515625 18.949219 142.085938 18.5625 141.558594 18.566406 L 141.53125 18.566406 C 141.003906 18.570312 140.578125 18.960938 140.582031 19.441406 L 140.582031 19.449219 C 140.582031 19.457031 140.585938 19.464844 140.59375 19.464844 Z M 140.59375 19.464844 " fill-opacity="1" fill-rule="nonzero"/><path fill="#000000" d="M 175.824219 21.867188 C 175.40625 22.578125 174.1875 22.609375 173.527344 22.355469 C 173.042969 22.164062 172.683594 21.738281 172.636719 21.21875 C 172.472656 19.417969 174.585938 19.324219 175.824219 19.347656 C 175.878906 19.347656 175.902344 19.324219 175.894531 19.269531 C 175.777344 18.457031 174.847656 18.363281 174.253906 18.675781 C 174.078125 18.769531 173.921875 18.886719 173.78125 19.03125 C 173.753906 19.0625 173.722656 19.0625 173.691406 19.03125 L 172.980469 18.316406 C 172.953125 18.285156 172.953125 18.242188 172.980469 18.214844 C 172.980469 18.214844 172.980469 18.214844 172.984375 18.210938 C 173.5 17.78125 174.109375 17.546875 174.808594 17.503906 C 176.554688 17.398438 177.269531 18.152344 177.277344 19.855469 C 177.28125 20.691406 177.28125 21.515625 177.277344 22.335938 C 177.277344 22.371094 177.257812 22.390625 177.222656 22.390625 L 175.9375 22.390625 C 175.914062 22.390625 175.894531 22.371094 175.894531 22.347656 L 175.886719 21.886719 C 175.886719 21.800781 175.867188 21.796875 175.824219 21.867188 Z M 175.410156 21.351562 C 175.796875 21.164062 175.953125 20.832031 175.882812 20.347656 C 175.875 20.3125 175.855469 20.296875 175.816406 20.296875 C 175.382812 20.300781 174.234375 20.261719 174.09375 20.835938 C 174.019531 21.140625 174.144531 21.34375 174.46875 21.441406 C 174.773438 21.535156 175.089844 21.503906 175.410156 21.351562 Z M 175.410156 21.351562 " fill-opacity="1" fill-rule="nonzero"/><path fill="#000000" d="M 198.949219 17.617188 C 201.375 18.3125 201.402344 21.660156 198.960938 22.390625 C 197.6875 22.769531 196.148438 22.289062 195.605469 21.03125 C 195.351562 20.445312 195.320312 19.847656 195.507812 19.238281 C 195.960938 17.785156 197.550781 17.21875 198.949219 17.617188 Z M 199.261719 19.875 C 199.265625 19.292969 198.789062 18.816406 198.199219 18.8125 L 197.988281 18.8125 C 197.394531 18.804688 196.914062 19.277344 196.910156 19.859375 C 196.910156 19.859375 196.90625 20.125 196.90625 20.125 C 196.902344 20.707031 197.378906 21.183594 197.96875 21.1875 L 198.179688 21.1875 C 198.773438 21.195312 199.253906 20.726562 199.257812 20.140625 C 199.257812 20.140625 199.261719 19.875 199.261719 19.875 Z M 199.261719 19.875 " fill-opacity="1" fill-rule="nonzero"/><path fill="#000000" d="M 224.910156 20.542969 C 225.222656 21.527344 226.417969 21.667969 227.007812 20.863281 C 227.039062 20.820312 227.097656 20.8125 227.136719 20.839844 L 228.066406 21.515625 C 228.113281 21.546875 228.117188 21.585938 228.078125 21.628906 C 227.507812 22.246094 226.792969 22.535156 225.9375 22.503906 C 224.632812 22.453125 223.511719 21.597656 223.40625 20.289062 C 223.316406 19.179688 223.738281 18.355469 224.664062 17.828125 C 225.285156 17.476562 226.246094 17.386719 226.914062 17.628906 C 228.097656 18.0625 228.425781 19.253906 228.335938 20.417969 C 228.335938 20.453125 228.316406 20.46875 228.285156 20.46875 L 224.964844 20.464844 C 224.914062 20.464844 224.894531 20.492188 224.910156 20.539062 Z M 224.917969 19.460938 L 226.835938 19.457031 C 226.84375 19.457031 226.851562 19.449219 226.851562 19.4375 L 226.851562 19.429688 C 226.851562 18.949219 226.417969 18.5625 225.886719 18.5625 L 225.859375 18.5625 C 225.328125 18.566406 224.902344 18.957031 224.902344 19.4375 L 224.902344 19.445312 C 224.902344 19.453125 224.910156 19.460938 224.917969 19.460938 Z M 224.917969 19.460938 " fill-opacity="1" fill-rule="nonzero"/><path fill="#000000" d="M 240.515625 21.1875 C 240.71875 21.171875 240.929688 21.03125 241.0625 20.882812 C 241.097656 20.847656 241.128906 20.847656 241.164062 20.882812 L 242.066406 21.820312 C 242.097656 21.855469 242.097656 21.886719 242.0625 21.917969 C 241.804688 22.152344 241.519531 22.308594 241.207031 22.390625 C 239.71875 22.777344 237.992188 22.113281 237.734375 20.46875 C 237.539062 19.238281 238.109375 18.128906 239.285156 17.6875 C 240.167969 17.351562 241.332031 17.4375 242.046875 18.066406 C 242.09375 18.109375 242.097656 18.152344 242.054688 18.195312 L 241.171875 19.109375 C 241.140625 19.144531 241.109375 19.144531 241.078125 19.109375 C 240.75 18.785156 240.347656 18.714844 239.875 18.890625 C 239.324219 19.101562 239.113281 19.726562 239.21875 20.253906 C 239.355469 20.929688 239.789062 21.238281 240.515625 21.1875 Z M 240.515625 21.1875 " fill-opacity="1" fill-rule="nonzero"/><path fill="#000000" d="M 245.628906 21.863281 C 245.0625 22.683594 243.535156 22.699219 242.851562 22.058594 C 242.328125 21.570312 242.257812 20.65625 242.730469 20.105469 C 242.941406 19.859375 243.207031 19.691406 243.527344 19.59375 C 244.167969 19.402344 244.804688 19.320312 245.441406 19.355469 C 245.714844 19.371094 245.777344 19.261719 245.625 19.035156 C 245.589844 18.980469 245.554688 18.933594 245.527344 18.890625 C 245.390625 18.6875 245.203125 18.566406 244.957031 18.527344 C 244.445312 18.449219 243.992188 18.613281 243.597656 19.015625 C 243.554688 19.0625 243.511719 19.0625 243.46875 19.015625 L 242.769531 18.308594 C 242.746094 18.285156 242.746094 18.25 242.769531 18.226562 C 242.769531 18.226562 242.769531 18.226562 242.773438 18.222656 C 243.5 17.566406 244.578125 17.390625 245.542969 17.550781 C 246.699219 17.746094 247.0625 18.652344 247.066406 19.6875 C 247.070312 20.527344 247.074219 21.40625 247.070312 22.324219 C 247.070312 22.367188 247.046875 22.390625 247 22.390625 L 245.761719 22.390625 C 245.714844 22.390625 245.691406 22.367188 245.691406 22.324219 L 245.691406 21.882812 C 245.691406 21.808594 245.667969 21.804688 245.628906 21.863281 Z M 245.210938 21.347656 C 245.589844 21.15625 245.746094 20.824219 245.683594 20.347656 C 245.679688 20.320312 245.660156 20.304688 245.628906 20.300781 C 245.183594 20.28125 243.625 20.28125 243.890625 21.121094 C 244.050781 21.617188 244.855469 21.523438 245.210938 21.347656 Z M 245.210938 21.347656 " fill-opacity="1" fill-rule="nonzero"/><path fill="#000000" d="M 144.921875 17.605469 L 146.296875 17.605469 C 146.335938 17.605469 146.359375 17.625 146.359375 17.664062 L 146.359375 22.328125 C 146.359375 22.367188 146.335938 22.390625 146.296875 22.390625 L 144.921875 22.390625 C 144.878906 22.390625 144.859375 22.367188 144.859375 22.328125 L 144.859375 17.664062 C 144.859375 17.625 144.878906 17.605469 144.921875 17.605469 Z M 144.921875 17.605469 " fill-opacity="1" fill-rule="nonzero"/><path fill="#000000" d="M 204.722656 21.800781 C 204.472656 22.195312 204.09375 22.425781 203.585938 22.492188 C 202.722656 22.597656 201.882812 22.285156 201.664062 21.371094 C 201.59375 21.058594 201.554688 20.75 201.550781 20.4375 C 201.546875 19.460938 201.546875 18.53125 201.550781 17.652344 C 201.550781 17.625 201.570312 17.605469 201.597656 17.605469 L 203.015625 17.605469 C 203.035156 17.605469 203.054688 17.625 203.054688 17.644531 L 203.054688 20.015625 C 203.054688 20.554688 203.113281 21.21875 203.851562 21.199219 C 204.511719 21.183594 204.703125 20.699219 204.710938 20.117188 C 204.71875 19.273438 204.722656 18.453125 204.714844 17.664062 C 204.714844 17.625 204.730469 17.605469 204.773438 17.605469 L 206.15625 17.605469 C 206.1875 17.605469 206.210938 17.628906 206.210938 17.65625 L 206.210938 22.332031 C 206.210938 22.363281 206.183594 22.390625 206.148438 22.390625 L 204.867188 22.390625 C 204.804688 22.390625 204.773438 22.359375 204.773438 22.296875 L 204.773438 21.816406 C 204.773438 21.75 204.757812 21.746094 204.722656 21.800781 Z M 204.722656 21.800781 " fill-opacity="1" fill-rule="nonzero"/><path fill="#000000" d="M 235.421875 17.605469 L 236.816406 17.605469 C 236.851562 17.605469 236.871094 17.621094 236.871094 17.65625 L 236.871094 22.339844 C 236.871094 22.375 236.851562 22.390625 236.816406 22.390625 L 235.421875 22.390625 C 235.386719 22.390625 235.371094 22.375 235.371094 22.339844 L 235.371094 17.65625 C 235.371094 17.621094 235.386719 17.605469 235.421875 17.605469 Z M 235.421875 17.605469 " fill-opacity="1" fill-rule="nonzero"/><path fill="#000000" d="M 260.371094 17.605469 L 261.765625 17.605469 C 261.800781 17.605469 261.820312 17.621094 261.820312 17.65625 L 261.820312 22.339844 C 261.820312 22.375 261.800781 22.390625 261.765625 22.390625 L 260.371094 22.390625 C 260.335938 22.390625 260.320312 22.375 260.320312 22.339844 L 260.320312 17.65625 C 260.320312 17.621094 260.335938 17.605469 260.371094 17.605469 Z M 260.371094 17.605469 " fill-opacity="1" fill-rule="nonzero"/><g clip-path="url(#3c53e79aa8)"><path fill="#000000" d="M 269.402344 20.683594 L 270.421875 17.652344 C 270.433594 17.621094 270.457031 17.605469 270.492188 17.605469 L 271.929688 17.605469 C 271.96875 17.605469 271.980469 17.625 271.964844 17.660156 C 271.199219 19.601562 270.441406 21.527344 269.691406 23.429688 C 269.4375 24.070312 269.15625 24.5625 268.390625 24.695312 C 267.835938 24.789062 267.269531 24.757812 266.691406 24.597656 C 266.652344 24.585938 266.628906 24.546875 266.632812 24.507812 L 266.8125 23.417969 C 266.820312 23.371094 266.847656 23.359375 266.890625 23.375 C 267.3125 23.535156 268.050781 23.613281 268.304688 23.136719 C 268.417969 22.929688 268.515625 22.707031 268.597656 22.472656 C 268.609375 22.4375 268.605469 22.402344 268.59375 22.367188 L 266.523438 17.660156 C 266.507812 17.625 266.519531 17.605469 266.558594 17.605469 L 268.070312 17.605469 C 268.105469 17.605469 268.132812 17.621094 268.144531 17.65625 L 269.339844 20.683594 C 269.359375 20.746094 269.382812 20.742188 269.402344 20.683594 Z M 269.402344 20.683594 " fill-opacity="1" fill-rule="nonzero"/></g><g clip-path="url(#9fcf48cb7b)"><g clip-path="url(#447bd65f62)"><g transform="matrix(1, 0, 0, 1, 25, 15)"><g clip-path="url(#6c50fc567d)"><g clip-path="url(#39456dc004)"><g clip-path="url(#9b4f553028)"><rect x="-85.885" width="398.52" fill="#000000" height="37.799999" y="-20.775" fill-opacity="1"/></g></g></g></g></g></g></svg>